# Blender v2.74 (sub 0) OBJ File: 'appliance_aligner.blend'
# www.blender.org
mtllib appliance_aligner.mtl
o MoveArm_pmdl.002
v 0.372000 0.510000 1.119692
v 0.372000 0.840154 1.224795
v 0.372000 0.510000 1.000000
v 0.372000 0.959844 1.150001
v 0.628000 0.510000 1.119692
v 0.628000 0.840154 1.224795
v 0.628000 0.510000 1.000000
v 0.628000 0.959846 1.150001
v 0.372000 0.840154 1.850000
v 0.372000 0.959846 1.850000
v 0.628000 0.840154 1.850000
v 0.628000 0.959846 1.850000
vt 0.824219 0.750000
vt 0.765625 0.750000
vt 0.765625 0.742188
vt 0.824219 0.742188
vn -1.000000 0.000000 0.000000
vn -0.000000 0.316300 -0.948700
vn 1.000000 -0.000000 0.000000
vn 0.000000 -0.303300 0.952900
vn 0.000000 -1.000000 0.000000
vn 0.000000 0.000000 1.000000
vn -0.000000 1.000000 -0.000000
usemtl Conveyor
s off
f 2/1/1 4/2/1 3/3/1 1/4/1
f 4/2/2 8/1/2 7/4/2 3/3/2
f 8/1/3 6/2/3 5/3/3 7/4/3
f 6/2/4 2/1/4 1/4/4 5/3/4
f 2/4/5 6/3/5 11/2/5 9/1/5
f 11/4/6 12/1/6 10/2/6 9/3/6
f 6/3/3 8/4/3 12/1/3 11/2/3
f 8/4/7 4/3/7 10/2/7 12/1/7
f 4/3/1 2/4/1 9/1/1 10/2/1
o Baseplate_pmdl
v 0.031250 0.100000 1.119692
v 0.031250 0.510000 1.119692
v 0.031250 0.100000 1.000000
v 0.031250 0.510000 1.000000
v 0.968750 0.100000 1.119692
v 0.968750 0.510000 1.119692
v 0.968750 0.100000 1.000000
v 0.968750 0.510000 1.000000
vt 0.824219 0.750000
vt 0.765625 0.750000
vt 0.765625 0.742188
vt 0.824219 0.742188
vn -1.000000 0.000000 0.000000
vn 0.000000 0.000000 -1.000000
vn 1.000000 0.000000 0.000000
vn 0.000000 0.000000 1.000000
vn 0.000000 -1.000000 0.000000
vn 0.000000 1.000000 0.000000
usemtl Conveyor
s off
f 14/5/8 16/6/8 15/7/8 13/8/8
f 16/6/9 20/5/9 19/8/9 15/7/9
f 20/5/10 18/6/10 17/7/10 19/8/10
f 18/6/11 14/5/11 13/8/11 17/7/11
f 13/6/12 15/7/12 19/8/12 17/5/12
f 18/8/13 20/5/13 16/6/13 14/7/13
o MoveArmStilts_pmdl.003
v 0.372000 0.840154 1.620000
v 0.372000 0.550001 1.620000
v 0.407355 0.840153 1.620000
v 0.389678 0.550000 1.637678
v 0.389678 0.840153 1.637678
v 0.407355 0.549999 1.620000
v 0.389678 0.550001 1.602322
v 0.389678 0.840154 1.602322
v 0.628000 0.840154 1.620000
v 0.628000 0.550001 1.620000
v 0.592645 0.840153 1.620000
v 0.610322 0.550000 1.637678
v 0.610322 0.840153 1.637678
v 0.592645 0.549999 1.620000
v 0.610322 0.550001 1.602322
v 0.610322 0.840154 1.602322
v 0.372000 0.840154 1.380000
v 0.372000 0.550001 1.380000
v 0.407355 0.840153 1.380000
v 0.389678 0.550000 1.362322
v 0.389678 0.840153 1.362322
v 0.407355 0.549999 1.380000
v 0.389678 0.550001 1.397678
v 0.389678 0.840154 1.397678
v 0.628000 0.840154 1.380000
v 0.628000 0.550001 1.380000
v 0.592645 0.840153 1.380000
v 0.610322 0.550000 1.362322
v 0.610322 0.840153 1.362322
v 0.592645 0.549999 1.380000
v 0.610322 0.550001 1.397678
v 0.610322 0.840154 1.397678
vt 0.765625 0.750000
vt 0.824219 0.750000
vt 0.824219 0.742188
vt 0.765625 0.742188
vt 0.792969 0.750000
vt 0.792969 0.742188
vt 0.800781 0.742188
vt 0.800781 0.750000
vn 0.707100 0.000000 -0.707100
vn -0.707100 0.000000 0.707100
vn 0.707100 0.000000 0.707100
vn -0.707100 0.000000 -0.707100
vn -0.000000 -1.000000 -0.000000
usemtl Conveyor
s off
f 27/9/14 28/10/14 23/11/14 26/12/14
f 25/10/15 21/11/15 22/12/15 24/9/15
f 24/9/16 26/12/16 23/11/16 25/10/16
f 21/11/17 28/10/17 27/9/17 22/12/17
f 22/13/18 27/14/18 26/15/18 24/16/18
f 35/9/17 34/12/17 31/11/17 36/10/17
f 33/10/16 32/9/16 30/12/16 29/11/16
f 32/9/15 33/10/15 31/11/15 34/12/15
f 29/11/14 30/12/14 35/9/14 36/10/14
f 30/13/18 32/16/18 34/15/18 35/14/18
f 43/9/16 42/12/16 39/11/16 44/10/16
f 41/10/17 40/9/17 38/12/17 37/11/17
f 40/9/14 41/10/14 39/11/14 42/12/14
f 37/11/15 38/12/15 43/9/15 44/10/15
f 38/13/18 40/16/18 42/15/18 43/14/18
f 51/9/15 52/10/15 47/11/15 50/12/15
f 49/10/14 45/11/14 46/12/14 48/9/14
f 48/9/17 50/12/17 47/11/17 49/10/17
f 45/11/16 52/10/16 51/9/16 46/12/16
f 46/13/18 51/14/18 50/15/18 48/16/18
o ScanArm_pmdl.001
v 0.168000 0.510000 1.119692
v 0.168000 0.840154 1.224795
v 0.168000 0.510000 1.000000
v 0.168000 0.959844 1.150001
v 0.232000 0.510000 1.119692
v 0.232000 0.840154 1.224795
v 0.232000 0.510000 1.000000
v 0.232000 0.959846 1.150001
v 0.168000 0.840154 1.850000
v 0.168000 0.959846 1.850000
v 0.232000 0.840154 1.850000
v 0.232000 0.959846 1.850000
v 0.832000 0.510000 1.119692
v 0.832000 0.840154 1.224795
v 0.832000 0.510000 1.000000
v 0.832000 0.959844 1.150001
v 0.768000 0.510000 1.119692
v 0.768000 0.840154 1.224795
v 0.768000 0.510000 1.000000
v 0.768000 0.959846 1.150001
v 0.832000 0.840154 1.850000
v 0.832000 0.959846 1.850000
v 0.768000 0.840154 1.850000
v 0.768000 0.959846 1.850000
vt 0.824219 0.750000
vt 0.765625 0.750000
vt 0.765625 0.742188
vt 0.824219 0.742188
vt 0.765625 0.722656
vt 0.765625 0.738281
vt 0.824219 0.738281
vt 0.824219 0.722656
vn -1.000000 0.000000 0.000000
vn -0.000000 0.316300 -0.948600
vn 1.000000 0.000000 0.000000
vn 0.000000 -0.303300 0.952900
vn 0.000000 -1.000000 0.000000
vn 0.000000 0.000000 1.000000
vn -0.000000 1.000000 -0.000000
usemtl Conveyor
s off
f 54/17/19 56/18/19 55/19/19 53/20/19
f 56/18/20 60/17/20 59/20/20 55/19/20
f 60/17/21 58/18/21 57/19/21 59/20/21
f 58/18/22 54/17/22 53/20/22 57/19/22
f 54/21/23 58/22/23 63/23/23 61/24/23
f 63/20/24 64/17/24 62/18/24 61/19/24
f 58/19/21 60/20/21 64/17/21 63/18/21
f 60/20/25 56/19/25 62/18/25 64/17/25
f 56/19/19 54/20/19 61/17/19 62/18/19
f 66/17/21 65/20/21 67/19/21 68/18/21
f 68/18/20 67/19/20 71/20/20 72/17/20
f 72/17/19 71/20/19 69/19/19 70/18/19
f 70/18/22 69/19/22 65/20/22 66/17/22
f 66/21/23 73/24/23 75/23/23 70/22/23
f 75/20/24 73/19/24 74/18/24 76/17/24
f 70/19/19 75/18/19 76/17/19 72/20/19
f 72/20/25 76/17/25 74/18/25 68/19/25
f 68/19/21 74/18/21 73/17/21 66/20/21
o ControlPanel
v 0.425413 0.000000 0.900612
v 0.425413 0.000000 1.000000
v 0.122100 0.000000 1.000000
v 0.122100 0.000000 0.900612
v 0.516480 0.602496 0.938681
v 0.031033 0.602496 0.938681
v 0.031033 0.602496 0.900612
v 0.516480 0.510000 1.000000
v 0.031033 0.510000 1.000000
v 0.516480 0.510000 0.900612
v 0.516480 0.602496 0.900612
v 0.031033 0.510000 0.900612
v 0.516480 0.462583 0.671957
v 0.031033 0.462583 0.671957
v 0.516480 0.436609 0.671957
v 0.031033 0.436609 0.671957
vt 0.160156 0.757812
vt 0.160156 0.738281
vt 0.214844 0.738281
vt 0.214844 0.757812
vt 0.167969 0.769531
vt 0.167969 0.761719
vt 0.207031 0.761719
vt 0.207031 0.769531
vt 0.214844 0.761719
vt 0.160156 0.761719
vt 0.214844 0.769531
vt 0.160156 0.769531
vt 0.160156 0.726562
vt 0.214844 0.726562
vt 0.214844 0.722656
vt 0.160156 0.722656
vt 0.218750 0.765625
vt 0.195312 0.765625
vt 0.171875 0.734375
vt 0.218750 0.734375
vt 0.183594 0.765625
vt 0.160156 0.765625
vt 0.160156 0.734375
vt 0.207031 0.734375
vt 0.535156 0.839844
vt 0.601562 0.839844
vt 0.601562 0.894531
vt 0.535156 0.894531
vt 0.214844 0.742188
vt 0.214844 0.734375
vt 0.164062 0.734375
vt 0.164062 0.742188
vn 0.000000 0.000000 1.000000
vn 0.000000 -1.000000 0.000000
vn -0.000000 0.552500 0.833500
vn 0.000000 0.000000 -1.000000
vn 0.984400 -0.175800 0.000000
vn -0.984400 -0.175800 -0.000000
vn 0.000000 1.000000 0.000000
vn 1.000000 0.000000 0.000000
vn -1.000000 0.000000 -0.000000
vn 0.000000 0.853000 -0.521900
vn 0.000000 -0.952200 0.305600
usemtl Conveyor
s off
f 84/25/26 85/26/26 79/27/26 78/28/26
f 77/29/27 78/30/27 79/31/27 80/32/27
f 81/26/28 82/27/28 85/33/28 84/34/28
f 90/35/29 89/36/29 91/25/29 92/28/29
f 86/36/30 84/25/30 78/28/30 77/35/30
f 85/26/31 88/37/31 80/38/31 79/27/31
f 88/39/29 86/40/29 77/29/29 80/32/29
f 83/39/32 82/27/32 81/26/32 87/40/32
f 87/41/33 81/42/33 84/43/33 86/44/33
f 82/45/34 83/46/34 88/47/34 85/48/34
f 83/49/35 87/50/35 89/51/35 90/52/35
f 88/47/34 83/46/34 90/53/34 92/54/34
f 86/40/36 88/39/36 92/28/36 91/25/36
f 91/55/33 89/56/33 87/41/33 86/44/33
