# Blender v2.79 (sub 0) OBJ File: 'appliance_aligner.blend'
# www.blender.org
mtllib appliance_aligner.mtl
o Baseplate_pmdl
v 0.031250 0.396613 1.119692
v 0.031250 0.562500 1.119692
v 0.031250 0.396613 1.000000
v 0.031250 0.562500 1.000000
v 0.516480 0.396613 1.119692
v 0.516480 0.562500 1.119692
v 0.516480 0.396613 1.000000
v 0.516480 0.562500 1.000000
v 0.406250 0.510000 1.119687
v 0.406250 0.514776 1.119687
v 0.437500 0.510000 1.119692
v 0.437500 0.514776 1.119692
v 0.406250 0.510000 1.849991
v 0.406250 0.514776 1.880302
v 0.437500 0.514776 1.880307
v 0.437500 0.510000 1.849996
v 0.406250 0.450000 1.849991
v 0.437500 0.450000 1.849996
v 0.406250 0.450000 1.880302
v 0.437500 0.450000 1.880307
vt 0.824219 0.750000
vt 0.765625 0.750000
vt 0.765625 0.742188
vt 0.824219 0.742188
vt 0.824219 0.750000
vt 0.824219 0.742188
vt 0.765625 0.750000
vt 0.765625 0.742188
vt 0.765625 0.750000
vt 0.824219 0.750000
vt 0.824219 0.742188
vt 0.765625 0.742188
vt 0.765625 0.750000
vt 0.765625 0.742188
vt 0.824219 0.742188
vt 0.824219 0.750000
vt 0.824219 0.742188
vt 0.765625 0.742188
vt 0.765625 0.742188
vt 0.824219 0.742188
vt 0.824219 0.750000
vt 0.765625 0.750000
vt 0.765625 0.742188
vt 0.824219 0.742188
vt 0.765625 0.742188
vt 0.824219 0.742188
vn -1.0000 0.0000 0.0000
vn 0.0000 0.0000 -1.0000
vn 1.0000 0.0000 0.0000
vn 0.0000 0.0000 1.0000
vn 0.0000 -1.0000 0.0000
vn 0.0000 1.0000 0.0000
vn 0.0002 0.0000 -1.0000
vn -0.0002 0.0000 1.0000
usemtl Conveyor
s off
f 2/1/1 4/2/1 3/3/1 1/4/1
f 4/2/2 8/5/2 7/6/2 3/3/2
f 8/5/3 6/7/3 5/8/3 7/6/3
f 6/7/4 2/1/4 1/4/4 5/8/4
f 1/9/5 3/3/5 7/6/5 5/10/5
f 6/11/6 8/5/6 4/2/6 2/12/6
f 12/13/7 11/14/7 9/15/7 10/16/7
f 13/17/7 16/18/7 18/19/7 17/20/7
f 12/13/6 10/16/6 14/21/6 15/22/6
f 10/16/1 9/15/1 13/17/1 14/21/1
f 9/15/5 11/14/5 16/18/5 13/17/5
f 11/14/3 12/13/3 15/22/3 16/18/3
f 17/20/5 18/19/5 20/23/5 19/24/5
f 16/18/3 15/25/3 20/23/3 18/19/3
f 14/26/1 13/17/1 17/20/1 19/24/1
f 15/25/8 14/26/8 19/24/8 20/23/8
o ScanArm_pmdl.001
v 0.250000 0.625000 1.119692
v 0.250000 0.625001 1.062500
v 0.250000 0.687500 1.150000
v 0.250000 0.687501 1.062500
v 0.062500 0.625000 1.119692
v 0.062500 0.624999 1.062500
v 0.062500 0.687500 1.150000
v 0.062500 0.687499 1.062500
v 0.125000 0.562500 1.119692
v 0.125000 0.625000 1.119692
v 0.125000 0.562500 1.062500
v 0.125000 0.624999 1.062500
v 0.187500 0.562500 1.119692
v 0.187500 0.625000 1.119692
v 0.187500 0.562500 1.062500
v 0.187500 0.625001 1.062500
vt 0.156250 0.753906
vt 0.167969 0.753906
vt 0.171875 0.753906
vt 0.156250 0.753906
vt 0.218750 0.738281
vt 0.218750 0.753906
vt 0.156250 0.753906
vt 0.156250 0.738281
vt 0.824219 0.722656
vt 0.824219 0.738281
vt 0.781250 0.738281
vt 0.781250 0.722656
vt 0.218750 0.753906
vt 0.218750 0.753906
vt 0.218750 0.738281
vt 0.156250 0.738281
vt 0.207031 0.753906
vt 0.203125 0.753906
vt 0.824219 0.750000
vt 0.765625 0.750000
vt 0.765625 0.742188
vt 0.824219 0.742188
vt 0.824219 0.750000
vt 0.824219 0.742188
vt 0.765625 0.750000
vt 0.765625 0.742188
vn -1.0000 0.0000 0.0000
vn 0.0000 -1.0000 0.0000
vn 0.0000 -0.4363 0.8998
vn 0.0000 0.0000 -1.0000
vn -0.0000 1.0000 0.0000
vn 1.0000 0.0000 0.0000
vn 0.0000 0.0000 1.0000
usemtl Conveyor
s off
f 26/27/9 25/28/9 27/29/9 28/30/9
f 22/31/10 21/32/10 25/33/10 26/34/10
f 21/35/11 23/36/11 27/37/11 25/38/11
f 24/39/12 22/40/12 26/27/12 28/30/12
f 23/41/13 24/39/13 28/30/13 27/42/13
f 21/43/14 22/40/14 24/39/14 23/44/14
f 30/45/9 32/46/9 31/47/9 29/48/9
f 32/46/12 36/49/12 35/50/12 31/47/12
f 36/49/14 34/51/14 33/52/14 35/50/14
f 34/51/15 30/45/15 29/48/15 33/52/15
o ControlPanel
v 0.031033 0.562500 1.000000
v 0.516480 0.470004 1.000000
v 0.516480 0.562500 1.000000
v 0.031033 0.470004 1.000000
v 0.516480 0.422587 0.771345
v 0.031033 0.422587 0.771345
v 0.516480 0.396613 0.771345
v 0.031033 0.396613 0.771345
vt 0.214844 0.769531
vt 0.160156 0.769531
vt 0.160156 0.757812
vt 0.214844 0.757812
vt 0.535156 0.839844
vt 0.601562 0.839844
vt 0.601562 0.894531
vt 0.535156 0.894531
vt 0.160156 0.734375
vt 0.160156 0.765625
vt 0.214844 0.742188
vt 0.214844 0.734375
vt 0.160156 0.722656
vt 0.214844 0.722656
vt 0.164062 0.734375
vt 0.164062 0.742188
vt 0.218750 0.765625
vt 0.218750 0.734375
vn 0.0000 0.0000 -1.0000
vn 0.0000 0.8530 -0.5219
vn -1.0000 0.0000 -0.0000
vn -0.0000 -0.9522 0.3056
vn 1.0000 0.0000 0.0000
usemtl Conveyor
s off
f 42/53/16 41/54/16 43/55/16 44/56/16
f 37/57/17 39/58/17 41/59/17 42/60/17
f 40/61/18 37/62/18 42/63/18 44/64/18
f 38/65/19 40/66/19 44/56/19 43/55/19
f 43/67/20 41/68/20 39/69/20 38/70/20
