# Blender v2.74 (sub 0) OBJ File: 'chute.blend'
# www.blender.org
mtllib chute.mtl
o Chute_chutemdl
v 0.849999 0.000000 0.849999
v 1.000000 1.000000 1.000000
v 1.000000 0.900000 1.000000
v 0.849999 0.200000 0.849999
v 0.849999 0.900000 0.849999
v 0.849999 1.000000 0.849999
v 0.729040 0.729725 0.729040
v 0.849999 0.000000 0.150001
v 1.000000 1.000000 -0.000000
v 1.000000 0.900000 -0.000000
v 0.849999 0.200000 0.150001
v 0.849999 0.900000 0.150001
v 0.849999 1.000000 0.150001
v 0.729040 0.729725 0.270960
v 0.150001 0.000000 0.849999
v 0.150001 0.000000 0.150001
v 0.000000 1.000000 1.000000
v 0.000000 1.000000 0.000000
v 0.000000 0.900000 1.000000
v 0.000000 0.900000 0.000000
v 0.150001 0.200000 0.849999
v 0.150001 0.200000 0.150001
v 0.150001 0.900000 0.849999
v 0.150001 0.900000 0.150001
v 0.150001 1.000000 0.849999
v 0.150001 1.000000 0.150001
v 0.270960 0.729725 0.270960
v 0.270960 0.729725 0.729040
vt 0.408203 0.365234
vt 0.408203 0.330078
vt 0.417969 0.330078
vt 0.417969 0.365234
vt 0.380859 0.373047
vt 0.380859 0.322266
vt 0.460938 0.322266
vt 0.460938 0.373047
vt 0.455078 0.369141
vt 0.455078 0.328125
vt 0.375000 0.373047
vt 0.375000 0.322266
vt 0.451172 0.328125
vt 0.451172 0.369141
vt 0.437500 0.359375
vt 0.437500 0.335938
vt 0.439453 0.361328
vt 0.410156 0.361328
vt 0.410156 0.332031
vt 0.439453 0.332031
vt 0.398438 0.371094
vt 0.398438 0.322266
vt 0.447266 0.322266
vt 0.447266 0.371094
vn 1.000000 0.000000 0.000000
vn 0.977800 -0.209500 0.000000
vn 0.000000 1.000000 0.000000
vn -0.815200 0.579100 0.000000
vn -0.000000 0.000000 1.000000
vn -0.000000 -0.209500 0.977800
vn 0.000000 0.579100 -0.815200
vn 0.000000 0.000000 -1.000000
vn -0.000000 -0.209500 -0.977800
vn 0.000000 0.579100 0.815200
vn -1.000000 0.000000 0.000000
vn -0.977800 -0.209500 0.000000
vn 0.815200 0.579100 -0.000000
vn 0.000000 -1.000000 0.000000
usemtl Conveyor
s off
f 11/1/1 4/2/1 1/3/1 8/4/1
f 10/5/2 3/6/2 4/2/2 11/1/2
f 2/7/3 9/8/3 13/9/3 6/10/3
f 9/11/1 2/12/1 3/6/1 10/5/1
f 5/13/4 12/14/4 14/15/4 7/16/4
f 21/1/5 15/4/5 1/3/5 4/2/5
f 19/5/6 21/1/6 4/2/6 3/6/6
f 2/7/3 6/10/3 25/9/3 17/8/3
f 17/11/5 19/5/5 3/6/5 2/12/5
f 5/13/7 7/16/7 28/15/7 23/14/7
f 11/1/8 8/4/8 16/3/8 22/2/8
f 10/5/9 11/1/9 22/2/9 20/6/9
f 18/7/3 26/10/3 13/9/3 9/8/3
f 9/11/8 10/5/8 20/6/8 18/12/8
f 24/13/10 27/16/10 14/15/10 12/14/10
f 21/1/11 22/2/11 16/3/11 15/4/11
f 14/17/3 27/18/3 28/19/3 7/20/3
f 19/5/12 20/6/12 22/2/12 21/1/12
f 18/7/3 17/8/3 25/9/3 26/10/3
f 17/11/11 18/12/11 20/6/11 19/5/11
f 24/13/13 23/14/13 28/15/13 27/16/13
f 8/21/14 1/22/14 15/23/14 16/24/14
usemtl Conveyor_NONE
f 6/10/11 13/9/11 12/14/11 5/13/11
f 6/10/8 5/13/8 23/14/8 25/9/8
f 26/10/5 24/13/5 12/14/5 13/9/5
f 26/10/1 25/9/1 23/14/1 24/13/1
