# Blender v2.74 (sub 0) OBJ File: 'chute.blend'
# www.blender.org
mtllib chute.mtl
o Chute_chutemdl
v 0.849999 0.000000 0.849999
v 1.000000 1.000000 1.000000
v 1.000000 0.900000 1.000000
v 0.849999 0.200000 0.849999
v 0.849999 0.900000 0.849999
v 0.849999 1.000000 0.849999
v 0.729040 0.729725 0.729040
v 0.849999 0.000000 0.150001
v 1.000000 1.000000 -0.000000
v 1.000000 0.900000 -0.000000
v 0.849999 0.200000 0.150001
v 0.849999 0.900000 0.150001
v 0.849999 1.000000 0.150001
v 0.729040 0.729725 0.270960
v 0.150001 0.000000 0.849999
v 0.150001 0.000000 0.150001
v 0.000000 1.000000 1.000000
v 0.000000 1.000000 0.000000
v 0.000000 0.900000 1.000000
v 0.000000 0.900000 0.000000
v 0.150001 0.200000 0.849999
v 0.150001 0.200000 0.150001
v 0.150001 0.900000 0.849999
v 0.150001 0.900000 0.150001
v 0.150001 1.000000 0.849999
v 0.150001 1.000000 0.150001
v 0.270960 0.729725 0.270960
v 0.270960 0.729725 0.729040
vt 0.816406 0.699219
vt 0.816406 0.628906
vt 0.835938 0.628906
vt 0.835938 0.699219
vt 0.761719 0.714844
vt 0.761719 0.613281
vt 0.921875 0.613281
vt 0.921875 0.714844
vt 0.910156 0.707031
vt 0.910156 0.625000
vt 0.750000 0.714844
vt 0.750000 0.613281
vt 0.902344 0.707031
vt 0.902344 0.625000
vt 0.875000 0.687500
vt 0.875000 0.640625
vt 0.878906 0.691406
vt 0.820312 0.691406
vt 0.820312 0.632812
vt 0.878906 0.632812
vt 0.796875 0.710938
vt 0.796875 0.613281
vt 0.894531 0.613281
vt 0.894531 0.710938
vn 1.000000 0.000000 0.000000
vn 0.977800 -0.209500 0.000000
vn 0.000000 1.000000 0.000000
vn -1.000000 0.000000 0.000000
vn -0.815200 0.579100 0.000000
vn -0.000000 0.000000 1.000000
vn -0.000000 -0.209500 0.977800
vn 0.000000 0.000000 -1.000000
vn 0.000000 0.579100 -0.815200
vn -0.000000 -0.209500 -0.977800
vn 0.000000 0.579100 0.815200
vn -0.977800 -0.209500 0.000000
vn 0.815200 0.579100 -0.000000
vn 0.000000 -1.000000 0.000000
usemtl Conveyor
s off
f 11/1/1 4/2/1 1/3/1 8/4/1
f 10/5/2 3/6/2 4/2/2 11/1/2
f 2/7/3 9/8/3 13/9/3 6/10/3
f 9/11/1 2/12/1 3/6/1 10/5/1
f 6/10/4 13/9/4 12/13/4 5/14/4
f 5/14/5 12/13/5 14/15/5 7/16/5
f 21/1/6 15/4/6 1/3/6 4/2/6
f 19/5/7 21/1/7 4/2/7 3/6/7
f 2/7/3 6/10/3 25/9/3 17/8/3
f 17/11/6 19/5/6 3/6/6 2/12/6
f 6/10/8 5/14/8 23/13/8 25/9/8
f 5/14/9 7/16/9 28/15/9 23/13/9
f 11/1/8 8/4/8 16/3/8 22/2/8
f 10/5/10 11/1/10 22/2/10 20/6/10
f 18/7/3 26/10/3 13/9/3 9/8/3
f 9/11/8 10/5/8 20/6/8 18/12/8
f 26/10/6 24/14/6 12/13/6 13/9/6
f 24/14/11 27/16/11 14/15/11 12/13/11
f 21/1/4 22/2/4 16/3/4 15/4/4
f 14/17/3 27/18/3 28/19/3 7/20/3
f 19/5/12 20/6/12 22/2/12 21/1/12
f 18/7/3 17/8/3 25/9/3 26/10/3
f 17/11/4 18/12/4 20/6/4 19/5/4
f 26/10/1 25/9/1 23/13/1 24/14/1
f 24/14/13 23/13/13 28/15/13 27/16/13
f 8/21/14 1/22/14 15/23/14 16/24/14
