# Blender v2.74 (sub 0) OBJ File: 'conveyor_elevator.blend'
# www.blender.org
mtllib conveyor_elevator.mtl
o SieveChute_cscmdl
v 0.062504 0.000000 0.333331
v 0.062504 1.000000 0.333331
v 0.000004 0.000000 0.333331
v 0.000004 1.000000 0.270827
v 0.000004 0.000000 0.270827
v 0.000004 1.000000 0.333331
v 0.375004 0.000000 0.333331
v 0.312504 0.000000 0.333331
v 0.375004 1.000000 0.333331
v 0.312504 1.000000 0.333331
v 0.343754 0.000000 0.270827
v 0.343754 1.000000 0.270827
v 0.000004 0.000000 0.333331
v 0.000004 1.000000 0.333331
v 0.937496 0.000000 0.333331
v 0.500000 0.000000 0.333331
v 0.937496 1.000000 0.333331
v 0.500000 1.000000 0.333331
v 0.999996 0.000000 0.333331
v 0.999996 1.000000 0.270827
v 0.999996 0.000000 0.270827
v 0.999996 1.000000 0.333331
v 0.500000 1.000000 0.333331
v 0.500000 0.000000 0.333331
v 0.624996 0.000000 0.333331
v 0.687496 0.000000 0.333331
v 0.624996 1.000000 0.333331
v 0.687496 1.000000 0.333331
v 0.656246 0.000000 0.270827
v 0.656246 1.000000 0.270827
v 0.999996 0.000000 0.333331
v 0.999996 1.000000 0.333331
v 0.062504 0.000000 0.666669
v 0.062504 1.000000 0.666669
v 0.000004 0.000000 0.500000
v 0.000004 1.000000 0.500000
v 0.000004 0.000000 0.666669
v 0.000004 1.000000 0.729173
v 0.000004 0.000000 0.729173
v 0.000004 1.000000 0.666669
v 0.000004 1.000000 0.500000
v 0.000004 0.000000 0.500000
v 0.375004 0.000000 0.666669
v 0.312504 0.000000 0.666669
v 0.375004 1.000000 0.666669
v 0.312504 1.000000 0.666669
v 0.343754 0.000000 0.729173
v 0.343754 1.000000 0.729173
v 0.000004 0.000000 0.666669
v 0.000004 1.000000 0.666669
v 0.937496 0.000000 0.666669
v 0.500000 0.000000 0.666669
v 0.937496 1.000000 0.666669
v 0.500000 1.000000 0.666669
v 0.999996 0.000000 0.500000
v 0.999996 1.000000 0.500000
v 0.999996 0.000000 0.666669
v 0.999996 1.000000 0.729173
v 0.999996 0.000000 0.729173
v 0.999996 1.000000 0.666669
v 0.500000 1.000000 0.666669
v 0.999996 1.000000 0.500000
v 0.500000 1.000000 0.500000
v 0.500000 0.000000 0.666669
v 0.999996 0.000000 0.500000
v 0.500000 0.000000 0.500000
v 0.624996 0.000000 0.666669
v 0.687496 0.000000 0.666669
v 0.624996 1.000000 0.666669
v 0.687496 1.000000 0.666669
v 0.656246 0.000000 0.729173
v 0.656246 1.000000 0.729173
v 0.999996 0.000000 0.666669
v 0.999996 1.000000 0.666669
vt 0.996094 0.929688
vt 0.964844 0.929688
vt 0.964844 0.917969
vt 0.996094 0.917969
vt 0.996094 0.996094
vt 0.992188 0.996094
vt 0.992188 0.933594
vt 0.996094 0.933594
vt 0.972656 0.996094
vt 0.964844 0.996094
vt 0.964844 0.933594
vt 0.972656 0.933594
vt 0.929688 0.933594
vt 0.929688 0.996094
vt 0.933594 0.996094
vt 0.933594 0.933594
vt 0.976562 0.996094
vt 0.976562 0.933594
vt 0.974609 0.996094
vt 0.974609 0.933594
vt 0.974609 0.992188
vt 0.917969 0.933594
vt 0.917969 0.996094
vt 0.996094 0.992188
vt 0.996094 0.937500
vt 0.974609 0.937500
vn 0.000000 -1.000000 0.000000
vn 0.707100 0.000000 -0.707100
vn 0.000000 0.000000 -1.000000
vn -1.000000 0.000000 0.000000
vn -0.000000 1.000000 0.000000
vn 0.894400 0.000000 -0.447200
vn -0.894400 0.000000 -0.447200
vn -0.707100 0.000000 -0.707100
vn 1.000000 0.000000 0.000000
vn 0.707100 0.000000 0.707100
vn 0.000000 0.000000 1.000000
vn 0.894400 0.000000 0.447200
vn -0.894400 0.000000 0.447200
vn -0.707100 0.000000 0.707100
usemtl Conveyor
s off
f 3/1/1 24/2/1 66/3/1 42/4/1
f 4/5/2 2/6/2 1/7/2 5/8/2
f 9/9/3 18/10/3 16/11/3 7/12/3
f 13/13/4 14/14/4 4/15/4 5/16/4
f 23/2/5 6/1/5 41/4/5 63/3/5
f 2/6/3 10/17/3 8/18/3 1/7/3
f 12/19/6 9/9/6 7/12/6 11/20/6
f 10/17/7 12/19/7 11/20/7 8/18/7
f 12/21/5 10/17/5 9/9/5
f 35/22/4 36/23/4 14/14/4 13/13/4
f 2/6/5 4/24/5 14/5/5
f 5/25/1 1/8/1 13/7/1
f 11/26/1 7/12/1 8/18/1
f 19/1/1 65/4/1 66/3/1 24/2/1
f 20/5/8 21/8/8 15/7/8 17/6/8
f 27/9/3 25/12/3 16/11/3 18/10/3
f 31/13/9 21/16/9 20/15/9 32/14/9
f 23/2/5 63/3/5 62/4/5 22/1/5
f 17/6/3 15/7/3 26/18/3 28/17/3
f 30/19/7 29/20/7 25/12/7 27/9/7
f 28/17/6 26/18/6 29/20/6 30/19/6
f 30/21/5 27/9/5 28/17/5
f 55/22/9 31/13/9 32/14/9 56/23/9
f 17/6/5 32/5/5 20/24/5
f 21/25/1 31/7/1 15/8/1
f 29/26/1 26/18/1 25/12/1
f 37/1/1 42/4/1 66/3/1 64/2/1
f 38/5/10 39/8/10 33/7/10 34/6/10
f 45/9/11 43/12/11 52/11/11 54/10/11
f 49/13/4 39/16/4 38/15/4 50/14/4
f 61/2/5 63/3/5 41/4/5 40/1/5
f 34/6/11 33/7/11 44/18/11 46/17/11
f 48/19/12 47/20/12 43/12/12 45/9/12
f 46/17/13 44/18/13 47/20/13 48/19/13
f 48/21/5 45/9/5 46/17/5
f 35/22/4 49/13/4 50/14/4 36/23/4
f 34/6/5 50/5/5 38/24/5
f 39/25/1 49/7/1 33/8/1
f 47/26/1 44/18/1 43/12/1
f 57/1/1 64/2/1 66/3/1 65/4/1
f 58/5/14 53/6/14 51/7/14 59/8/14
f 69/9/11 54/10/11 52/11/11 67/12/11
f 73/13/9 74/14/9 58/15/9 59/16/9
f 61/2/5 60/1/5 62/4/5 63/3/5
f 53/6/11 70/17/11 68/18/11 51/7/11
f 72/19/13 69/9/13 67/12/13 71/20/13
f 70/17/12 72/19/12 71/20/12 68/18/12
f 72/21/5 70/17/5 69/9/5
f 55/22/9 56/23/9 74/14/9 73/13/9
f 53/6/5 58/24/5 74/5/5
f 59/25/1 51/8/1 73/7/1
f 71/26/1 67/12/1 68/18/1
