# Blender v2.78 (sub 0) OBJ File: 'conveyor_elevator_int.blend'
# www.blender.org
mtllib conveyor_elevator_int.mtl
o CapBottom_cbmdl
v 0.050000 0.572500 0.616670
v 0.050000 0.512500 0.333331
v 0.050000 0.450000 0.333331
v 0.050000 0.512500 0.616670
v 0.950000 0.572500 0.616670
v 0.950000 0.512500 0.333331
v 0.950000 0.450000 0.333331
v 0.950000 0.512500 0.616670
vt 0.9648 0.9297
vt 0.9648 0.9297
vt 0.9648 0.9961
vt 0.9648 0.9961
vt 0.0000 0.0000
vt 0.0000 0.0000
vt 0.9648 0.9180
vt 0.9648 0.9180
vn 0.0000 0.0000 1.0000
vn 0.0000 -0.9765 0.2154
vn 0.0000 0.9783 -0.2072
usemtl Conveyor
s off
f 4/1/1 8/2/1 5/3/1 1/4/1
f 3/5/2 7/6/2 8/2/2 4/1/2
f 1/4/3 5/3/3 6/7/3 2/8/3
o CapTop_ctmdl
v 0.050000 0.687500 0.616670
v 0.050000 0.900000 0.359753
v 0.050000 0.962500 0.359753
v 0.050000 0.750000 0.616670
v 0.950000 0.687500 0.616670
v 0.950000 0.900000 0.359753
v 0.950000 0.962500 0.359753
v 0.950000 0.750000 0.616670
vt 0.9648 0.9297
vt 0.9648 0.9961
vt 0.9648 0.9961
vt 0.9648 0.9297
vt 0.0000 0.0000
vt 0.0000 0.0000
vt 0.9648 0.9180
vt 0.9648 0.9180
vn 0.0000 0.0000 1.0000
vn 0.0000 0.7706 0.6374
vn 0.0000 -0.7706 -0.6374
usemtl Conveyor
s off
f 12/9/4 9/10/4 13/11/4 16/12/4
f 11/13/5 12/9/5 16/12/5 15/14/5
f 9/10/6 10/15/6 14/16/6 13/11/6
o Attach_attachmdl
v 0.000004 0.510000 0.333331
v 0.120000 0.510000 -0.000000
v 0.120000 0.450000 -0.000000
v 0.000004 0.450000 0.333331
v 0.999996 0.510000 0.333331
v 0.500000 0.450000 0.333331
v 0.500000 0.450000 0.000000
v 0.880000 0.510000 -0.000000
v 0.500000 0.510000 0.000000
v 0.880000 0.450000 -0.000000
v 0.999996 0.450000 0.333331
v 0.500000 0.510000 0.333331
vt 0.9727 0.9336
vt 0.9727 0.9961
vt 0.9727 0.9961
vt 0.9727 0.9336
vt 0.9648 0.9961
vt 0.9648 0.9336
vt 0.9648 0.9336
vt 0.9648 0.9961
vt 0.9727 0.9336
vt 0.9727 0.9336
vt 0.9727 0.9961
vt 0.9727 0.9961
vn -0.9409 0.0000 -0.3387
vn 0.0000 0.0000 -1.0000
vn -0.0000 0.0000 1.0000
vn 0.0000 -1.0000 0.0000
vn 0.0000 1.0000 -0.0000
vn 0.9409 0.0000 -0.3387
usemtl Conveyor
s off
f 20/17/7 17/18/7 18/19/7 19/20/7
f 18/19/8 25/21/8 23/22/8 19/20/8
f 17/18/9 20/17/9 22/23/9 28/24/9
f 22/23/10 20/17/10 19/20/10 23/22/10
f 17/18/11 28/24/11 25/21/11 18/19/11
f 27/25/12 26/26/12 24/27/12 21/28/12
f 24/27/8 26/26/8 23/22/8 25/21/8
f 21/28/9 28/24/9 22/23/9 27/25/9
f 22/23/10 23/22/10 26/26/10 27/25/10
f 21/28/11 24/27/11 25/21/11 28/24/11
o Frame_fmdl
v 0.000004 0.000000 0.333331
v 0.050000 0.000000 0.333331
v 0.000004 1.000000 0.333331
v 0.050000 1.000000 0.333331
v 0.050000 0.000000 0.333331
v 0.050000 0.100000 0.333331
v 0.050000 0.100000 0.359753
v 0.050000 0.000000 0.359753
v 0.050000 0.900000 0.333331
v 0.050000 1.000000 0.333331
v 0.050000 1.000000 0.359753
v 0.050000 0.900000 0.359753
v 0.308335 0.000000 0.359753
v 0.358331 0.000000 0.359753
v 0.308335 1.000000 0.359753
v 0.358331 1.000000 0.359753
v 0.308335 0.000000 0.383330
v 0.308335 1.000000 0.383330
v 0.358331 1.000000 0.383330
v 0.358331 0.000000 0.383330
v 0.999996 0.000000 0.333331
v 0.950000 0.000000 0.333331
v 0.999996 1.000000 0.333331
v 0.950000 1.000000 0.333331
v 0.950000 0.000000 0.333331
v 0.950000 0.100000 0.333331
v 0.950000 0.100000 0.359753
v 0.950000 0.000000 0.359753
v 0.500000 0.000000 0.333331
v 0.500000 0.100000 0.333331
v 0.500000 0.100000 0.359753
v 0.500000 0.000000 0.359753
v 0.950000 0.900000 0.333331
v 0.950000 1.000000 0.333331
v 0.950000 1.000000 0.359753
v 0.950000 0.900000 0.359753
v 0.500000 0.900000 0.333331
v 0.500000 1.000000 0.333331
v 0.500000 1.000000 0.359753
v 0.500000 0.900000 0.359753
v 0.691665 0.000000 0.359753
v 0.641669 0.000000 0.359753
v 0.691665 1.000000 0.359753
v 0.641669 1.000000 0.359753
v 0.691665 0.000000 0.383330
v 0.691665 1.000000 0.383330
v 0.641669 1.000000 0.383330
v 0.641669 0.000000 0.383330
v 0.000004 0.000000 0.666669
v 0.050000 0.000000 0.666669
v 0.000004 1.000000 0.666669
v 0.050000 1.000000 0.666669
v 0.000004 0.000000 0.500000
v 0.000004 1.000000 0.500000
v 0.050000 1.000000 0.500000
v 0.050000 0.000000 0.500000
v 0.050000 0.000000 0.666669
v 0.050000 0.100000 0.666669
v 0.050000 0.100000 0.640247
v 0.050000 0.000000 0.640247
v 0.050000 0.900000 0.666669
v 0.050000 1.000000 0.666669
v 0.050000 1.000000 0.640247
v 0.050000 0.900000 0.640247
v 0.308335 0.000000 0.640247
v 0.358331 0.000000 0.640247
v 0.308335 1.000000 0.640247
v 0.358331 1.000000 0.640247
v 0.308335 0.000000 0.616670
v 0.308335 1.000000 0.616670
v 0.358331 1.000000 0.616670
v 0.358331 0.000000 0.616670
v 0.999996 0.000000 0.666669
v 0.950000 0.000000 0.666669
v 0.999996 1.000000 0.666669
v 0.950000 1.000000 0.666669
v 0.999996 0.000000 0.500000
v 0.999996 1.000000 0.500000
v 0.950000 1.000000 0.500000
v 0.950000 0.000000 0.500000
v 0.950000 0.000000 0.666669
v 0.950000 0.100000 0.666669
v 0.950000 0.100000 0.640247
v 0.950000 0.000000 0.640247
v 0.500000 0.000000 0.666669
v 0.500000 0.100000 0.666669
v 0.500000 0.100000 0.640247
v 0.500000 0.000000 0.640247
v 0.950000 0.900000 0.666669
v 0.950000 1.000000 0.666669
v 0.950000 1.000000 0.640247
v 0.950000 0.900000 0.640247
v 0.500000 0.900000 0.666669
v 0.500000 1.000000 0.666669
v 0.500000 1.000000 0.640247
v 0.500000 0.900000 0.640247
v 0.691665 0.000000 0.640247
v 0.641669 0.000000 0.640247
v 0.691665 1.000000 0.640247
v 0.641669 1.000000 0.640247
v 0.691665 0.000000 0.616670
v 0.691665 1.000000 0.616670
v 0.641669 1.000000 0.616670
v 0.641669 0.000000 0.616670
vt 0.0000 0.0000
vt 0.9648 0.9297
vt 0.9648 0.9961
vt 0.9648 0.9180
vt 0.9961 0.9297
vt 0.9648 0.9297
vt 0.9648 0.9180
vt 0.9961 0.9180
vt 0.9648 0.9297
vt 0.9961 0.9297
vt 0.9961 0.9180
vt 0.9648 0.9180
vt 0.9727 0.9961
vt 0.9648 0.9961
vt 0.9648 0.9336
vt 0.9727 0.9336
vt 0.9648 0.9297
vt 0.9648 0.9961
vt 0.9648 0.9961
vt 0.9648 0.9297
vt 0.0000 0.0000
vt 0.0000 0.0000
vt 0.0000 0.0000
vt 0.9648 0.9297
vt 0.9648 0.9297
vt 0.0000 0.0000
vt 0.9648 0.9961
vt 0.9648 0.9961
vt 0.9648 0.9180
vt 0.9648 0.9180
vt 0.9648 0.9180
vt 0.9648 0.9180
vt 0.0000 0.0000
vt 0.9648 0.9297
vt 0.9648 0.9961
vt 0.9648 0.9180
vt 0.9961 0.9297
vt 0.9648 0.9297
vt 0.9648 0.9180
vt 0.9961 0.9180
vt 0.9648 0.9297
vt 0.9961 0.9297
vt 0.9961 0.9180
vt 0.9648 0.9180
vt 0.9727 0.9961
vt 0.9648 0.9961
vt 0.9648 0.9336
vt 0.9727 0.9336
vt 0.9180 0.9336
vt 0.9180 0.9961
vt 0.9297 0.9961
vt 0.9297 0.9336
vt 0.0000 0.0000
vt 0.9648 0.9180
vt 0.9648 0.9961
vt 0.9648 0.9297
vt 0.9961 0.9297
vt 0.9961 0.9180
vt 0.9648 0.9180
vt 0.9648 0.9297
vt 0.9648 0.9297
vt 0.9648 0.9180
vt 0.9961 0.9180
vt 0.9961 0.9297
vt 0.9727 0.9961
vt 0.9727 0.9336
vt 0.9648 0.9336
vt 0.9648 0.9961
vt 0.9648 0.9297
vt 0.9648 0.9961
vt 0.0000 0.0000
vt 0.0000 0.0000
vt 0.9648 0.9297
vt 0.9648 0.9961
vt 0.9648 0.9180
vt 0.9648 0.9180
vt 0.0000 0.0000
vt 0.9648 0.9180
vt 0.9648 0.9961
vt 0.9648 0.9297
vt 0.9961 0.9297
vt 0.9961 0.9180
vt 0.9648 0.9180
vt 0.9648 0.9297
vt 0.9648 0.9297
vt 0.9648 0.9180
vt 0.9961 0.9180
vt 0.9961 0.9297
vt 0.9727 0.9961
vt 0.9727 0.9336
vt 0.9648 0.9336
vt 0.9648 0.9961
vt 0.9180 0.9336
vt 0.9297 0.9336
vt 0.9297 0.9961
vt 0.9180 0.9961
vt 0.9648 0.9180
vt 0.9648 0.9961
vt 0.9961 0.9297
vt 0.9648 0.9297
vt 0.9648 0.9297
vt 0.9961 0.9297
vt 0.9727 0.9961
vt 0.9727 0.9336
vt 0.9648 0.9336
vt 0.9648 0.9961
vt 0.9648 0.9297
vt 0.9648 0.9297
vt 0.9648 0.9961
vt 0.9648 0.9961
vt 0.0000 0.0000
vt 0.0000 0.0000
vt 0.0000 0.0000
vt 0.0000 0.0000
vt 0.9648 0.9297
vt 0.9648 0.9297
vt 0.9648 0.9961
vt 0.9648 0.9961
vt 0.9648 0.9180
vt 0.9648 0.9180
vt 0.9648 0.9180
vt 0.9648 0.9180
vt 0.0000 0.0000
vt 0.9648 0.9180
vt 0.9648 0.9961
vt 0.9648 0.9297
vt 0.9961 0.9297
vt 0.9961 0.9180
vt 0.9648 0.9180
vt 0.9648 0.9297
vt 0.9648 0.9297
vt 0.9648 0.9180
vt 0.9961 0.9180
vt 0.9961 0.9297
vt 0.9727 0.9961
vt 0.9727 0.9336
vt 0.9648 0.9336
vt 0.9648 0.9961
vt 0.9180 0.9336
vt 0.9297 0.9336
vt 0.9297 0.9961
vt 0.9180 0.9961
vt 0.9648 0.9961
vt 0.9648 0.9180
vt 0.9961 0.9297
vt 0.9648 0.9297
vt 0.9648 0.9297
vt 0.9961 0.9297
vt 0.9727 0.9961
vt 0.9648 0.9961
vt 0.9648 0.9336
vt 0.9727 0.9336
vt 0.9648 0.9297
vt 0.9648 0.9961
vt 0.0000 0.0000
vt 0.0000 0.0000
vt 0.9648 0.9297
vt 0.9648 0.9961
vt 0.9648 0.9180
vt 0.9648 0.9180
vt 0.0000 0.0000
vt 0.9648 0.9297
vt 0.9648 0.9961
vt 0.9648 0.9180
vt 0.9961 0.9297
vt 0.9648 0.9297
vt 0.9648 0.9180
vt 0.9961 0.9180
vt 0.9648 0.9297
vt 0.9961 0.9297
vt 0.9961 0.9180
vt 0.9648 0.9180
vt 0.9727 0.9961
vt 0.9648 0.9961
vt 0.9648 0.9336
vt 0.9727 0.9336
vt 0.9180 0.9336
vt 0.9180 0.9961
vt 0.9297 0.9961
vt 0.9297 0.9336
vn 1.0000 0.0000 0.0000
vn 0.0000 -1.0000 0.0000
vn -0.0000 1.0000 0.0000
vn 0.0000 0.0000 -1.0000
vn 0.0000 0.0000 1.0000
vn -1.0000 0.0000 -0.0000
usemtl Conveyor
s off
f 83/29/13 84/30/13 30/31/13 32/32/13
f 29/33/14 30/34/14 84/35/14 81/36/14
f 32/37/15 31/38/15 82/39/15 83/40/15
f 31/41/16 32/42/16 30/43/16 29/44/16
f 40/45/14 37/46/14 65/47/14 68/48/14
f 39/49/17 40/45/17 68/48/17 67/50/17
f 35/51/17 36/52/17 60/53/17 59/54/17
f 36/52/14 33/55/14 57/56/14 60/53/14
f 33/55/16 34/57/16 58/58/16 57/56/16
f 34/57/15 35/51/15 59/54/15 58/58/15
f 37/46/16 38/59/16 66/60/16 65/47/16
f 38/59/15 39/49/15 67/50/15 66/60/15
f 47/61/13 48/62/13 42/63/13 44/64/13
f 41/65/14 42/66/14 48/67/14 45/68/14
f 44/69/15 43/70/15 46/71/15 47/72/15
f 43/73/16 44/74/16 42/75/16 41/76/16
f 45/77/18 46/78/18 43/79/18 41/80/18
f 47/61/17 46/71/17 45/77/17 48/67/17
f 29/33/18 81/36/18 82/39/18 31/38/18
f 107/81/18 52/82/18 50/83/18 108/84/18
f 49/85/14 105/86/14 108/87/14 50/88/14
f 52/89/15 107/90/15 106/91/15 51/92/15
f 51/93/16 49/94/16 50/95/16 52/96/16
f 64/97/14 68/48/14 65/47/14 61/98/14
f 63/99/17 67/50/17 68/48/17 64/97/17
f 55/100/17 59/54/17 60/53/17 56/101/17
f 56/101/14 60/53/14 57/56/14 53/102/14
f 53/102/16 57/56/16 58/58/16 54/103/16
f 54/103/15 58/58/15 59/54/15 55/100/15
f 61/98/16 65/47/16 66/60/16 62/104/16
f 62/104/15 66/60/15 67/50/15 63/99/15
f 75/105/18 72/106/18 70/107/18 76/108/18
f 69/109/14 73/110/14 76/111/14 70/112/14
f 72/113/15 75/114/15 74/115/15 71/116/15
f 71/117/16 69/118/16 70/119/16 72/120/16
f 73/121/13 69/122/13 71/123/13 74/124/13
f 75/105/17 76/111/17 73/121/17 74/115/17
f 49/85/13 51/92/13 106/91/13 105/86/13
f 83/29/13 80/125/13 78/126/13 84/30/13
f 77/127/14 81/36/14 84/35/14 78/128/14
f 80/129/15 83/40/15 82/39/15 79/130/15
f 79/131/17 77/132/17 78/133/17 80/134/17
f 92/135/14 124/136/14 121/137/14 89/138/14
f 91/139/16 123/140/16 124/136/16 92/135/16
f 87/141/16 115/142/16 116/143/16 88/144/16
f 88/144/14 116/143/14 113/145/14 85/146/14
f 85/146/17 113/145/17 114/147/17 86/148/17
f 86/148/15 114/147/15 115/142/15 87/141/15
f 89/138/17 121/137/17 122/149/17 90/150/17
f 90/150/15 122/149/15 123/140/15 91/139/15
f 99/151/13 96/152/13 94/153/13 100/154/13
f 93/155/14 97/156/14 100/157/14 94/158/14
f 96/159/15 99/160/15 98/161/15 95/162/15
f 95/163/17 93/164/17 94/165/17 96/166/17
f 97/167/18 93/168/18 95/169/18 98/170/18
f 99/151/16 100/157/16 97/167/16 98/161/16
f 77/127/18 79/130/18 82/39/18 81/36/18
f 107/81/18 108/84/18 102/171/18 104/172/18
f 101/173/14 102/174/14 108/87/14 105/86/14
f 104/175/15 103/176/15 106/91/15 107/90/15
f 103/177/17 104/178/17 102/179/17 101/180/17
f 120/181/14 117/182/14 121/137/14 124/136/14
f 119/183/16 120/181/16 124/136/16 123/140/16
f 111/184/16 112/185/16 116/143/16 115/142/16
f 112/185/14 109/186/14 113/145/14 116/143/14
f 109/186/17 110/187/17 114/147/17 113/145/17
f 110/187/15 111/184/15 115/142/15 114/147/15
f 117/182/17 118/188/17 122/149/17 121/137/17
f 118/188/15 119/183/15 123/140/15 122/149/15
f 131/189/18 132/190/18 126/191/18 128/192/18
f 125/193/14 126/194/14 132/195/14 129/196/14
f 128/197/15 127/198/15 130/199/15 131/200/15
f 127/201/17 128/202/17 126/203/17 125/204/17
f 129/205/13 130/206/13 127/207/13 125/208/13
f 131/189/16 130/199/16 129/205/16 132/195/16
f 101/173/13 105/86/13 106/91/13 103/176/13
