# Blender v2.74 (sub 0) OBJ File: 'conveyor_sieve.blend'
# www.blender.org
mtllib conveyor_sieve.mtl
o SieveChute_cscmdl
v 1.000000 0.570000 0.850000
v 1.000000 0.570000 0.150000
v 1.000000 0.450000 0.850000
v 1.000000 0.450000 0.150000
v 0.849999 0.000000 0.849999
v 1.000000 0.450000 1.000000
v 1.000000 0.400000 1.000000
v 0.849999 0.200000 0.849999
v 0.849999 0.400000 0.849999
v 0.849999 0.450000 0.849999
v 0.729040 0.325523 0.729040
v 1.000000 0.450000 1.000000
v 0.849999 0.450000 0.849999
v 0.849999 0.570000 0.849999
v 1.000000 0.570000 1.000000
v 0.850000 0.570000 1.000000
v 0.150000 0.570000 1.000000
v 0.850000 0.450000 1.000000
v 0.150000 0.450000 1.000000
v 0.849999 0.000000 0.150001
v 1.000000 0.450000 -0.000000
v 1.000000 0.400000 -0.000000
v 0.849999 0.200000 0.150001
v 0.849999 0.400000 0.150001
v 0.849999 0.450000 0.150001
v 0.729040 0.325523 0.270960
v 1.000000 0.450000 -0.000000
v 0.849999 0.450000 0.150001
v 1.000000 0.570000 -0.000000
v 0.849999 0.570000 0.150001
v 0.150000 0.570000 0.000000
v 0.850000 0.570000 0.000000
v 0.150000 0.450000 0.000000
v 0.850000 0.450000 0.000000
v 0.500000 0.000000 0.500000
v 0.150001 0.000000 0.849999
v 0.150001 0.000000 0.150001
v 0.000000 0.450000 1.000000
v 0.000000 0.450000 0.000000
v 0.000000 0.400000 1.000000
v 0.000000 0.400000 0.000000
v 0.150001 0.200000 0.849999
v 0.150001 0.200000 0.150001
v 0.150001 0.400000 0.849999
v 0.150001 0.400000 0.150001
v 0.150001 0.450000 0.849999
v 0.150001 0.450000 0.150001
v 0.270960 0.325523 0.270960
v 0.270960 0.325523 0.729040
v 0.500000 0.325523 0.500000
v 0.000000 0.450000 1.000000
v 0.000000 0.450000 0.000000
v 0.150001 0.450000 0.849999
v 0.150001 0.450000 0.150001
v 0.150001 0.570000 0.150001
v 0.000000 0.570000 0.000000
v 0.000000 0.570000 1.000000
v 0.150001 0.570000 0.849999
v 0.000000 0.570000 0.150000
v 0.000000 0.570000 0.850000
v 0.000000 0.450000 0.150000
v 0.000000 0.450000 0.850000
vt 0.816406 0.699219
vt 0.816406 0.628906
vt 0.835938 0.628906
vt 0.835938 0.699219
vt 0.851562 0.664062
vt 0.875000 0.687500
vt 0.875000 0.640625
vt 0.761719 0.714844
vt 0.761719 0.613281
vt 0.921875 0.613281
vt 0.921875 0.714844
vt 0.910156 0.707031
vt 0.910156 0.625000
vt 0.750000 0.714844
vt 0.750000 0.613281
vt 0.902344 0.707031
vt 0.902344 0.625000
vt 0.156250 0.718750
vt 0.218750 0.718750
vt 0.218750 0.773438
vt 0.156250 0.773438
vt 0.218750 0.746094
vt 0.156250 0.746094
vt 0.187500 0.718750
vn 1.000000 0.000000 0.000000
vn 0.000000 -1.000000 0.000000
vn 0.000000 1.000000 0.000000
vn 0.800000 -0.600000 0.000000
vn -1.000000 0.000000 0.000000
vn -0.524300 0.851500 0.000000
vn 0.000000 0.000000 1.000000
vn 0.000000 0.000000 -1.000000
vn -0.000000 -0.600000 0.800000
vn 0.000000 0.851500 -0.524300
vn -0.000000 -0.600000 -0.800000
vn 0.000000 0.851500 0.524300
vn -0.800000 -0.600000 0.000000
vn 0.524300 0.851500 0.000000
usemtl Conveyor
s off
f 23/1/1 8/2/1 5/3/1 20/4/1
f 35/5/2 20/4/2 5/3/2
f 26/6/3 50/5/3 11/7/3
f 22/8/4 7/9/4 8/2/4 23/1/4
f 6/10/3 21/11/3 25/12/3 10/13/3
f 21/14/1 6/15/1 7/9/1 22/8/1
f 10/13/5 25/12/5 24/16/5 9/17/5
f 9/17/6 24/16/6 26/6/6 11/7/6
f 27/18/1 29/19/1 2/20/1 4/21/1
f 2/20/7 30/19/7 28/18/7 4/21/7
f 29/22/3 30/23/3 2/24/3
f 14/18/8 1/21/8 3/20/8 13/19/8
f 15/18/1 12/19/1 3/20/1 1/21/1
f 14/22/3 15/23/3 1/24/3
f 42/1/7 36/4/7 5/3/7 8/2/7
f 35/5/2 5/3/2 36/4/2
f 49/6/3 11/7/3 50/5/3
f 40/8/9 42/1/9 8/2/9 7/9/9
f 6/10/3 10/13/3 46/12/3 38/11/3
f 38/14/7 40/8/7 7/9/7 6/15/7
f 10/13/8 9/17/8 44/16/8 46/12/8
f 9/17/10 11/7/10 49/6/10 44/16/10
f 51/18/7 19/21/7 17/20/7 57/19/7
f 17/20/1 19/21/1 53/18/1 58/19/1
f 57/22/3 17/24/3 58/23/3
f 14/18/5 13/19/5 18/20/5 16/21/5
f 15/18/7 16/21/7 18/20/7 12/19/7
f 14/22/3 16/24/3 15/23/3
f 23/1/8 20/4/8 37/3/8 43/2/8
f 35/5/2 37/3/2 20/4/2
f 26/6/3 48/7/3 50/5/3
f 22/8/11 23/1/11 43/2/11 41/9/11
f 39/10/3 47/13/3 25/12/3 21/11/3
f 21/14/8 22/8/8 41/9/8 39/15/8
f 47/13/7 45/17/7 24/16/7 25/12/7
f 45/17/12 48/7/12 26/6/12 24/16/12
f 27/18/8 34/21/8 32/20/8 29/19/8
f 32/20/5 34/21/5 28/18/5 30/19/5
f 29/22/3 32/24/3 30/23/3
f 55/18/1 54/19/1 33/20/1 31/21/1
f 56/18/8 31/21/8 33/20/8 52/19/8
f 55/22/3 31/24/3 56/23/3
f 42/1/5 43/2/5 37/3/5 36/4/5
f 35/5/2 36/4/2 37/3/2
f 49/6/3 50/5/3 48/7/3
f 40/8/13 41/9/13 43/2/13 42/1/13
f 39/10/3 38/11/3 46/12/3 47/13/3
f 38/14/5 39/15/5 41/9/5 40/8/5
f 47/13/1 46/12/1 44/16/1 45/17/1
f 45/17/14 44/16/14 49/6/14 48/7/14
f 51/18/5 57/19/5 60/20/5 62/21/5
f 60/20/8 58/19/8 53/18/8 62/21/8
f 57/22/3 58/23/3 60/24/3
f 55/18/7 59/21/7 61/20/7 54/19/7
f 56/18/5 52/19/5 61/20/5 59/21/5
f 55/22/3 56/23/3 59/24/3
o Sieve_csvmdl
v 0.937500 0.490000 0.062500
v 0.937500 0.520000 0.062500
v 0.062500 0.490000 0.062500
v 0.500000 0.490000 0.062500
v 0.062500 0.520000 0.062500
v 0.500000 0.520000 0.062500
v 0.937500 0.450000 0.937500
v 0.937500 0.470000 0.500000
v 0.937500 0.500000 0.500000
v 0.937500 0.480000 0.937500
v 0.062500 0.450000 0.937500
v 0.062500 0.470000 0.500000
v 0.500000 0.450000 0.937500
v 0.500000 0.470000 0.500000
v 0.500000 0.500000 0.500000
v 0.062500 0.500000 0.500000
v 0.062500 0.480000 0.937500
v 0.500000 0.480000 0.937500
vt -0.000000 0.359375
vt 0.058594 0.359375
vt 0.058594 0.417969
vt -0.000000 0.417969
vt 0.003906 0.355469
vt 0.003906 0.417969
vt -0.000000 0.355469
vt -0.000000 0.414062
vt 0.062500 0.414062
vt 0.062500 0.417969
vn 0.000000 -0.999000 -0.045700
vn 0.000000 0.000000 -1.000000
vn 0.000000 0.999000 0.045700
vn 1.000000 0.000000 0.000000
vn -1.000000 0.000000 0.000000
vn 0.000000 0.000000 1.000000
usemtl Conveyor
s off
f 70/25/15 76/26/15 66/27/15 63/28/15
f 63/29/16 66/30/16 68/28/16 64/31/16
f 71/25/17 64/28/17 68/27/17 77/26/17
f 70/32/18 63/33/18 64/34/18 71/28/18
f 74/25/15 65/28/15 66/27/15 76/26/15
f 65/29/16 67/31/16 68/28/16 66/30/16
f 78/25/17 77/26/17 68/27/17 67/28/17
f 74/32/19 78/28/19 67/34/19 65/33/19
f 70/25/15 69/28/15 75/27/15 76/26/15
f 69/29/20 72/31/20 80/28/20 75/30/20
f 71/25/17 77/26/17 80/27/17 72/28/17
f 70/32/18 71/28/18 72/34/18 69/33/18
f 74/25/15 76/26/15 75/27/15 73/28/15
f 73/29/20 75/30/20 80/28/20 79/31/20
f 78/25/17 79/28/17 80/27/17 77/26/17
f 74/32/19 73/33/19 79/34/19 78/28/19
o Support_Alu_smdl_alu
v 0.150003 0.100000 1.000000
v 0.119692 0.100000 1.000000
v 0.150003 -0.000000 1.000000
v 0.119692 -0.000000 1.000000
v 0.100003 0.050000 1.000000
v 0.103872 0.075000 1.000000
v 0.103872 0.025000 1.000000
v 0.150003 0.100000 0.875000
v 0.119692 0.100000 0.875000
v 0.150003 0.350000 0.625000
v 0.150003 0.100000 1.000000
v 0.119692 0.100000 1.000000
v 0.119692 0.350000 0.625000
v 0.150000 0.018000 0.832000
v 0.150000 0.018000 0.768000
v 0.150000 0.082000 0.832000
v 0.150000 0.082000 0.768000
v 0.150000 0.018000 0.532000
v 0.150000 0.082000 0.532000
v 0.119692 0.050000 1.000000
v 0.850001 0.100000 1.000000
v 0.880313 0.100000 1.000000
v 0.850001 -0.000000 1.000000
v 0.880313 -0.000000 1.000000
v 0.900001 0.050000 1.000000
v 0.896132 0.075000 1.000000
v 0.896132 0.025000 1.000000
v 0.849997 0.100000 1.000000
v 0.880308 0.100000 1.000000
v 0.849997 -0.000000 1.000000
v 0.880308 -0.000000 1.000000
v 0.899997 0.050000 1.000000
v 0.896128 0.075000 1.000000
v 0.896128 0.025000 1.000000
v 0.849997 0.100000 0.875000
v 0.880308 0.100000 0.875000
v 0.849997 0.350000 0.625000
v 0.849997 0.100000 1.000000
v 0.880308 0.100000 1.000000
v 0.880308 0.350000 0.625000
v 0.850000 0.018000 0.832000
v 0.850000 0.018000 0.768000
v 0.500000 0.018000 0.768000
v 0.500000 0.018000 0.832000
v 0.850000 0.082000 0.832000
v 0.850000 0.082000 0.768000
v 0.500000 0.082000 0.768000
v 0.500000 0.082000 0.832000
v 0.850000 0.018000 0.532000
v 0.500000 0.018000 0.532000
v 0.850000 0.082000 0.532000
v 0.500000 0.082000 0.532000
v 0.880308 0.050000 1.000000
v 0.149999 0.100000 1.000000
v 0.119687 0.100000 1.000000
v 0.149999 -0.000000 1.000000
v 0.119687 -0.000000 1.000000
v 0.099999 0.050000 1.000000
v 0.103868 0.075000 1.000000
v 0.103868 0.025000 1.000000
v 0.150003 0.100000 0.000000
v 0.150003 0.100000 0.500000
v 0.119692 0.100000 0.500000
v 0.119692 0.100000 0.000000
v 0.150003 -0.000000 0.000000
v 0.150003 -0.000000 0.500000
v 0.119692 -0.000000 0.500000
v 0.119692 -0.000000 0.000000
v 0.100003 0.050000 0.500000
v 0.100003 0.050000 0.000000
v 0.103872 0.075000 0.500000
v 0.103872 0.075000 0.000000
v 0.103872 0.025000 0.500000
v 0.103872 0.025000 0.000000
v 0.150003 0.350000 0.500000
v 0.150003 0.100000 0.125000
v 0.119692 0.100000 0.125000
v 0.119692 0.350000 0.500000
v 0.150003 0.350000 0.375000
v 0.150003 0.100000 0.000000
v 0.119692 0.100000 0.000000
v 0.119692 0.350000 0.375000
v 0.150000 0.018000 0.168000
v 0.150000 0.018000 0.232000
v 0.150000 0.082000 0.168000
v 0.150000 0.082000 0.232000
v 0.150000 0.018000 0.468000
v 0.150000 0.018000 0.500000
v 0.150000 0.082000 0.468000
v 0.150000 0.082000 0.500000
v 0.119692 0.050000 0.000000
v 0.850001 0.100000 0.000000
v 0.880313 0.100000 0.000000
v 0.850001 -0.000000 0.000000
v 0.880313 -0.000000 0.000000
v 0.900001 0.050000 0.000000
v 0.896132 0.075000 0.000000
v 0.896132 0.025000 0.000000
v 0.849997 0.100000 0.000000
v 0.849997 0.100000 0.500000
v 0.880308 0.100000 0.500000
v 0.880308 0.100000 0.000000
v 0.849997 -0.000000 0.000000
v 0.849997 -0.000000 0.500000
v 0.880308 -0.000000 0.500000
v 0.880308 -0.000000 0.000000
v 0.899997 0.050000 0.500000
v 0.899997 0.050000 0.000000
v 0.896128 0.075000 0.500000
v 0.896128 0.075000 0.000000
v 0.896128 0.025000 0.500000
v 0.896128 0.025000 0.000000
v 0.849997 0.350000 0.500000
v 0.849997 0.100000 0.125000
v 0.880308 0.100000 0.125000
v 0.880308 0.350000 0.500000
v 0.849997 0.350000 0.375000
v 0.849997 0.100000 0.000000
v 0.880308 0.100000 0.000000
v 0.880308 0.350000 0.375000
v 0.850000 0.018000 0.168000
v 0.850000 0.018000 0.232000
v 0.500000 0.018000 0.232000
v 0.500000 0.018000 0.168000
v 0.850000 0.082000 0.168000
v 0.850000 0.082000 0.232000
v 0.500000 0.082000 0.232000
v 0.500000 0.082000 0.168000
v 0.850000 0.018000 0.468000
v 0.850000 0.018000 0.500000
v 0.500000 0.018000 0.500000
v 0.500000 0.018000 0.468000
v 0.850000 0.082000 0.468000
v 0.850000 0.082000 0.500000
v 0.500000 0.082000 0.500000
v 0.500000 0.082000 0.468000
v 0.880308 0.050000 0.000000
v 0.149999 0.100000 0.000000
v 0.119687 0.100000 0.000000
v 0.149999 -0.000000 0.000000
v 0.119687 -0.000000 0.000000
v 0.099999 0.050000 0.000000
v 0.103868 0.075000 0.000000
v 0.103868 0.025000 0.000000
vt 0.214844 0.753906
vt 0.160156 0.753906
vt 0.160156 0.761719
vt 0.214844 0.761719
vt 0.160156 0.722656
vt 0.214844 0.722656
vt 0.214844 0.769531
vt 0.160156 0.769531
vt 0.160156 0.730469
vt 0.214844 0.730469
vt 0.214844 0.738281
vt 0.160156 0.738281
vt 0.160156 0.746094
vt 0.214844 0.746094
vt 0.191406 0.722656
vt 0.183594 0.769531
vt 0.183594 0.722656
vt 0.191406 0.769531
vt 0.160156 0.742188
vt 0.214844 0.742188
vt 0.214844 0.750000
vt 0.160156 0.750000
vt 0.179688 0.765625
vt 0.179688 0.746094
vt 0.195312 0.765625
vt 0.171875 0.753906
vt 0.171875 0.746094
vt 0.179688 0.726562
vt 0.171875 0.738281
vt 0.195312 0.726562
vn -0.845000 0.534700 0.000000
vn 1.000000 0.000000 0.000000
vn 0.000000 1.000000 0.000000
vn 0.000000 -1.000000 0.000000
vn -0.988200 -0.152900 0.000000
vn -0.988200 0.152900 0.000000
vn -0.845000 -0.534700 0.000000
vn 0.000000 -0.832100 -0.554700
vn 0.000000 0.832100 0.554700
vn -1.000000 0.000000 0.000000
vn 0.000000 0.000000 1.000000
vn 0.000000 0.000000 -1.000000
vn 0.845000 0.534700 0.000000
vn 0.988200 -0.152900 0.000000
vn 0.988200 0.152900 0.000000
vn 0.845000 -0.534700 0.000000
vn 0.000000 -0.832100 0.554700
vn 0.000000 0.832100 -0.554700
usemtl Conveyor
s off
f 151/35/21 86/36/21 82/37/21 143/38/21
f 83/39/22 146/40/22 142/41/22 81/42/22
f 81/42/23 142/41/23 143/38/23 82/37/23
f 84/43/24 147/44/24 146/40/24 83/39/24
f 153/45/25 87/46/25 85/47/25 149/48/25
f 149/48/26 85/47/26 86/36/26 151/35/26
f 147/44/27 84/43/27 87/46/27 153/45/27
f 90/49/22 91/39/22 88/50/22 155/41/22
f 155/41/28 88/50/28 89/51/28 158/40/28
f 93/52/29 92/42/29 91/39/29 90/49/29
f 92/42/30 93/52/30 158/40/30 89/51/30
f 128/41/31 96/42/31 94/39/31 124/40/31
f 97/39/32 127/40/32 123/41/32 95/42/32
f 94/39/24 95/42/24 123/41/24 124/40/24
f 128/41/23 127/40/23 97/39/23 96/42/23
f 132/41/31 99/42/31 98/39/31 130/40/31
f 98/39/24 168/53/24 211/54/24 130/40/24
f 132/41/23 215/55/23 170/56/23 99/42/23
f 82/57/31 100/58/31 81/59/31
f 82/57/31 86/60/31 85/61/31 100/58/31
f 84/62/31 100/58/31 85/61/31 87/63/31
f 83/64/31 100/58/31 84/62/31
f 83/64/31 81/59/31 100/58/31
f 189/35/33 181/38/33 109/37/33 113/36/33
f 110/39/30 108/42/30 180/41/30 184/40/30
f 108/42/23 109/37/23 181/38/23 180/41/23
f 111/43/24 110/39/24 184/40/24 185/44/24
f 191/45/34 187/48/34 112/47/34 114/46/34
f 187/48/35 189/35/35 113/36/35 112/47/35
f 185/44/36 191/45/36 114/46/36 111/43/36
f 117/49/30 193/41/30 115/50/30 118/39/30
f 193/41/28 196/40/28 116/51/28 115/50/28
f 120/52/29 117/49/29 118/39/29 119/42/29
f 119/42/22 116/51/22 196/40/22 120/52/22
f 128/41/31 124/40/31 121/39/31 125/42/31
f 126/39/32 122/42/32 123/41/32 127/40/32
f 121/39/24 124/40/24 123/41/24 122/42/24
f 128/41/23 125/42/23 126/39/23 127/40/23
f 132/41/31 130/40/31 129/39/31 131/42/31
f 129/39/24 130/40/24 211/54/24 210/53/24
f 132/41/23 131/42/23 214/56/23 215/55/23
f 109/57/31 108/59/31 133/58/31
f 109/57/31 133/58/31 112/61/31 113/60/31
f 111/62/31 114/63/31 112/61/31 133/58/31
f 110/64/31 111/62/31 133/58/31
f 110/64/31 133/58/31 108/59/31
f 151/35/21 143/38/21 144/37/21 152/36/21
f 145/39/22 141/42/22 142/41/22 146/40/22
f 141/42/23 144/37/23 143/38/23 142/41/23
f 148/43/24 145/39/24 146/40/24 147/44/24
f 153/45/25 149/48/25 150/47/25 154/46/25
f 149/48/26 151/35/26 152/36/26 150/47/26
f 147/44/27 153/45/27 154/46/27 148/43/27
f 159/49/22 155/41/22 156/50/22 160/39/22
f 155/41/37 158/40/37 157/51/37 156/50/37
f 162/52/38 159/49/38 160/39/38 161/42/38
f 161/42/30 157/51/30 158/40/30 162/52/30
f 208/41/32 204/40/32 163/39/32 165/42/32
f 166/39/31 164/42/31 203/41/31 207/40/31
f 163/39/24 204/40/24 203/41/24 164/42/24
f 208/41/23 165/42/23 166/39/23 207/40/23
f 216/41/32 212/40/32 167/39/32 169/42/32
f 167/39/24 212/40/24 211/54/24 168/53/24
f 216/41/23 169/42/23 170/56/23 215/55/23
f 144/57/32 141/59/32 171/58/32
f 144/57/32 171/58/32 150/61/32 152/60/32
f 148/62/32 154/63/32 150/61/32 171/58/32
f 145/64/32 148/62/32 171/58/32
f 145/64/32 171/58/32 141/59/32
f 189/35/33 190/36/33 182/37/33 181/38/33
f 183/39/30 184/40/30 180/41/30 179/42/30
f 179/42/23 180/41/23 181/38/23 182/37/23
f 186/43/24 185/44/24 184/40/24 183/39/24
f 191/45/34 192/46/34 188/47/34 187/48/34
f 187/48/35 188/47/35 190/36/35 189/35/35
f 185/44/36 186/43/36 192/46/36 191/45/36
f 197/49/30 198/39/30 194/50/30 193/41/30
f 193/41/37 194/50/37 195/51/37 196/40/37
f 200/52/38 199/42/38 198/39/38 197/49/38
f 199/42/22 200/52/22 196/40/22 195/51/22
f 208/41/32 205/42/32 201/39/32 204/40/32
f 206/39/31 207/40/31 203/41/31 202/42/31
f 201/39/24 202/42/24 203/41/24 204/40/24
f 208/41/23 207/40/23 206/39/23 205/42/23
f 216/41/32 213/42/32 209/39/32 212/40/32
f 209/39/24 210/53/24 211/54/24 212/40/24
f 216/41/23 215/55/23 214/56/23 213/42/23
f 182/57/32 217/58/32 179/59/32
f 182/57/32 190/60/32 188/61/32 217/58/32
f 186/62/32 217/58/32 188/61/32 192/63/32
f 183/64/32 217/58/32 186/62/32
f 183/64/32 179/59/32 217/58/32
