# Blender v2.74 (sub 0) OBJ File: 'conveyor_processors.blend'
# www.blender.org
mtllib conveyor_processor_shredder.mtl
o ProcessorMarker_Shredder_pmmdl_shr
v 0.590000 0.357245 0.729822
v 0.410000 0.357245 0.729822
v 0.410000 0.412869 0.901016
v 0.590000 0.412869 0.901016
v 0.410000 0.338223 0.736002
v 0.590000 0.338223 0.736002
v 0.410000 0.393848 0.907197
v 0.590000 0.393848 0.907197
v 0.590000 0.357245 0.270178
v 0.410000 0.357245 0.270178
v 0.410000 0.412869 0.098983
v 0.590000 0.412869 0.098983
v 0.410000 0.338223 0.263998
v 0.590000 0.338223 0.263998
v 0.410000 0.393848 0.092803
v 0.590000 0.393848 0.092803
vt 0.347656 0.718750
vt 0.402344 0.718750
vt 0.402344 0.773438
vt 0.347656 0.773438
vt 0.160156 0.753906
vt 0.160156 0.738281
vt 0.214844 0.738281
vt 0.214844 0.753906
vt 0.214844 0.722656
vt 0.160156 0.722656
vn 0.000000 0.951100 -0.309000
vn 1.000000 0.000000 0.000000
vn 0.000000 0.309000 0.951100
vn -1.000000 -0.000000 0.000000
vn 0.000000 -0.309000 -0.951100
vn 0.000000 0.951100 0.309000
vn 0.000000 0.309000 -0.951100
vn 0.000000 -0.309000 0.951100
usemtl Conveyor
s off
f 1/1/1 2/2/1 3/3/1 4/4/1
f 4/5/2 8/6/2 6/7/2 1/8/2
f 3/5/3 7/6/3 8/7/3 4/8/3
f 2/9/4 5/7/4 7/6/4 3/10/4
f 1/5/5 6/6/5 5/7/5 2/8/5
f 9/1/6 12/4/6 11/3/6 10/2/6
f 12/5/2 9/8/2 14/7/2 16/6/2
f 11/5/7 12/8/7 16/7/7 15/6/7
f 10/9/4 11/10/4 15/6/4 13/7/4
f 9/5/8 10/8/8 13/7/8 14/6/8
o ProcessorChute_chutemdl
v 0.150003 0.000000 0.850000
v 0.150003 0.000000 0.150000
v 0.849997 0.000000 0.150000
v 0.849997 0.000000 0.850000
v 0.000000 0.500000 1.000000
v 0.000000 0.500000 -0.000000
v 1.000000 0.500000 -0.000000
v 1.000000 0.500000 1.000000
v 0.000000 0.400000 -0.000000
v 0.000000 0.400000 1.000000
v 1.000000 0.400000 -0.000000
v 1.000000 0.400000 1.000000
v 0.150003 0.200000 0.150000
v 0.849997 0.200000 0.150000
v 0.849997 0.200000 0.850000
v 0.150003 0.200000 0.850000
v 0.900000 0.500000 0.100000
v 0.100000 0.500000 0.100000
v 0.100000 0.500000 0.900000
v 0.900000 0.500000 0.900000
v 0.900000 0.400000 0.100000
v 0.900000 0.400000 0.900000
v 0.100000 0.400000 0.900000
v 0.100000 0.400000 0.100000
v 0.820000 0.219178 0.729040
v 0.820000 0.348873 0.729040
v 0.820000 0.348873 0.270960
v 0.180000 0.348873 0.270960
v 0.180000 0.348873 0.729040
v 0.820000 0.219178 0.270960
v 0.180000 0.219178 0.729040
v 0.180000 0.219178 0.270960
vt 0.882812 0.640625
vt 0.882812 0.687500
vt 0.871094 0.687500
vt 0.871094 0.640625
vt 0.824219 0.640625
vt 0.824219 0.687500
vt 0.902344 0.625000
vt 0.902344 0.703125
vt 0.894531 0.628906
vt 0.800781 0.628906
vt 0.796875 0.625000
vt 0.898438 0.625000
vt 0.910156 0.617188
vt 0.917969 0.625000
vt 0.917969 0.703125
vt 0.910156 0.710938
vt 0.894531 0.699219
vt 0.898438 0.703125
vt 0.863281 0.656250
vt 0.832031 0.656250
vt 0.816406 0.644531
vt 0.878906 0.644531
vt 0.796875 0.703125
vt 0.800781 0.699219
vt 0.832031 0.671875
vt 0.816406 0.683594
vt 0.863281 0.671875
vt 0.878906 0.683594
vn -1.000000 0.000000 0.000000
vn 0.000000 0.000000 -1.000000
vn 1.000000 0.000000 0.000000
vn 0.000000 0.000000 1.000000
vn 0.000000 -1.000000 0.000000
vn -0.800000 -0.600000 0.000000
vn 0.000000 -0.600000 -0.800000
vn 0.800000 -0.600000 0.000000
vn 0.000000 -0.600000 0.800000
vn 0.000000 1.000000 -0.000000
vn -0.538500 0.842600 0.000000
vn 0.538500 0.842600 0.000000
vn 0.000000 0.958100 -0.286500
vn 0.000000 0.958100 0.286500
usemtl Conveyor
s off
f 32/11/9 29/12/9 18/13/9 17/14/9
f 29/11/10 30/12/10 19/13/10 18/14/10
f 30/11/11 31/12/11 20/13/11 19/14/11
f 31/11/12 32/12/12 17/13/12 20/14/12
f 17/15/13 18/14/13 19/13/13 20/16/13
f 26/17/14 25/18/14 29/12/14 32/11/14
f 25/17/15 27/18/15 30/12/15 29/11/15
f 27/17/16 28/18/16 31/12/16 30/11/16
f 28/17/17 26/18/17 32/12/17 31/11/17
f 38/19/10 39/20/10 35/21/10 36/22/10
f 24/23/18 36/24/18 35/25/18 21/26/18
f 21/23/9 22/26/9 25/18/9 26/17/9
f 24/23/12 21/26/12 26/18/12 28/17/12
f 22/23/10 23/26/10 27/18/10 25/17/10
f 37/27/9 38/19/9 36/22/9 33/28/9
f 23/23/11 24/26/11 28/18/11 27/17/11
f 41/29/10 47/30/10 45/31/10 42/32/10
f 35/24/18 34/25/18 22/26/18 21/23/18
f 24/26/18 23/23/18 33/24/18 36/25/18
f 33/25/18 23/26/18 22/23/18 34/24/18
f 33/28/12 34/33/12 40/34/12 37/27/12
f 47/30/11 48/35/11 44/36/11 45/31/11
f 46/37/18 48/35/18 47/30/18 41/29/18
f 46/37/9 41/29/9 42/32/9 43/38/9
f 38/19/19 37/27/19 43/38/19 42/32/19
f 39/20/20 45/31/20 44/36/20 40/34/20
f 38/19/21 42/32/21 45/31/21 39/20/21
f 37/27/22 40/34/22 44/36/22 43/38/22
f 48/35/12 46/37/12 43/38/12 44/36/12
f 39/20/11 40/34/11 34/33/11 35/21/11
o Processor_Walzes
v 0.150000 0.296708 0.520744
v 0.850000 0.296708 0.520744
v 0.150000 0.220183 0.519408
v 0.850000 0.220183 0.519408
v 0.150000 0.165127 0.572575
v 0.850000 0.165127 0.572575
v 0.150000 0.163791 0.649100
v 0.850000 0.163791 0.649100
v 0.150000 0.216958 0.704156
v 0.850000 0.216958 0.704156
v 0.150000 0.293483 0.705492
v 0.850000 0.293483 0.705492
v 0.150000 0.348539 0.652325
v 0.850000 0.348539 0.652325
v 0.150000 0.349875 0.575800
v 0.850000 0.349874 0.575800
v 0.150000 0.296708 0.479256
v 0.850000 0.296708 0.479256
v 0.150000 0.220183 0.480592
v 0.850000 0.220183 0.480592
v 0.150000 0.165127 0.427425
v 0.850000 0.165127 0.427425
v 0.150000 0.163791 0.350900
v 0.850000 0.163791 0.350900
v 0.150000 0.216958 0.295844
v 0.850000 0.216958 0.295844
v 0.150000 0.293483 0.294508
v 0.850000 0.293483 0.294508
v 0.150000 0.348539 0.347675
v 0.850000 0.348539 0.347675
v 0.150000 0.349875 0.424200
v 0.850000 0.349874 0.424200
vt 0.175781 0.773438
vt 0.175781 0.718750
vt 0.179688 0.718750
vt 0.179688 0.773438
vt 0.183594 0.718750
vt 0.183594 0.773438
vt 0.187500 0.718750
vt 0.187500 0.773438
vt 0.191406 0.718750
vt 0.191406 0.773438
vt 0.195312 0.718750
vt 0.195312 0.773438
vt 0.171875 0.773438
vt 0.171875 0.718750
vt 0.199219 0.718750
vt 0.199219 0.773438
vt 0.167969 0.773438
vt 0.167969 0.718750
vn -0.000000 0.017500 -0.999800
vn -0.000000 -0.694700 -0.719300
vn -0.000000 -0.999800 -0.017500
vn -0.000000 -0.719300 0.694700
vn 0.000000 -0.017500 0.999800
vn 0.000000 0.719300 -0.694700
vn 0.000000 0.694700 0.719300
vn 0.000000 0.999800 0.017500
vn -0.000000 0.017500 0.999800
vn -0.000000 -0.694700 0.719300
vn -0.000000 -0.999800 0.017500
vn -0.000000 -0.719300 -0.694700
vn 0.000000 -0.017500 -0.999800
vn 0.000000 0.719300 0.694700
vn 0.000000 0.694700 -0.719300
vn 0.000000 0.999800 -0.017500
usemtl Conveyor
s off
f 49/39/23 50/40/23 52/41/23 51/42/23
f 51/42/24 52/41/24 54/43/24 53/44/24
f 53/44/25 54/43/25 56/45/25 55/46/25
f 55/46/26 56/45/26 58/47/26 57/48/26
f 57/48/27 58/47/27 60/49/27 59/50/27
f 63/51/28 64/52/28 50/40/28 49/39/28
f 59/50/29 60/49/29 62/53/29 61/54/29
f 61/55/30 62/56/30 64/52/30 63/51/30
f 65/39/31 67/42/31 68/41/31 66/40/31
f 67/42/32 69/44/32 70/43/32 68/41/32
f 69/44/33 71/46/33 72/45/33 70/43/33
f 71/46/34 73/48/34 74/47/34 72/45/34
f 73/48/35 75/50/35 76/49/35 74/47/35
f 79/51/36 65/39/36 66/40/36 80/52/36
f 75/50/37 77/54/37 78/53/37 76/49/37
f 77/55/38 79/51/38 80/52/38 78/56/38
o BumpsShredder
v 0.211837 0.367298 0.578310
v 0.211837 0.349207 0.633960
v 0.172047 0.349207 0.633956
v 0.172049 0.367298 0.578310
v 0.211837 0.349207 0.594172
v 0.172047 0.349207 0.594168
v 0.299157 0.359084 0.666420
v 0.299157 0.306942 0.692978
v 0.259366 0.306944 0.692976
v 0.259369 0.359084 0.666420
v 0.299157 0.335076 0.664844
v 0.259366 0.335078 0.664841
v 0.386477 0.290973 0.722915
v 0.386477 0.235323 0.704824
v 0.346686 0.235326 0.704824
v 0.346689 0.290973 0.722915
v 0.386477 0.275111 0.704824
v 0.346686 0.275114 0.704824
v 0.473796 0.202863 0.714701
v 0.473796 0.176305 0.662559
v 0.434006 0.176307 0.662561
v 0.434008 0.202863 0.714701
v 0.473796 0.204439 0.690693
v 0.434006 0.204442 0.690695
v 0.561116 0.146368 0.646590
v 0.561116 0.164459 0.590940
v 0.521325 0.164459 0.590944
v 0.521328 0.146368 0.646590
v 0.561116 0.164459 0.630728
v 0.521325 0.164459 0.630732
v 0.648436 0.154582 0.558480
v 0.648436 0.206724 0.531922
v 0.608645 0.206722 0.531924
v 0.608648 0.154582 0.558480
v 0.648436 0.178590 0.560056
v 0.608645 0.178588 0.560059
v 0.735755 0.222693 0.501985
v 0.735755 0.278343 0.520076
v 0.695965 0.278339 0.520076
v 0.695967 0.222693 0.501985
v 0.735755 0.238555 0.520076
v 0.695965 0.238551 0.520076
v 0.823075 0.310803 0.510199
v 0.823075 0.337361 0.562342
v 0.783284 0.337359 0.562339
v 0.783287 0.310803 0.510199
v 0.823075 0.309227 0.534207
v 0.783284 0.309224 0.534205
v 0.211837 0.367298 0.421690
v 0.211837 0.349207 0.366040
v 0.172047 0.349207 0.366044
v 0.172049 0.367298 0.421690
v 0.211837 0.349207 0.405828
v 0.172047 0.349207 0.405832
v 0.299157 0.359084 0.333580
v 0.299157 0.306942 0.307022
v 0.259366 0.306944 0.307024
v 0.259369 0.359084 0.333580
v 0.299157 0.335076 0.335156
v 0.259366 0.335078 0.335159
v 0.386477 0.290973 0.277085
v 0.386477 0.235323 0.295176
v 0.346686 0.235326 0.295176
v 0.346689 0.290973 0.277085
v 0.386477 0.275111 0.295176
v 0.346686 0.275114 0.295176
v 0.473796 0.202863 0.285299
v 0.473796 0.176305 0.337441
v 0.434006 0.176307 0.337439
v 0.434008 0.202863 0.285299
v 0.473796 0.204439 0.309307
v 0.434006 0.204442 0.309305
v 0.561116 0.146368 0.353410
v 0.561116 0.164459 0.409060
v 0.521325 0.164459 0.409056
v 0.521328 0.146368 0.353410
v 0.561116 0.164459 0.369272
v 0.521325 0.164459 0.369268
v 0.648436 0.154582 0.441520
v 0.648436 0.206724 0.468078
v 0.608645 0.206722 0.468076
v 0.608648 0.154582 0.441520
v 0.648436 0.178590 0.439944
v 0.608645 0.178588 0.439941
v 0.735755 0.222693 0.498015
v 0.735755 0.278343 0.479924
v 0.695965 0.278339 0.479924
v 0.695967 0.222693 0.498015
v 0.735755 0.238555 0.479924
v 0.695965 0.238551 0.479924
v 0.823075 0.310803 0.489801
v 0.823075 0.337361 0.437658
v 0.783284 0.337359 0.437661
v 0.783287 0.310803 0.489801
v 0.823075 0.309227 0.465793
v 0.783284 0.309224 0.465795
vt 0.871094 0.671875
vt 0.847656 0.671875
vt 0.847656 0.648438
vt 0.871094 0.648438
vt 0.808594 0.671875
vt 0.808594 0.648438
vt 0.847656 0.632812
vt 0.847656 0.683594
vn 0.000000 -0.659200 -0.751900
vn -0.000000 0.951000 0.309200
vn 1.000000 0.000000 0.000000
vn -1.000000 0.000100 0.000000
vn 0.000000 0.065600 -0.997800
vn -0.000000 0.453800 0.891100
vn -1.000000 0.000100 0.000100
vn 0.000000 0.751900 -0.659200
vn -0.000000 -0.309200 0.951000
vn -1.000000 0.000000 0.000100
vn 0.000000 0.997800 0.065600
vn -0.000000 -0.891100 0.453800
vn -1.000000 -0.000100 0.000100
vn 0.000000 0.659200 0.751900
vn -0.000000 -0.951000 -0.309200
vn -1.000000 -0.000100 -0.000000
vn 0.000000 -0.065600 0.997800
vn -0.000000 -0.453800 -0.891100
vn -1.000000 -0.000100 -0.000100
vn 0.000000 -0.751900 0.659200
vn -0.000000 0.309200 -0.951000
vn -1.000000 -0.000000 -0.000100
vn 0.000000 -0.997800 -0.065600
vn -0.000000 0.891100 -0.453800
vn -1.000000 0.000100 -0.000100
vn 0.000000 -0.659200 0.751900
vn -0.000000 0.951000 -0.309200
vn 0.000000 0.065600 0.997800
vn -0.000000 0.453800 -0.891100
vn 0.000000 0.751900 0.659200
vn -0.000000 -0.309200 -0.951000
vn 0.000000 0.997800 -0.065600
vn -0.000000 -0.891100 -0.453800
vn 0.000000 0.659200 -0.751900
vn -0.000000 -0.951000 0.309200
vn 0.000000 -0.065600 -0.997800
vn -0.000000 -0.453800 0.891100
vn 0.000000 -0.751900 -0.659200
vn -0.000000 0.309200 0.951000
vn 0.000000 -0.997800 0.065600
vn -0.000000 0.891100 0.453800
usemtl Conveyor
s off
f 86/57/39 84/58/39 81/59/39 85/60/39
f 81/59/40 84/58/40 83/61/40 82/62/40
f 85/63/41 81/59/41 82/62/41
f 83/61/42 84/58/42 86/64/42
f 92/57/43 90/58/43 87/59/43 91/60/43
f 87/59/44 90/58/44 89/61/44 88/62/44
f 91/63/41 87/59/41 88/62/41
f 89/61/45 90/58/45 92/64/45
f 98/57/46 96/58/46 93/59/46 97/60/46
f 93/59/47 96/58/47 95/61/47 94/62/47
f 97/63/41 93/59/41 94/62/41
f 95/61/48 96/58/48 98/64/48
f 104/57/49 102/58/49 99/59/49 103/60/49
f 99/59/50 102/58/50 101/61/50 100/62/50
f 103/63/41 99/59/41 100/62/41
f 101/61/51 102/58/51 104/64/51
f 110/57/52 108/58/52 105/59/52 109/60/52
f 105/59/53 108/58/53 107/61/53 106/62/53
f 109/63/41 105/59/41 106/62/41
f 107/61/54 108/58/54 110/64/54
f 116/57/55 114/58/55 111/59/55 115/60/55
f 111/59/56 114/58/56 113/61/56 112/62/56
f 115/63/41 111/59/41 112/62/41
f 113/61/57 114/58/57 116/64/57
f 122/57/58 120/58/58 117/59/58 121/60/58
f 117/59/59 120/58/59 119/61/59 118/62/59
f 121/63/41 117/59/41 118/62/41
f 119/61/60 120/58/60 122/64/60
f 128/57/61 126/58/61 123/59/61 127/60/61
f 123/59/62 126/58/62 125/61/62 124/62/62
f 127/63/41 123/59/41 124/62/41
f 125/61/63 126/58/63 128/64/63
f 134/57/64 133/60/64 129/59/64 132/58/64
f 129/59/65 130/62/65 131/61/65 132/58/65
f 133/63/41 130/62/41 129/59/41
f 131/61/42 134/64/42 132/58/42
f 140/57/66 139/60/66 135/59/66 138/58/66
f 135/59/67 136/62/67 137/61/67 138/58/67
f 139/63/41 136/62/41 135/59/41
f 137/61/63 140/64/63 138/58/63
f 146/57/68 145/60/68 141/59/68 144/58/68
f 141/59/69 142/62/69 143/61/69 144/58/69
f 145/63/41 142/62/41 141/59/41
f 143/61/60 146/64/60 144/58/60
f 152/57/70 151/60/70 147/59/70 150/58/70
f 147/59/71 148/62/71 149/61/71 150/58/71
f 151/63/41 148/62/41 147/59/41
f 149/61/57 152/64/57 150/58/57
f 158/57/72 157/60/72 153/59/72 156/58/72
f 153/59/73 154/62/73 155/61/73 156/58/73
f 157/63/41 154/62/41 153/59/41
f 155/61/54 158/64/54 156/58/54
f 164/57/74 163/60/74 159/59/74 162/58/74
f 159/59/75 160/62/75 161/61/75 162/58/75
f 163/63/41 160/62/41 159/59/41
f 161/61/51 164/64/51 162/58/51
f 170/57/76 169/60/76 165/59/76 168/58/76
f 165/59/77 166/62/77 167/61/77 168/58/77
f 169/63/41 166/62/41 165/59/41
f 167/61/48 170/64/48 168/58/48
f 176/57/78 175/60/78 171/59/78 174/58/78
f 171/59/79 172/62/79 173/61/79 174/58/79
f 175/63/41 172/62/41 171/59/41
f 173/61/45 176/64/45 174/58/45
o Support_Alu_smdl_alu
v 0.150003 0.100000 1.000000
v 0.119692 0.100000 1.000000
v 0.150003 -0.000000 1.000000
v 0.119692 -0.000000 1.000000
v 0.100003 0.050000 1.000000
v 0.103872 0.075000 1.000000
v 0.103872 0.025000 1.000000
v 0.150003 0.100000 0.875000
v 0.119692 0.100000 0.875000
v 0.150003 0.350000 0.625000
v 0.150003 0.100000 1.000000
v 0.119692 0.100000 1.000000
v 0.119692 0.350000 0.625000
v 0.150000 0.018000 0.832000
v 0.150000 0.018000 0.768000
v 0.150000 0.082000 0.832000
v 0.150000 0.082000 0.768000
v 0.150000 0.018000 0.532000
v 0.150000 0.082000 0.532000
v 0.119692 0.050000 1.000000
v 0.850001 0.100000 1.000000
v 0.880313 0.100000 1.000000
v 0.850001 -0.000000 1.000000
v 0.880313 -0.000000 1.000000
v 0.900001 0.050000 1.000000
v 0.896132 0.075000 1.000000
v 0.896132 0.025000 1.000000
v 0.849997 0.100000 1.000000
v 0.880308 0.100000 1.000000
v 0.849997 -0.000000 1.000000
v 0.880308 -0.000000 1.000000
v 0.899997 0.050000 1.000000
v 0.896128 0.075000 1.000000
v 0.896128 0.025000 1.000000
v 0.849997 0.100000 0.875000
v 0.880308 0.100000 0.875000
v 0.849997 0.350000 0.625000
v 0.849997 0.100000 1.000000
v 0.880308 0.100000 1.000000
v 0.880308 0.350000 0.625000
v 0.850000 0.018000 0.832000
v 0.850000 0.018000 0.768000
v 0.500000 0.018000 0.768000
v 0.500000 0.018000 0.832000
v 0.850000 0.082000 0.832000
v 0.850000 0.082000 0.768000
v 0.500000 0.082000 0.768000
v 0.500000 0.082000 0.832000
v 0.850000 0.018000 0.532000
v 0.500000 0.018000 0.532000
v 0.850000 0.082000 0.532000
v 0.500000 0.082000 0.532000
v 0.880308 0.050000 1.000000
v 0.149999 0.100000 1.000000
v 0.119687 0.100000 1.000000
v 0.149999 -0.000000 1.000000
v 0.119687 -0.000000 1.000000
v 0.099999 0.050000 1.000000
v 0.103868 0.075000 1.000000
v 0.103868 0.025000 1.000000
v 0.150003 0.100000 0.000000
v 0.150003 0.100000 0.500000
v 0.119692 0.100000 0.500000
v 0.119692 0.100000 0.000000
v 0.150003 -0.000000 0.000000
v 0.150003 -0.000000 0.500000
v 0.119692 -0.000000 0.500000
v 0.119692 -0.000000 0.000000
v 0.100003 0.050000 0.500000
v 0.100003 0.050000 0.000000
v 0.103872 0.075000 0.500000
v 0.103872 0.075000 0.000000
v 0.103872 0.025000 0.500000
v 0.103872 0.025000 0.000000
v 0.150003 0.350000 0.500000
v 0.150003 0.100000 0.125000
v 0.119692 0.100000 0.125000
v 0.119692 0.350000 0.500000
v 0.150003 0.350000 0.375000
v 0.150003 0.100000 0.000000
v 0.119692 0.100000 0.000000
v 0.119692 0.350000 0.375000
v 0.150000 0.018000 0.168000
v 0.150000 0.018000 0.232000
v 0.150000 0.082000 0.168000
v 0.150000 0.082000 0.232000
v 0.150000 0.018000 0.468000
v 0.150000 0.018000 0.500000
v 0.150000 0.082000 0.468000
v 0.150000 0.082000 0.500000
v 0.119692 0.050000 0.000000
v 0.850001 0.100000 0.000000
v 0.880313 0.100000 0.000000
v 0.850001 -0.000000 0.000000
v 0.880313 -0.000000 0.000000
v 0.900001 0.050000 0.000000
v 0.896132 0.075000 0.000000
v 0.896132 0.025000 0.000000
v 0.849997 0.100000 0.000000
v 0.849997 0.100000 0.500000
v 0.880308 0.100000 0.500000
v 0.880308 0.100000 0.000000
v 0.849997 -0.000000 0.000000
v 0.849997 -0.000000 0.500000
v 0.880308 -0.000000 0.500000
v 0.880308 -0.000000 0.000000
v 0.899997 0.050000 0.500000
v 0.899997 0.050000 0.000000
v 0.896128 0.075000 0.500000
v 0.896128 0.075000 0.000000
v 0.896128 0.025000 0.500000
v 0.896128 0.025000 0.000000
v 0.849997 0.350000 0.500000
v 0.849997 0.100000 0.125000
v 0.880308 0.100000 0.125000
v 0.880308 0.350000 0.500000
v 0.849997 0.350000 0.375000
v 0.849997 0.100000 0.000000
v 0.880308 0.100000 0.000000
v 0.880308 0.350000 0.375000
v 0.850000 0.018000 0.168000
v 0.850000 0.018000 0.232000
v 0.500000 0.018000 0.232000
v 0.500000 0.018000 0.168000
v 0.850000 0.082000 0.168000
v 0.850000 0.082000 0.232000
v 0.500000 0.082000 0.232000
v 0.500000 0.082000 0.168000
v 0.850000 0.018000 0.468000
v 0.850000 0.018000 0.500000
v 0.500000 0.018000 0.500000
v 0.500000 0.018000 0.468000
v 0.850000 0.082000 0.468000
v 0.850000 0.082000 0.500000
v 0.500000 0.082000 0.500000
v 0.500000 0.082000 0.468000
v 0.880308 0.050000 0.000000
v 0.149999 0.100000 0.000000
v 0.119687 0.100000 0.000000
v 0.149999 -0.000000 0.000000
v 0.119687 -0.000000 0.000000
v 0.099999 0.050000 0.000000
v 0.103868 0.075000 0.000000
v 0.103868 0.025000 0.000000
vt 0.214844 0.753906
vt 0.160156 0.753906
vt 0.160156 0.761719
vt 0.214844 0.761719
vt 0.160156 0.722656
vt 0.214844 0.722656
vt 0.214844 0.769531
vt 0.160156 0.769531
vt 0.160156 0.730469
vt 0.214844 0.730469
vt 0.214844 0.738281
vt 0.160156 0.738281
vt 0.160156 0.746094
vt 0.214844 0.746094
vt 0.191406 0.722656
vt 0.183594 0.769531
vt 0.183594 0.722656
vt 0.191406 0.769531
vt 0.160156 0.742188
vt 0.214844 0.742188
vt 0.214844 0.750000
vt 0.160156 0.750000
vt 0.179688 0.765625
vt 0.179688 0.746094
vt 0.195312 0.765625
vt 0.171875 0.753906
vt 0.171875 0.746094
vt 0.179688 0.726562
vt 0.171875 0.738281
vt 0.195312 0.726562
vn -0.845000 0.534700 0.000000
vn 1.000000 0.000000 0.000000
vn 0.000000 1.000000 0.000000
vn 0.000000 -1.000000 0.000000
vn -0.988200 -0.152900 0.000000
vn -0.988200 0.152900 0.000000
vn -0.845000 -0.534700 0.000000
vn 0.000000 -0.832100 -0.554700
vn 0.000000 0.832100 0.554700
vn -1.000000 0.000000 0.000000
vn 0.000000 0.000000 1.000000
vn 0.000000 0.000000 -1.000000
vn 0.845000 0.534700 0.000000
vn 0.988200 -0.152900 0.000000
vn 0.988200 0.152900 0.000000
vn 0.845000 -0.534700 0.000000
vn 0.000000 -0.832100 0.554700
vn 0.000000 0.832100 -0.554700
usemtl Conveyor
s off
f 247/65/80 182/66/80 178/67/80 239/68/80
f 179/69/81 242/70/81 238/71/81 177/72/81
f 177/72/82 238/71/82 239/68/82 178/67/82
f 180/73/83 243/74/83 242/70/83 179/69/83
f 249/75/84 183/76/84 181/77/84 245/78/84
f 245/78/85 181/77/85 182/66/85 247/65/85
f 243/74/86 180/73/86 183/76/86 249/75/86
f 186/79/81 187/69/81 184/80/81 251/71/81
f 251/71/87 184/80/87 185/81/87 254/70/87
f 189/82/88 188/72/88 187/69/88 186/79/88
f 188/72/89 189/82/89 254/70/89 185/81/89
f 224/71/90 192/72/90 190/69/90 220/70/90
f 193/69/91 223/70/91 219/71/91 191/72/91
f 190/69/83 191/72/83 219/71/83 220/70/83
f 224/71/82 223/70/82 193/69/82 192/72/82
f 228/71/90 195/72/90 194/69/90 226/70/90
f 194/69/83 264/83/83 307/84/83 226/70/83
f 228/71/82 311/85/82 266/86/82 195/72/82
f 178/87/90 196/88/90 177/89/90
f 178/87/90 182/90/90 181/91/90 196/88/90
f 180/92/90 196/88/90 181/91/90 183/93/90
f 179/94/90 196/88/90 180/92/90
f 179/94/90 177/89/90 196/88/90
f 285/65/92 277/68/92 205/67/92 209/66/92
f 206/69/89 204/72/89 276/71/89 280/70/89
f 204/72/82 205/67/82 277/68/82 276/71/82
f 207/73/83 206/69/83 280/70/83 281/74/83
f 287/75/93 283/78/93 208/77/93 210/76/93
f 283/78/94 285/65/94 209/66/94 208/77/94
f 281/74/95 287/75/95 210/76/95 207/73/95
f 213/79/89 289/71/89 211/80/89 214/69/89
f 289/71/87 292/70/87 212/81/87 211/80/87
f 216/82/88 213/79/88 214/69/88 215/72/88
f 215/72/81 212/81/81 292/70/81 216/82/81
f 224/71/90 220/70/90 217/69/90 221/72/90
f 222/69/91 218/72/91 219/71/91 223/70/91
f 217/69/83 220/70/83 219/71/83 218/72/83
f 224/71/82 221/72/82 222/69/82 223/70/82
f 228/71/90 226/70/90 225/69/90 227/72/90
f 225/69/83 226/70/83 307/84/83 306/83/83
f 228/71/82 227/72/82 310/86/82 311/85/82
f 205/87/90 204/89/90 229/88/90
f 205/87/90 229/88/90 208/91/90 209/90/90
f 207/92/90 210/93/90 208/91/90 229/88/90
f 206/94/90 207/92/90 229/88/90
f 206/94/90 229/88/90 204/89/90
f 247/65/80 239/68/80 240/67/80 248/66/80
f 241/69/81 237/72/81 238/71/81 242/70/81
f 237/72/82 240/67/82 239/68/82 238/71/82
f 244/73/83 241/69/83 242/70/83 243/74/83
f 249/75/84 245/78/84 246/77/84 250/76/84
f 245/78/85 247/65/85 248/66/85 246/77/85
f 243/74/86 249/75/86 250/76/86 244/73/86
f 255/79/81 251/71/81 252/80/81 256/69/81
f 251/71/96 254/70/96 253/81/96 252/80/96
f 258/82/97 255/79/97 256/69/97 257/72/97
f 257/72/89 253/81/89 254/70/89 258/82/89
f 304/71/91 300/70/91 259/69/91 261/72/91
f 262/69/90 260/72/90 299/71/90 303/70/90
f 259/69/83 300/70/83 299/71/83 260/72/83
f 304/71/82 261/72/82 262/69/82 303/70/82
f 312/71/91 308/70/91 263/69/91 265/72/91
f 263/69/83 308/70/83 307/84/83 264/83/83
f 312/71/82 265/72/82 266/86/82 311/85/82
f 240/87/91 237/89/91 267/88/91
f 240/87/91 267/88/91 246/91/91 248/90/91
f 244/92/91 250/93/91 246/91/91 267/88/91
f 241/94/91 244/92/91 267/88/91
f 241/94/91 267/88/91 237/89/91
f 285/65/92 286/66/92 278/67/92 277/68/92
f 279/69/89 280/70/89 276/71/89 275/72/89
f 275/72/82 276/71/82 277/68/82 278/67/82
f 282/73/83 281/74/83 280/70/83 279/69/83
f 287/75/93 288/76/93 284/77/93 283/78/93
f 283/78/94 284/77/94 286/66/94 285/65/94
f 281/74/95 282/73/95 288/76/95 287/75/95
f 293/79/89 294/69/89 290/80/89 289/71/89
f 289/71/96 290/80/96 291/81/96 292/70/96
f 296/82/97 295/72/97 294/69/97 293/79/97
f 295/72/81 296/82/81 292/70/81 291/81/81
f 304/71/91 301/72/91 297/69/91 300/70/91
f 302/69/90 303/70/90 299/71/90 298/72/90
f 297/69/83 298/72/83 299/71/83 300/70/83
f 304/71/82 303/70/82 302/69/82 301/72/82
f 312/71/91 309/72/91 305/69/91 308/70/91
f 305/69/83 306/83/83 307/84/83 308/70/83
f 312/71/82 311/85/82 310/86/82 309/72/82
f 278/87/91 313/88/91 275/89/91
f 278/87/91 286/90/91 284/91/91 313/88/91
f 282/92/91 313/88/91 284/91/91 288/93/91
f 279/94/91 313/88/91 282/92/91
f 279/94/91 275/89/91 313/88/91
