# Blender v2.74 (sub 0) OBJ File: 'conveyor_attachables.blend'
# www.blender.org
mtllib conveyor_attachables.mtl
o BagTrash_btmdl
v 0.000000 0.000000 0.977282
v 0.000000 0.510000 0.977282
v 1.000000 0.000000 0.977282
v 1.000000 0.510000 0.977282
v -0.000000 0.000000 1.000000
v -0.000000 0.510000 1.000000
v 1.000000 0.000000 1.000000
v 1.000000 0.510000 1.000000
v 0.095681 0.000000 0.647280
v 0.095681 0.346111 0.647282
v 0.904319 0.346111 0.647282
v 0.904319 0.000000 0.647280
v 0.020000 0.510000 0.977282
v 0.980000 0.510000 0.977282
v 0.111853 0.346111 0.667282
v 0.888147 0.346111 0.667282
v 0.020000 0.020000 0.977282
v 0.980000 0.020000 0.977282
v 0.888147 0.020000 0.786774
v 0.111853 0.020000 0.786773
v 0.980000 0.510000 1.000000
v 0.020000 0.510000 1.000000
vt 0.324219 0.593750
vt 0.269531 0.593750
vt 0.289062 0.578125
vt 0.304688 0.578125
vt 0.199219 0.601562
vt 0.195312 0.601562
vt 0.195312 0.578125
vt 0.199219 0.578125
vt 0.265625 0.585938
vt 0.242188 0.585938
vt 0.218750 0.585938
vt 0.195312 0.585938
vt 0.265625 0.578125
vt 0.292969 0.578125
vt 0.292969 0.582031
vt 0.250000 0.582031
vt 0.250000 0.578125
vt 0.324219 0.601562
vt 0.269531 0.601562
vt 0.199219 0.609375
vt 0.191406 0.609375
vt 0.191406 0.601562
vt 0.320312 0.570312
vt 0.242188 0.570312
vt 0.242188 0.527344
vt 0.320312 0.527344
vt 0.292969 0.605469
vt 0.250000 0.605469
vt 0.296875 0.582031
vt 0.296875 0.605469
vt 0.246094 0.578125
vt 0.246094 0.601562
vt 0.191406 0.710938
vt 0.191406 0.613281
vt 0.250000 0.648438
vt 0.250000 0.683594
vt 0.222656 0.578125
vt 0.226562 0.585938
vt 0.191406 0.585938
vt 0.199219 0.605469
vt 0.246094 0.605469
vt 0.312500 0.648438
vt 0.312500 0.683594
vt 0.371094 0.613281
vt 0.371094 0.710938
vt 0.363281 0.601562
vt 0.363281 0.609375
vt 0.371094 0.601562
vt 0.371094 0.609375
vn 0.000000 -1.000000 0.000000
vn 1.000000 0.000000 0.000000
vn -0.000000 -0.000000 1.000000
vn -1.000000 0.000000 -0.000000
vn 0.000000 1.000000 0.000000
vn 0.000000 0.000000 -1.000000
vn -0.960400 0.000000 -0.278500
vn 0.217600 0.893100 -0.393600
vn 0.960400 0.000000 -0.278500
vn 0.942700 0.048300 0.330200
vn -0.217600 0.893100 -0.393600
vn -0.942700 0.048300 0.330200
vn -0.000000 0.344000 0.939000
usemtl Conveyor
s off
f 3/1/1 1/2/1 9/3/1 12/4/1
f 4/5/2 8/6/2 7/7/2 3/8/2
f 8/9/3 21/10/3 22/11/3 6/12/3 5/7/3 7/13/3
f 6/14/4 2/15/4 1/16/4 5/17/4
f 1/2/1 3/1/1 7/18/1 5/19/1
f 22/5/5 13/20/5 2/21/5 6/22/5
f 10/23/6 11/24/6 12/25/6 9/26/6
f 1/16/7 2/15/7 10/27/7 9/28/7
f 2/15/8 13/29/8 15/30/8 10/27/8
f 4/5/9 3/8/9 12/31/9 11/32/9
f 15/33/10 13/34/10 17/35/10 20/36/10
f 15/7/5 16/37/5 11/38/5 10/39/5
f 14/40/11 4/5/11 11/32/11 16/41/11
f 17/35/5 18/42/5 19/43/5 20/36/5
f 14/44/12 16/45/12 19/43/12 18/42/12
f 16/45/13 15/33/13 20/36/13 19/43/13
f 13/34/6 14/44/6 18/42/6 17/35/6
f 13/20/5 22/5/5 21/46/5 14/47/5
f 14/47/5 21/46/5 8/48/5 4/49/5
l 13 20
l 14 19
o BagFilling_bfmdl
v 0.020000 0.030001 0.977282
v 0.980000 0.030001 0.977282
v 0.111853 0.029999 0.667282
v 0.888147 0.029999 0.667282
vt 0.187500 0.527344
vt 0.000000 0.527344
vt 0.000000 0.480469
vt 0.187500 0.480469
vn 0.000000 1.000000 -0.000000
usemtl Conveyor
s off
f 23/50/14 24/51/14 26/52/14 25/53/14
o BagStorage_bmdl
v 0.000000 0.000000 0.977282
v 0.000000 0.510000 0.977282
v 1.000000 0.000000 0.977282
v 1.000000 0.510000 0.977282
v -0.000000 0.000000 1.000000
v -0.000000 0.510000 1.000000
v 1.000000 0.000000 1.000000
v 1.000000 0.510000 1.000000
v 0.095681 0.000000 0.647280
v 0.095681 0.346111 0.647282
v 0.904319 0.346111 0.647282
v 0.904319 0.000000 0.647280
v 0.020000 0.510000 0.977282
v 0.980000 0.510000 0.977282
v 0.111853 0.346111 0.667282
v 0.888147 0.346111 0.667282
v 0.020000 0.020000 0.977282
v 0.980000 0.020000 0.977282
v 0.888147 0.020000 0.786774
v 0.111853 0.020000 0.786773
v 0.980000 0.510000 1.000000
v 0.020000 0.510000 1.000000
vt 0.136719 0.593750
vt 0.082031 0.593750
vt 0.101562 0.578125
vt 0.117188 0.578125
vt 0.011719 0.601562
vt 0.007812 0.601562
vt 0.007812 0.578125
vt 0.011719 0.578125
vt 0.078125 0.585938
vt 0.054687 0.585938
vt 0.031250 0.585938
vt 0.007812 0.585938
vt 0.078125 0.578125
vt 0.105469 0.578125
vt 0.105469 0.582031
vt 0.062500 0.582031
vt 0.062500 0.578125
vt 0.136719 0.601562
vt 0.082031 0.601562
vt 0.011719 0.609375
vt 0.003906 0.609375
vt 0.003906 0.601562
vt 0.132812 0.570312
vt 0.054688 0.570312
vt 0.054688 0.527344
vt 0.132812 0.527344
vt 0.105469 0.605469
vt 0.062500 0.605469
vt 0.109375 0.582031
vt 0.109375 0.605469
vt 0.058594 0.578125
vt 0.058594 0.601562
vt 0.003906 0.710938
vt 0.003906 0.613281
vt 0.062500 0.648438
vt 0.062500 0.683594
vt 0.035156 0.578125
vt 0.039062 0.585938
vt 0.003906 0.585938
vt 0.011719 0.605469
vt 0.058594 0.605469
vt 0.125000 0.648438
vt 0.125000 0.683594
vt 0.183594 0.613281
vt 0.183594 0.710938
vt 0.175781 0.601562
vt 0.175781 0.609375
vt 0.183594 0.601562
vt 0.183594 0.609375
vn 0.000000 -1.000000 0.000000
vn 1.000000 0.000000 0.000000
vn -0.000000 -0.000000 1.000000
vn -1.000000 0.000000 -0.000000
vn 0.000000 1.000000 0.000000
vn 0.000000 0.000000 -1.000000
vn -0.960400 0.000000 -0.278500
vn 0.217600 0.893100 -0.393600
vn 0.960400 0.000000 -0.278500
vn 0.942700 0.048300 0.330200
vn -0.217600 0.893100 -0.393600
vn -0.942700 0.048300 0.330200
vn -0.000000 0.344000 0.939000
usemtl Conveyor
s off
f 29/54/15 27/55/15 35/56/15 38/57/15
f 30/58/16 34/59/16 33/60/16 29/61/16
f 34/62/17 47/63/17 48/64/17 32/65/17 31/60/17 33/66/17
f 32/67/18 28/68/18 27/69/18 31/70/18
f 27/55/15 29/54/15 33/71/15 31/72/15
f 48/58/19 39/73/19 28/74/19 32/75/19
f 36/76/20 37/77/20 38/78/20 35/79/20
f 27/69/21 28/68/21 36/80/21 35/81/21
f 28/68/22 39/82/22 41/83/22 36/80/22
f 30/58/23 29/61/23 38/84/23 37/85/23
f 41/86/24 39/87/24 43/88/24 46/89/24
f 41/60/19 42/90/19 37/91/19 36/92/19
f 40/93/25 30/58/25 37/85/25 42/94/25
f 43/88/19 44/95/19 45/96/19 46/89/19
f 40/97/26 42/98/26 45/96/26 44/95/26
f 42/98/27 41/86/27 46/89/27 45/96/27
f 39/87/20 40/97/20 44/95/20 43/88/20
f 39/73/19 48/58/19 47/99/19 40/100/19
f 40/100/19 47/99/19 34/101/19 30/102/19
l 39 46
l 40 45
o Reference_rplane
v 0.000000 0.000000 1.000000
v 0.000000 0.000000 0.000000
v 1.000000 0.000000 0.000000
v 1.000000 0.000000 1.000000
vn 0.000000 1.000000 0.000000
usemtl None
s off
f 49//28 52//28 51//28 50//28
