# Blender v2.78 (sub 0) OBJ File: 'conveyor_elevator_int.blend'
# www.blender.org
mtllib conveyor_elevator_int.mtl
o CapBottom_cbmdl
v 0.050000 0.572500 0.616670
v 0.050000 0.512500 0.333331
v 0.050000 0.450000 0.333331
v 0.050000 0.512500 0.616670
v 0.950000 0.572500 0.616670
v 0.950000 0.512500 0.333331
v 0.950000 0.450000 0.333331
v 0.950000 0.512500 0.616670
vt 0.3086 0.9961
vt 0.3086 0.9023
vt 0.3203 0.9023
vt 0.3203 0.9961
vt 0.2500 0.9961
vt 0.2500 0.9023
vt 0.3750 0.9023
vt 0.3750 0.9961
vn 0.0000 0.0000 1.0000
vn 0.0000 -0.9765 0.2154
vn 0.0000 0.9783 -0.2072
usemtl Conveyor
s off
f 4/1/1 8/2/1 5/3/1 1/4/1
f 3/5/2 7/6/2 8/2/2 4/1/2
f 1/4/3 5/3/3 6/7/3 2/8/3
o CapTop_ctmdl
v 0.050000 0.687500 0.616670
v 0.050000 0.900000 0.359753
v 0.050000 0.962500 0.359753
v 0.050000 0.750000 0.616670
v 0.950000 0.687500 0.616670
v 0.950000 0.900000 0.359753
v 0.950000 0.962500 0.359753
v 0.950000 0.750000 0.616670
vt 0.2539 0.9961
vt 0.2461 0.9961
vt 0.2461 0.9023
vt 0.2539 0.9023
vt 0.2969 0.9961
vt 0.2969 0.9023
vt 0.1992 0.9961
vt 0.1992 0.9023
vn 0.0000 0.0000 1.0000
vn 0.0000 0.7706 0.6374
vn 0.0000 -0.7706 -0.6374
usemtl Conveyor
s off
f 12/9/4 9/10/4 13/11/4 16/12/4
f 11/13/5 12/9/5 16/12/5 15/14/5
f 9/10/6 10/15/6 14/16/6 13/11/6
o Attach_attachmdl
v 0.000004 0.510000 0.333331
v 0.120000 0.510000 -0.000000
v 0.120000 0.450000 -0.000000
v 0.000004 0.450000 0.333331
v 0.999996 0.510000 0.333331
v 0.500000 0.450000 0.333331
v 0.500000 0.450000 0.000000
v 0.880000 0.510000 -0.000000
v 0.500000 0.510000 0.000000
v 0.880000 0.450000 -0.000000
v 0.999996 0.450000 0.333331
v 0.500000 0.510000 0.333331
vt 0.1641 0.7539
vt 0.1641 0.7383
vt 0.1680 0.7383
vt 0.1680 0.7539
vt 0.1719 0.7383
vt 0.1719 0.7539
vt 0.1602 0.7539
vt 0.1602 0.7383
vt 0.1914 0.7578
vt 0.1758 0.7578
vt 0.1836 0.7344
vt 0.1914 0.7344
vt 0.1953 0.7344
vt 0.2109 0.7344
vt 0.2109 0.7578
vt 0.2031 0.7578
vt 0.1641 0.7539
vt 0.1680 0.7539
vt 0.1680 0.7383
vt 0.1641 0.7383
vt 0.1836 0.7344
vt 0.1758 0.7578
vt 0.1953 0.7344
vt 0.2031 0.7578
vn -0.9409 0.0000 -0.3387
vn 0.0000 0.0000 -1.0000
vn -0.0000 0.0000 1.0000
vn 0.0000 -1.0000 0.0000
vn 0.0000 1.0000 -0.0000
vn 0.9409 0.0000 -0.3387
usemtl Conveyor
s off
f 20/17/7 17/18/7 18/19/7 19/20/7
f 18/19/8 25/21/8 23/22/8 19/20/8
f 17/18/9 20/17/9 22/23/9 28/24/9
f 22/25/10 20/26/10 19/27/10 23/28/10
f 17/29/11 28/30/11 25/31/11 18/32/11
f 27/33/12 26/34/12 24/35/12 21/36/12
f 24/35/8 26/34/8 23/22/8 25/21/8
f 21/36/9 28/24/9 22/23/9 27/33/9
f 22/25/10 23/28/10 26/37/10 27/38/10
f 21/39/11 24/40/11 25/31/11 28/30/11
o Frame_fmdl
v 0.000004 0.000000 0.333331
v 0.050000 0.000000 0.333331
v 0.000004 1.000000 0.333331
v 0.050000 1.000000 0.333331
v 0.050000 0.000000 0.333331
v 0.050000 0.100000 0.333331
v 0.050000 0.100000 0.359753
v 0.050000 0.000000 0.359753
v 0.050000 0.900000 0.333331
v 0.050000 1.000000 0.333331
v 0.050000 1.000000 0.359753
v 0.050000 0.900000 0.359753
v 0.308335 0.000000 0.359753
v 0.358331 0.000000 0.359753
v 0.308335 1.000000 0.359753
v 0.358331 1.000000 0.359753
v 0.308335 0.000000 0.383330
v 0.308335 1.000000 0.383330
v 0.358331 1.000000 0.383330
v 0.358331 0.000000 0.383330
v 0.999996 0.000000 0.333331
v 0.950000 0.000000 0.333331
v 0.999996 1.000000 0.333331
v 0.950000 1.000000 0.333331
v 0.950000 0.000000 0.333331
v 0.950000 0.100000 0.333331
v 0.950000 0.100000 0.359753
v 0.950000 0.000000 0.359753
v 0.500000 0.000000 0.333331
v 0.500000 0.100000 0.333331
v 0.500000 0.100000 0.359753
v 0.500000 0.000000 0.359753
v 0.950000 0.900000 0.333331
v 0.950000 1.000000 0.333331
v 0.950000 1.000000 0.359753
v 0.950000 0.900000 0.359753
v 0.500000 0.900000 0.333331
v 0.500000 1.000000 0.333331
v 0.500000 1.000000 0.359753
v 0.500000 0.900000 0.359753
v 0.691665 0.000000 0.359753
v 0.641669 0.000000 0.359753
v 0.691665 1.000000 0.359753
v 0.641669 1.000000 0.359753
v 0.691665 0.000000 0.383330
v 0.691665 1.000000 0.383330
v 0.641669 1.000000 0.383330
v 0.641669 0.000000 0.383330
v 0.000004 0.000000 0.666669
v 0.050000 0.000000 0.666669
v 0.000004 1.000000 0.666669
v 0.050000 1.000000 0.666669
v 0.000004 0.000000 0.500000
v 0.000004 1.000000 0.500000
v 0.050000 1.000000 0.500000
v 0.050000 0.000000 0.500000
v 0.050000 0.000000 0.666669
v 0.050000 0.100000 0.666669
v 0.050000 0.100000 0.640247
v 0.050000 0.000000 0.640247
v 0.050000 0.900000 0.666669
v 0.050000 1.000000 0.666669
v 0.050000 1.000000 0.640247
v 0.050000 0.900000 0.640247
v 0.308335 0.000000 0.640247
v 0.358331 0.000000 0.640247
v 0.308335 1.000000 0.640247
v 0.358331 1.000000 0.640247
v 0.308335 0.000000 0.616670
v 0.308335 1.000000 0.616670
v 0.358331 1.000000 0.616670
v 0.358331 0.000000 0.616670
v 0.999996 0.000000 0.666669
v 0.950000 0.000000 0.666669
v 0.999996 1.000000 0.666669
v 0.950000 1.000000 0.666669
v 0.999996 0.000000 0.500000
v 0.999996 1.000000 0.500000
v 0.950000 1.000000 0.500000
v 0.950000 0.000000 0.500000
v 0.950000 0.000000 0.666669
v 0.950000 0.100000 0.666669
v 0.950000 0.100000 0.640247
v 0.950000 0.000000 0.640247
v 0.500000 0.000000 0.666669
v 0.500000 0.100000 0.666669
v 0.500000 0.100000 0.640247
v 0.500000 0.000000 0.640247
v 0.950000 0.900000 0.666669
v 0.950000 1.000000 0.666669
v 0.950000 1.000000 0.640247
v 0.950000 0.900000 0.640247
v 0.500000 0.900000 0.666669
v 0.500000 1.000000 0.666669
v 0.500000 1.000000 0.640247
v 0.500000 0.900000 0.640247
v 0.691665 0.000000 0.640247
v 0.641669 0.000000 0.640247
v 0.691665 1.000000 0.640247
v 0.641669 1.000000 0.640247
v 0.691665 0.000000 0.616670
v 0.691665 1.000000 0.616670
v 0.641669 1.000000 0.616670
v 0.641669 0.000000 0.616670
vt 0.9844 0.9961
vt 0.9844 0.9336
vt 0.9961 0.9336
vt 0.9961 0.9961
vt 0.9609 0.9570
vt 0.9609 0.9609
vt 0.9492 0.9609
vt 0.9492 0.9570
vt 0.9492 0.9492
vt 0.9492 0.9453
vt 0.9609 0.9453
vt 0.9609 0.9492
vt 0.9492 0.9961
vt 0.9531 0.9961
vt 0.9531 0.9336
vt 0.9492 0.9336
vt 0.1602 0.7695
vt 0.1602 0.7227
vt 0.2148 0.7227
vt 0.2148 0.7695
vt 0.1602 0.7227
vt 0.2148 0.7227
vt 0.1602 0.7695
vt 0.1602 0.7227
vt 0.2148 0.7227
vt 0.2148 0.7695
vt 0.1602 0.7695
vt 0.2148 0.7695
vt 0.1602 0.7227
vt 0.2148 0.7227
vt 0.1602 0.7695
vt 0.2148 0.7695
vt 0.9648 0.9961
vt 0.9648 0.9336
vt 0.9688 0.9336
vt 0.9688 0.9961
vt 0.9492 0.9688
vt 0.9609 0.9688
vt 0.9609 0.9727
vt 0.9492 0.9727
vt 0.9609 0.9844
vt 0.9492 0.9844
vt 0.9492 0.9805
vt 0.9609 0.9805
vt 0.9766 0.9961
vt 0.9766 0.9336
vt 0.9805 0.9336
vt 0.9805 0.9961
vt 0.9883 0.9961
vt 0.9883 0.9336
vt 0.9609 0.9336
vt 0.9609 0.9961
vt 0.9844 0.9961
vt 0.9961 0.9961
vt 0.9961 0.9336
vt 0.9844 0.9336
vt 0.9609 0.9570
vt 0.9492 0.9570
vt 0.9492 0.9609
vt 0.9609 0.9609
vt 0.9492 0.9492
vt 0.9609 0.9492
vt 0.9609 0.9453
vt 0.9492 0.9453
vt 0.9492 0.9961
vt 0.9492 0.9336
vt 0.9531 0.9336
vt 0.9531 0.9961
vt 0.1602 0.7695
vt 0.1602 0.7227
vt 0.1602 0.7227
vt 0.1602 0.7695
vt 0.1602 0.7227
vt 0.1602 0.7695
vt 0.1602 0.7227
vt 0.1602 0.7695
vt 0.9648 0.9961
vt 0.9688 0.9961
vt 0.9688 0.9336
vt 0.9648 0.9336
vt 0.9492 0.9688
vt 0.9492 0.9727
vt 0.9609 0.9727
vt 0.9609 0.9688
vt 0.9609 0.9844
vt 0.9609 0.9805
vt 0.9492 0.9805
vt 0.9492 0.9844
vt 0.9766 0.9961
vt 0.9766 0.9336
vt 0.9805 0.9336
vt 0.9805 0.9961
vt 0.9883 0.9961
vt 0.9883 0.9336
vt 0.9609 0.9961
vt 0.9609 0.9336
vt 0.9961 0.9961
vt 0.9961 0.9336
vt 0.9609 0.9570
vt 0.9609 0.9609
vt 0.9492 0.9492
vt 0.9492 0.9453
vt 0.9492 0.9961
vt 0.9492 0.9336
vt 0.9531 0.9336
vt 0.9531 0.9961
vt 0.1602 0.7695
vt 0.2148 0.7695
vt 0.2148 0.7227
vt 0.1602 0.7227
vt 0.1602 0.7227
vt 0.2148 0.7227
vt 0.1602 0.7695
vt 0.2148 0.7695
vt 0.2148 0.7227
vt 0.1602 0.7227
vt 0.2148 0.7695
vt 0.1602 0.7695
vt 0.2148 0.7227
vt 0.1602 0.7227
vt 0.2148 0.7695
vt 0.1602 0.7695
vt 0.9648 0.9961
vt 0.9688 0.9961
vt 0.9688 0.9336
vt 0.9648 0.9336
vt 0.9492 0.9688
vt 0.9492 0.9727
vt 0.9609 0.9727
vt 0.9609 0.9688
vt 0.9609 0.9844
vt 0.9609 0.9805
vt 0.9492 0.9805
vt 0.9492 0.9844
vt 0.9766 0.9961
vt 0.9766 0.9336
vt 0.9805 0.9336
vt 0.9805 0.9961
vt 0.9883 0.9961
vt 0.9883 0.9336
vt 0.9961 0.9336
vt 0.9961 0.9961
vt 0.9609 0.9570
vt 0.9609 0.9609
vt 0.9492 0.9492
vt 0.9492 0.9453
vt 0.9492 0.9961
vt 0.9531 0.9961
vt 0.9531 0.9336
vt 0.9492 0.9336
vt 0.1602 0.7695
vt 0.1602 0.7227
vt 0.1602 0.7227
vt 0.1602 0.7695
vt 0.1602 0.7227
vt 0.1602 0.7695
vt 0.1602 0.7227
vt 0.1602 0.7695
vt 0.9648 0.9961
vt 0.9648 0.9336
vt 0.9688 0.9336
vt 0.9688 0.9961
vt 0.9492 0.9688
vt 0.9609 0.9688
vt 0.9609 0.9727
vt 0.9492 0.9727
vt 0.9609 0.9844
vt 0.9492 0.9844
vt 0.9492 0.9805
vt 0.9609 0.9805
vt 0.9766 0.9961
vt 0.9766 0.9336
vt 0.9805 0.9336
vt 0.9805 0.9961
vt 0.9883 0.9961
vt 0.9883 0.9336
vn 1.0000 0.0000 0.0000
vn 0.0000 -1.0000 0.0000
vn -0.0000 1.0000 0.0000
vn 0.0000 0.0000 -1.0000
vn 0.0000 0.0000 1.0000
vn -1.0000 0.0000 -0.0000
usemtl Conveyor
s off
f 83/41/13 84/42/13 30/43/13 32/44/13
f 29/45/14 30/46/14 84/47/14 81/48/14
f 32/49/15 31/50/15 82/51/15 83/52/15
f 31/53/16 32/54/16 30/55/16 29/56/16
f 40/57/14 37/58/14 65/59/14 68/60/14
f 39/61/17 40/57/17 68/60/17 67/62/17
f 35/63/17 36/64/17 60/65/17 59/66/17
f 36/64/14 33/67/14 57/68/14 60/65/14
f 33/67/16 34/69/16 58/70/16 57/68/16
f 34/69/15 35/63/15 59/66/15 58/70/15
f 37/58/16 38/71/16 66/72/16 65/59/16
f 38/71/15 39/61/15 67/62/15 66/72/15
f 47/73/13 48/74/13 42/75/13 44/76/13
f 41/77/14 42/78/14 48/79/14 45/80/14
f 44/81/15 43/82/15 46/83/15 47/84/15
f 43/85/16 44/76/16 42/75/16 41/86/16
f 45/87/18 46/88/18 43/85/18 41/86/18
f 47/89/17 46/88/17 45/87/17 48/90/17
f 29/56/18 81/91/18 82/92/18 31/53/18
f 107/93/18 52/94/18 50/95/18 108/96/18
f 49/97/14 105/98/14 108/99/14 50/100/14
f 52/101/15 107/102/15 106/103/15 51/104/15
f 51/105/16 49/106/16 50/107/16 52/108/16
f 64/109/14 68/60/14 65/59/14 61/110/14
f 63/111/17 67/62/17 68/60/17 64/109/17
f 55/112/17 59/66/17 60/65/17 56/113/17
f 56/113/14 60/65/14 57/68/14 53/114/14
f 53/114/16 57/68/16 58/70/16 54/115/16
f 54/115/15 58/70/15 59/66/15 55/112/15
f 61/110/16 65/59/16 66/72/16 62/116/16
f 62/116/15 66/72/15 67/62/15 63/111/15
f 75/117/18 72/118/18 70/119/18 76/120/18
f 69/121/14 73/122/14 76/123/14 70/124/14
f 72/125/15 75/126/15 74/127/15 71/128/15
f 71/129/16 69/130/16 70/119/16 72/118/16
f 73/131/13 69/130/13 71/129/13 74/132/13
f 75/133/17 76/134/17 73/131/17 74/132/17
f 49/106/13 51/105/13 106/135/13 105/136/13
f 83/41/13 80/137/13 78/138/13 84/42/13
f 77/139/14 81/48/14 84/47/14 78/140/14
f 80/141/15 83/52/15 82/51/15 79/142/15
f 79/143/17 77/144/17 78/145/17 80/146/17
f 92/147/14 124/148/14 121/149/14 89/150/14
f 91/151/16 123/152/16 124/148/16 92/147/16
f 87/153/16 115/154/16 116/155/16 88/156/16
f 88/156/14 116/155/14 113/157/14 85/158/14
f 85/158/17 113/157/17 114/159/17 86/160/17
f 86/160/15 114/159/15 115/154/15 87/153/15
f 89/150/17 121/149/17 122/161/17 90/162/17
f 90/162/15 122/161/15 123/152/15 91/151/15
f 99/163/13 96/164/13 94/165/13 100/166/13
f 93/167/14 97/168/14 100/169/14 94/170/14
f 96/171/15 99/172/15 98/173/15 95/174/15
f 95/175/17 93/176/17 94/165/17 96/164/17
f 97/177/18 93/176/18 95/175/18 98/178/18
f 99/179/16 100/180/16 97/177/16 98/178/16
f 77/144/18 79/143/18 82/92/18 81/91/18
f 107/93/18 108/96/18 102/181/18 104/182/18
f 101/183/14 102/184/14 108/99/14 105/98/14
f 104/185/15 103/186/15 106/103/15 107/102/15
f 103/187/17 104/188/17 102/189/17 101/190/17
f 120/191/14 117/192/14 121/149/14 124/148/14
f 119/193/16 120/191/16 124/148/16 123/152/16
f 111/194/16 112/195/16 116/155/16 115/154/16
f 112/195/14 109/196/14 113/157/14 116/155/14
f 109/196/17 110/197/17 114/159/17 113/157/17
f 110/197/15 111/194/15 115/154/15 114/159/15
f 117/192/17 118/198/17 122/161/17 121/149/17
f 118/198/15 119/193/15 123/152/15 122/161/15
f 131/199/18 132/200/18 126/201/18 128/202/18
f 125/203/14 126/204/14 132/205/14 129/206/14
f 128/207/15 127/208/15 130/209/15 131/210/15
f 127/211/17 128/202/17 126/201/17 125/212/17
f 129/213/13 130/214/13 127/211/13 125/212/13
f 131/215/16 130/214/16 129/213/16 132/216/16
f 101/190/13 105/136/13 106/135/13 103/187/13
