# Blender v2.74 (sub 0) OBJ File: 'conveyor_chute.blend'
# www.blender.org
mtllib conveyor_chute.mtl
o Support_Alu_smdl_alu
v 0.150003 0.100000 1.000000
v 0.119692 0.100000 1.000000
v 0.150003 -0.000000 1.000000
v 0.119692 -0.000000 1.000000
v 0.100003 0.050000 1.000000
v 0.103872 0.075000 1.000000
v 0.103872 0.025000 1.000000
v 0.150003 0.100000 0.875000
v 0.119692 0.100000 0.875000
v 0.150003 0.350000 0.625000
v 0.150003 0.100000 1.000000
v 0.119692 0.100000 1.000000
v 0.119692 0.350000 0.625000
v 0.150000 0.018000 0.832000
v 0.150000 0.018000 0.768000
v 0.150000 0.082000 0.832000
v 0.150000 0.082000 0.768000
v 0.150000 0.018000 0.532000
v 0.150000 0.082000 0.532000
v 0.119692 0.050000 1.000000
v 0.850001 0.100000 1.000000
v 0.880313 0.100000 1.000000
v 0.850001 -0.000000 1.000000
v 0.880313 -0.000000 1.000000
v 0.900001 0.050000 1.000000
v 0.896132 0.075000 1.000000
v 0.896132 0.025000 1.000000
v 0.849997 0.100000 1.000000
v 0.880308 0.100000 1.000000
v 0.849997 -0.000000 1.000000
v 0.880308 -0.000000 1.000000
v 0.899997 0.050000 1.000000
v 0.896128 0.075000 1.000000
v 0.896128 0.025000 1.000000
v 0.849997 0.100000 0.875000
v 0.880308 0.100000 0.875000
v 0.849997 0.350000 0.625000
v 0.849997 0.100000 1.000000
v 0.880308 0.100000 1.000000
v 0.880308 0.350000 0.625000
v 0.850000 0.018000 0.832000
v 0.850000 0.018000 0.768000
v 0.500000 0.018000 0.768000
v 0.500000 0.018000 0.832000
v 0.850000 0.082000 0.832000
v 0.850000 0.082000 0.768000
v 0.500000 0.082000 0.768000
v 0.500000 0.082000 0.832000
v 0.850000 0.018000 0.532000
v 0.500000 0.018000 0.532000
v 0.850000 0.082000 0.532000
v 0.500000 0.082000 0.532000
v 0.880308 0.050000 1.000000
v 0.149999 0.100000 1.000000
v 0.119687 0.100000 1.000000
v 0.149999 -0.000000 1.000000
v 0.119687 -0.000000 1.000000
v 0.099999 0.050000 1.000000
v 0.103868 0.075000 1.000000
v 0.103868 0.025000 1.000000
v 0.150003 0.100000 0.000000
v 0.150003 0.100000 0.500000
v 0.119692 0.100000 0.500000
v 0.119692 0.100000 0.000000
v 0.150003 -0.000000 0.000000
v 0.150003 -0.000000 0.500000
v 0.119692 -0.000000 0.500000
v 0.119692 -0.000000 0.000000
v 0.100003 0.050000 0.500000
v 0.100003 0.050000 0.000000
v 0.103872 0.075000 0.500000
v 0.103872 0.075000 0.000000
v 0.103872 0.025000 0.500000
v 0.103872 0.025000 0.000000
v 0.150003 0.350000 0.500000
v 0.150003 0.100000 0.125000
v 0.119692 0.100000 0.125000
v 0.119692 0.350000 0.500000
v 0.150003 0.350000 0.375000
v 0.150003 0.100000 0.000000
v 0.119692 0.100000 0.000000
v 0.119692 0.350000 0.375000
v 0.150000 0.018000 0.168000
v 0.150000 0.018000 0.232000
v 0.150000 0.082000 0.168000
v 0.150000 0.082000 0.232000
v 0.150000 0.018000 0.468000
v 0.150000 0.018000 0.500000
v 0.150000 0.082000 0.468000
v 0.150000 0.082000 0.500000
v 0.119692 0.050000 0.000000
v 0.850001 0.100000 0.000000
v 0.880313 0.100000 0.000000
v 0.850001 -0.000000 0.000000
v 0.880313 -0.000000 0.000000
v 0.900001 0.050000 0.000000
v 0.896132 0.075000 0.000000
v 0.896132 0.025000 0.000000
v 0.849997 0.100000 0.000000
v 0.849997 0.100000 0.500000
v 0.880308 0.100000 0.500000
v 0.880308 0.100000 0.000000
v 0.849997 -0.000000 0.000000
v 0.849997 -0.000000 0.500000
v 0.880308 -0.000000 0.500000
v 0.880308 -0.000000 0.000000
v 0.899997 0.050000 0.500000
v 0.899997 0.050000 0.000000
v 0.896128 0.075000 0.500000
v 0.896128 0.075000 0.000000
v 0.896128 0.025000 0.500000
v 0.896128 0.025000 0.000000
v 0.849997 0.350000 0.500000
v 0.849997 0.100000 0.125000
v 0.880308 0.100000 0.125000
v 0.880308 0.350000 0.500000
v 0.849997 0.350000 0.375000
v 0.849997 0.100000 0.000000
v 0.880308 0.100000 0.000000
v 0.880308 0.350000 0.375000
v 0.850000 0.018000 0.168000
v 0.850000 0.018000 0.232000
v 0.500000 0.018000 0.232000
v 0.500000 0.018000 0.168000
v 0.850000 0.082000 0.168000
v 0.850000 0.082000 0.232000
v 0.500000 0.082000 0.232000
v 0.500000 0.082000 0.168000
v 0.850000 0.018000 0.468000
v 0.850000 0.018000 0.500000
v 0.500000 0.018000 0.500000
v 0.500000 0.018000 0.468000
v 0.850000 0.082000 0.468000
v 0.850000 0.082000 0.500000
v 0.500000 0.082000 0.500000
v 0.500000 0.082000 0.468000
v 0.880308 0.050000 0.000000
v 0.149999 0.100000 0.000000
v 0.119687 0.100000 0.000000
v 0.149999 -0.000000 0.000000
v 0.119687 -0.000000 0.000000
v 0.099999 0.050000 0.000000
v 0.103868 0.075000 0.000000
v 0.103868 0.025000 0.000000
vt 0.214844 0.753906
vt 0.160156 0.753906
vt 0.160156 0.761719
vt 0.214844 0.761719
vt 0.160156 0.722656
vt 0.214844 0.722656
vt 0.214844 0.769531
vt 0.160156 0.769531
vt 0.160156 0.730469
vt 0.214844 0.730469
vt 0.214844 0.738281
vt 0.160156 0.738281
vt 0.160156 0.746094
vt 0.214844 0.746094
vt 0.191406 0.722656
vt 0.183594 0.769531
vt 0.183594 0.722656
vt 0.191406 0.769531
vt 0.160156 0.742188
vt 0.214844 0.742188
vt 0.214844 0.750000
vt 0.160156 0.750000
vt 0.179688 0.765625
vt 0.179688 0.746094
vt 0.195312 0.765625
vt 0.171875 0.753906
vt 0.171875 0.746094
vt 0.179688 0.726562
vt 0.171875 0.738281
vt 0.195312 0.726562
vn -0.845000 0.534700 0.000000
vn 1.000000 0.000000 0.000000
vn 0.000000 1.000000 0.000000
vn 0.000000 -1.000000 0.000000
vn -0.988200 -0.152900 0.000000
vn -0.988200 0.152900 0.000000
vn -0.845000 -0.534700 0.000000
vn 0.000000 -0.832100 -0.554700
vn 0.000000 0.832100 0.554700
vn -1.000000 0.000000 0.000000
vn 0.000000 0.000000 1.000000
vn 0.000000 0.000000 -1.000000
vn 0.845000 0.534700 0.000000
vn 0.988200 -0.152900 0.000000
vn 0.988200 0.152900 0.000000
vn 0.845000 -0.534700 0.000000
vn 0.000000 -0.832100 0.554700
vn 0.000000 0.832100 -0.554700
usemtl Conveyor
s off
f 71/1/1 6/2/1 2/3/1 63/4/1
f 3/5/2 66/6/2 62/7/2 1/8/2
f 1/8/3 62/7/3 63/4/3 2/3/3
f 4/9/4 67/10/4 66/6/4 3/5/4
f 73/11/5 7/12/5 5/13/5 69/14/5
f 69/14/6 5/13/6 6/2/6 71/1/6
f 67/10/7 4/9/7 7/12/7 73/11/7
f 10/15/2 11/5/2 8/16/2 75/7/2
f 75/7/8 8/16/8 9/17/8 78/6/8
f 13/18/9 12/8/9 11/5/9 10/15/9
f 12/8/10 13/18/10 78/6/10 9/17/10
f 48/7/11 16/8/11 14/5/11 44/6/11
f 17/5/12 47/6/12 43/7/12 15/8/12
f 14/5/4 15/8/4 43/7/4 44/6/4
f 48/7/3 47/6/3 17/5/3 16/8/3
f 52/7/11 19/8/11 18/5/11 50/6/11
f 18/5/4 88/19/4 131/20/4 50/6/4
f 52/7/3 135/21/3 90/22/3 19/8/3
f 2/23/11 20/24/11 1/25/11
f 2/23/11 6/26/11 5/27/11 20/24/11
f 4/28/11 20/24/11 5/27/11 7/29/11
f 3/30/11 20/24/11 4/28/11
f 3/30/11 1/25/11 20/24/11
f 109/1/13 101/4/13 29/3/13 33/2/13
f 30/5/10 28/8/10 100/7/10 104/6/10
f 28/8/3 29/3/3 101/4/3 100/7/3
f 31/9/4 30/5/4 104/6/4 105/10/4
f 111/11/14 107/14/14 32/13/14 34/12/14
f 107/14/15 109/1/15 33/2/15 32/13/15
f 105/10/16 111/11/16 34/12/16 31/9/16
f 37/15/10 113/7/10 35/16/10 38/5/10
f 113/7/8 116/6/8 36/17/8 35/16/8
f 40/18/9 37/15/9 38/5/9 39/8/9
f 39/8/2 36/17/2 116/6/2 40/18/2
f 48/7/11 44/6/11 41/5/11 45/8/11
f 46/5/12 42/8/12 43/7/12 47/6/12
f 41/5/4 44/6/4 43/7/4 42/8/4
f 48/7/3 45/8/3 46/5/3 47/6/3
f 52/7/11 50/6/11 49/5/11 51/8/11
f 49/5/4 50/6/4 131/20/4 130/19/4
f 52/7/3 51/8/3 134/22/3 135/21/3
f 29/23/11 28/25/11 53/24/11
f 29/23/11 53/24/11 32/27/11 33/26/11
f 31/28/11 34/29/11 32/27/11 53/24/11
f 30/30/11 31/28/11 53/24/11
f 30/30/11 53/24/11 28/25/11
f 71/1/1 63/4/1 64/3/1 72/2/1
f 65/5/2 61/8/2 62/7/2 66/6/2
f 61/8/3 64/3/3 63/4/3 62/7/3
f 68/9/4 65/5/4 66/6/4 67/10/4
f 73/11/5 69/14/5 70/13/5 74/12/5
f 69/14/6 71/1/6 72/2/6 70/13/6
f 67/10/7 73/11/7 74/12/7 68/9/7
f 79/15/2 75/7/2 76/16/2 80/5/2
f 75/7/17 78/6/17 77/17/17 76/16/17
f 82/18/18 79/15/18 80/5/18 81/8/18
f 81/8/10 77/17/10 78/6/10 82/18/10
f 128/7/12 124/6/12 83/5/12 85/8/12
f 86/5/11 84/8/11 123/7/11 127/6/11
f 83/5/4 124/6/4 123/7/4 84/8/4
f 128/7/3 85/8/3 86/5/3 127/6/3
f 136/7/12 132/6/12 87/5/12 89/8/12
f 87/5/4 132/6/4 131/20/4 88/19/4
f 136/7/3 89/8/3 90/22/3 135/21/3
f 64/23/12 61/25/12 91/24/12
f 64/23/12 91/24/12 70/27/12 72/26/12
f 68/28/12 74/29/12 70/27/12 91/24/12
f 65/30/12 68/28/12 91/24/12
f 65/30/12 91/24/12 61/25/12
f 109/1/13 110/2/13 102/3/13 101/4/13
f 103/5/10 104/6/10 100/7/10 99/8/10
f 99/8/3 100/7/3 101/4/3 102/3/3
f 106/9/4 105/10/4 104/6/4 103/5/4
f 111/11/14 112/12/14 108/13/14 107/14/14
f 107/14/15 108/13/15 110/2/15 109/1/15
f 105/10/16 106/9/16 112/12/16 111/11/16
f 117/15/10 118/5/10 114/16/10 113/7/10
f 113/7/17 114/16/17 115/17/17 116/6/17
f 120/18/18 119/8/18 118/5/18 117/15/18
f 119/8/2 120/18/2 116/6/2 115/17/2
f 128/7/12 125/8/12 121/5/12 124/6/12
f 126/5/11 127/6/11 123/7/11 122/8/11
f 121/5/4 122/8/4 123/7/4 124/6/4
f 128/7/3 127/6/3 126/5/3 125/8/3
f 136/7/12 133/8/12 129/5/12 132/6/12
f 129/5/4 130/19/4 131/20/4 132/6/4
f 136/7/3 135/21/3 134/22/3 133/8/3
f 102/23/12 137/24/12 99/25/12
f 102/23/12 110/26/12 108/27/12 137/24/12
f 106/28/12 137/24/12 108/27/12 112/29/12
f 103/30/12 137/24/12 106/28/12
f 103/30/12 99/25/12 137/24/12
o Chute_cchmdl
v 0.849999 0.000000 0.849999
v 1.000000 0.500000 1.000000
v 1.000000 0.400000 1.000000
v 0.849999 0.200000 0.849999
v 0.849999 0.400000 0.849999
v 0.849999 0.500000 0.849999
v 0.729040 0.325523 0.729040
v 0.849999 0.000000 0.150001
v 1.000000 0.500000 -0.000000
v 1.000000 0.400000 -0.000000
v 0.849999 0.200000 0.150001
v 0.849999 0.400000 0.150001
v 0.849999 0.500000 0.150001
v 0.729040 0.325523 0.270960
v 0.500000 0.000000 0.500000
v 0.150001 0.000000 0.849999
v 0.150001 0.000000 0.150001
v 0.000000 0.500000 1.000000
v 0.000000 0.500000 0.000000
v 0.000000 0.400000 1.000000
v 0.000000 0.400000 0.000000
v 0.150001 0.200000 0.849999
v 0.150001 0.200000 0.150001
v 0.150001 0.400000 0.849999
v 0.150001 0.400000 0.150001
v 0.150001 0.500000 0.849999
v 0.150001 0.500000 0.150001
v 0.270960 0.325523 0.270960
v 0.270960 0.325523 0.729040
v 0.500000 0.325523 0.500000
vt 0.816406 0.699219
vt 0.816406 0.628906
vt 0.835938 0.628906
vt 0.835938 0.699219
vt 0.851562 0.664062
vt 0.875000 0.687500
vt 0.875000 0.640625
vt 0.761719 0.714844
vt 0.761719 0.613281
vt 0.921875 0.613281
vt 0.921875 0.714844
vt 0.910156 0.707031
vt 0.910156 0.625000
vt 0.750000 0.714844
vt 0.750000 0.613281
vt 0.902344 0.707031
vt 0.902344 0.625000
vn 1.000000 0.000000 0.000000
vn 0.000000 -1.000000 0.000000
vn 0.000000 1.000000 0.000000
vn 0.800000 -0.600000 0.000000
vn -1.000000 0.000000 0.000000
vn -0.524300 0.851500 0.000000
vn -0.000000 0.000000 1.000000
vn -0.000000 -0.600000 0.800000
vn 0.000000 0.000000 -1.000000
vn 0.000000 0.851500 -0.524300
vn -0.000000 -0.600000 -0.800000
vn 0.000000 0.851500 0.524300
vn -0.800000 -0.600000 0.000000
vn 0.524300 0.851500 0.000000
usemtl Conveyor
s off
f 155/31/19 148/32/19 145/33/19 152/34/19
f 159/35/20 152/34/20 145/33/20
f 158/36/21 174/35/21 151/37/21
f 154/38/22 147/39/22 148/32/22 155/31/22
f 146/40/21 153/41/21 157/42/21 150/43/21
f 153/44/19 146/45/19 147/39/19 154/38/19
f 150/43/23 157/42/23 156/46/23 149/47/23
f 149/47/24 156/46/24 158/36/24 151/37/24
f 166/31/25 160/34/25 145/33/25 148/32/25
f 159/35/20 145/33/20 160/34/20
f 173/36/21 151/37/21 174/35/21
f 164/38/26 166/31/26 148/32/26 147/39/26
f 146/40/21 150/43/21 170/42/21 162/41/21
f 162/44/25 164/38/25 147/39/25 146/45/25
f 150/43/27 149/47/27 168/46/27 170/42/27
f 149/47/28 151/37/28 173/36/28 168/46/28
f 155/31/27 152/34/27 161/33/27 167/32/27
f 159/35/20 161/33/20 152/34/20
f 158/36/21 172/37/21 174/35/21
f 154/38/29 155/31/29 167/32/29 165/39/29
f 163/40/21 171/43/21 157/42/21 153/41/21
f 153/44/27 154/38/27 165/39/27 163/45/27
f 171/43/25 169/47/25 156/46/25 157/42/25
f 169/47/30 172/37/30 158/36/30 156/46/30
f 166/31/23 167/32/23 161/33/23 160/34/23
f 159/35/20 160/34/20 161/33/20
f 173/36/21 174/35/21 172/37/21
f 164/38/31 165/39/31 167/32/31 166/31/31
f 163/40/21 162/41/21 170/42/21 171/43/21
f 162/44/23 163/45/23 165/39/23 164/38/23
f 171/43/19 170/42/19 168/46/19 169/47/19
f 169/47/32 168/46/32 173/36/32 172/37/32
