# Blender v2.74 (sub 0) OBJ File: 'conveyor_hopper.blend'
# www.blender.org
mtllib conveyor_hopper.mtl
o ConveyorHopper_chmdl
v 0.725000 0.000000 0.725000
v 1.000000 0.500000 1.000000
v 1.000000 0.400000 1.000000
v 0.725000 0.200000 0.725000
v 0.900000 0.500000 0.900000
v 0.900000 0.400000 0.900000
v 0.725000 0.000000 0.275000
v 1.000000 0.500000 -0.000000
v 1.000000 0.400000 -0.000000
v 0.725000 0.200000 0.275000
v 0.900000 0.500000 0.100000
v 0.900000 0.400000 0.100000
v 0.500000 0.000000 0.500000
v 0.275000 0.000000 0.725000
v 0.275000 0.000000 0.275000
v 0.000000 0.500000 1.000000
v 0.000000 0.500000 0.000000
v 0.000000 0.400000 1.000000
v 0.000000 0.400000 0.000000
v 0.275000 0.200000 0.725000
v 0.275000 0.200000 0.275000
v 0.100000 0.500000 0.900000
v 0.100000 0.500000 0.100000
v 0.100000 0.400000 0.900000
v 0.100000 0.400000 0.100000
v 0.500000 0.144366 0.500000
vt 0.437500 0.687500
vt 0.437500 0.640625
vt 0.457031 0.640625
vt 0.457031 0.687500
vt 0.414062 0.710938
vt 0.414062 0.617188
vt 0.402344 0.710938
vt 0.402344 0.617188
vt 0.515625 0.628906
vt 0.515625 0.699219
vt 0.480469 0.664062
vt 0.539062 0.617188
vt 0.539062 0.710938
vt 0.527344 0.699219
vt 0.527344 0.628906
vn 1.000000 0.000000 0.000000
vn 0.588200 -0.808700 0.000000
vn -0.538500 0.842600 0.000000
vn 0.000000 -1.000000 0.000000
vn 0.000000 1.000000 0.000000
vn -1.000000 0.000000 0.000000
vn 0.000000 0.000000 1.000000
vn 0.000000 -0.808700 0.588200
vn 0.000000 0.842600 -0.538500
vn 0.000000 0.000000 -1.000000
vn -0.000000 -0.808700 -0.588200
vn 0.000000 0.842600 0.538500
vn -0.588200 -0.808700 0.000000
vn 0.538500 0.842600 -0.000000
usemtl Conveyor
s off
f 10/1/1 4/2/1 1/3/1 7/4/1
f 9/5/2 3/6/2 4/2/2 10/1/2
f 8/7/1 2/8/1 3/6/1 9/5/1
f 6/9/3 12/10/3 26/11/3
f 13/11/4 7/4/4 1/3/4
f 2/12/5 8/13/5 11/14/5 5/15/5
f 12/10/6 6/9/6 5/15/6 11/14/6
f 20/1/7 14/4/7 1/3/7 4/2/7
f 18/5/8 20/1/8 4/2/8 3/6/8
f 16/7/7 18/5/7 3/6/7 2/8/7
f 6/9/9 26/11/9 24/10/9
f 13/11/4 1/3/4 14/4/4
f 2/12/5 5/15/5 22/14/5 16/13/5
f 24/10/10 22/14/10 5/15/10 6/9/10
f 10/1/10 7/4/10 15/3/10 21/2/10
f 9/5/11 10/1/11 21/2/11 19/6/11
f 8/7/10 9/5/10 19/6/10 17/8/10
f 25/9/12 26/11/12 12/10/12
f 13/11/4 15/3/4 7/4/4
f 17/12/5 23/15/5 11/14/5 8/13/5
f 12/10/7 11/14/7 23/15/7 25/9/7
f 20/1/6 21/2/6 15/3/6 14/4/6
f 18/5/13 19/6/13 21/2/13 20/1/13
f 16/7/6 17/8/6 19/6/6 18/5/6
f 25/9/14 24/10/14 26/11/14
f 13/11/4 14/4/4 15/3/4
f 17/12/5 16/13/5 22/14/5 23/15/5
f 24/10/1 25/9/1 23/15/1 22/14/1
o Support_Alu_smdl_alu
v 0.150003 0.100000 1.000000
v 0.119692 0.100000 1.000000
v 0.150003 -0.000000 1.000000
v 0.119692 -0.000000 1.000000
v 0.100003 0.050000 1.000000
v 0.103872 0.075000 1.000000
v 0.103872 0.025000 1.000000
v 0.150003 0.100000 0.875000
v 0.119692 0.100000 0.875000
v 0.150003 0.350000 0.625000
v 0.150003 0.100000 1.000000
v 0.119692 0.100000 1.000000
v 0.119692 0.350000 0.625000
v 0.150000 0.018000 0.832000
v 0.150000 0.018000 0.768000
v 0.150000 0.082000 0.832000
v 0.150000 0.082000 0.768000
v 0.150000 0.018000 0.532000
v 0.150000 0.082000 0.532000
v 0.119692 0.050000 1.000000
v 0.850001 0.100000 1.000000
v 0.880313 0.100000 1.000000
v 0.850001 -0.000000 1.000000
v 0.880313 -0.000000 1.000000
v 0.900001 0.050000 1.000000
v 0.896132 0.075000 1.000000
v 0.896132 0.025000 1.000000
v 0.849997 0.100000 1.000000
v 0.880308 0.100000 1.000000
v 0.849997 -0.000000 1.000000
v 0.880308 -0.000000 1.000000
v 0.899997 0.050000 1.000000
v 0.896128 0.075000 1.000000
v 0.896128 0.025000 1.000000
v 0.849997 0.100000 0.875000
v 0.880308 0.100000 0.875000
v 0.849997 0.350000 0.625000
v 0.849997 0.100000 1.000000
v 0.880308 0.100000 1.000000
v 0.880308 0.350000 0.625000
v 0.850000 0.018000 0.832000
v 0.850000 0.018000 0.768000
v 0.500000 0.018000 0.768000
v 0.500000 0.018000 0.832000
v 0.850000 0.082000 0.832000
v 0.850000 0.082000 0.768000
v 0.500000 0.082000 0.768000
v 0.500000 0.082000 0.832000
v 0.850000 0.018000 0.532000
v 0.500000 0.018000 0.532000
v 0.850000 0.082000 0.532000
v 0.500000 0.082000 0.532000
v 0.880308 0.050000 1.000000
v 0.149999 0.100000 1.000000
v 0.119687 0.100000 1.000000
v 0.149999 -0.000000 1.000000
v 0.119687 -0.000000 1.000000
v 0.099999 0.050000 1.000000
v 0.103868 0.075000 1.000000
v 0.103868 0.025000 1.000000
v 0.150003 0.100000 0.000000
v 0.150003 0.100000 0.500000
v 0.119692 0.100000 0.500000
v 0.119692 0.100000 0.000000
v 0.150003 -0.000000 0.000000
v 0.150003 -0.000000 0.500000
v 0.119692 -0.000000 0.500000
v 0.119692 -0.000000 0.000000
v 0.100003 0.050000 0.500000
v 0.100003 0.050000 0.000000
v 0.103872 0.075000 0.500000
v 0.103872 0.075000 0.000000
v 0.103872 0.025000 0.500000
v 0.103872 0.025000 0.000000
v 0.150003 0.350000 0.500000
v 0.150003 0.100000 0.125000
v 0.119692 0.100000 0.125000
v 0.119692 0.350000 0.500000
v 0.150003 0.350000 0.375000
v 0.150003 0.100000 0.000000
v 0.119692 0.100000 0.000000
v 0.119692 0.350000 0.375000
v 0.150000 0.018000 0.168000
v 0.150000 0.018000 0.232000
v 0.150000 0.082000 0.168000
v 0.150000 0.082000 0.232000
v 0.150000 0.018000 0.468000
v 0.150000 0.018000 0.500000
v 0.150000 0.082000 0.468000
v 0.150000 0.082000 0.500000
v 0.119692 0.050000 0.000000
v 0.850001 0.100000 0.000000
v 0.880313 0.100000 0.000000
v 0.850001 -0.000000 0.000000
v 0.880313 -0.000000 0.000000
v 0.900001 0.050000 0.000000
v 0.896132 0.075000 0.000000
v 0.896132 0.025000 0.000000
v 0.849997 0.100000 0.000000
v 0.849997 0.100000 0.500000
v 0.880308 0.100000 0.500000
v 0.880308 0.100000 0.000000
v 0.849997 -0.000000 0.000000
v 0.849997 -0.000000 0.500000
v 0.880308 -0.000000 0.500000
v 0.880308 -0.000000 0.000000
v 0.899997 0.050000 0.500000
v 0.899997 0.050000 0.000000
v 0.896128 0.075000 0.500000
v 0.896128 0.075000 0.000000
v 0.896128 0.025000 0.500000
v 0.896128 0.025000 0.000000
v 0.849997 0.350000 0.500000
v 0.849997 0.100000 0.125000
v 0.880308 0.100000 0.125000
v 0.880308 0.350000 0.500000
v 0.849997 0.350000 0.375000
v 0.849997 0.100000 0.000000
v 0.880308 0.100000 0.000000
v 0.880308 0.350000 0.375000
v 0.850000 0.018000 0.168000
v 0.850000 0.018000 0.232000
v 0.500000 0.018000 0.232000
v 0.500000 0.018000 0.168000
v 0.850000 0.082000 0.168000
v 0.850000 0.082000 0.232000
v 0.500000 0.082000 0.232000
v 0.500000 0.082000 0.168000
v 0.850000 0.018000 0.468000
v 0.850000 0.018000 0.500000
v 0.500000 0.018000 0.500000
v 0.500000 0.018000 0.468000
v 0.850000 0.082000 0.468000
v 0.850000 0.082000 0.500000
v 0.500000 0.082000 0.500000
v 0.500000 0.082000 0.468000
v 0.880308 0.050000 0.000000
v 0.149999 0.100000 0.000000
v 0.119687 0.100000 0.000000
v 0.149999 -0.000000 0.000000
v 0.119687 -0.000000 0.000000
v 0.099999 0.050000 0.000000
v 0.103868 0.075000 0.000000
v 0.103868 0.025000 0.000000
vt 0.214844 0.753906
vt 0.160156 0.753906
vt 0.160156 0.761719
vt 0.214844 0.761719
vt 0.160156 0.722656
vt 0.214844 0.722656
vt 0.214844 0.769531
vt 0.160156 0.769531
vt 0.160156 0.730469
vt 0.214844 0.730469
vt 0.214844 0.738281
vt 0.160156 0.738281
vt 0.160156 0.746094
vt 0.214844 0.746094
vt 0.191406 0.722656
vt 0.183594 0.769531
vt 0.183594 0.722656
vt 0.191406 0.769531
vt 0.160156 0.742188
vt 0.214844 0.742188
vt 0.214844 0.750000
vt 0.160156 0.750000
vt 0.179688 0.765625
vt 0.179688 0.746094
vt 0.195312 0.765625
vt 0.171875 0.753906
vt 0.171875 0.746094
vt 0.179688 0.726562
vt 0.171875 0.738281
vt 0.195312 0.726562
vn -0.845000 0.534700 0.000000
vn 1.000000 0.000000 0.000000
vn 0.000000 1.000000 0.000000
vn 0.000000 -1.000000 0.000000
vn -0.988200 -0.152900 0.000000
vn -0.988200 0.152900 0.000000
vn -0.845000 -0.534700 0.000000
vn 0.000000 -0.832100 -0.554700
vn 0.000000 0.832100 0.554700
vn -1.000000 0.000000 0.000000
vn 0.000000 0.000000 1.000000
vn 0.000000 0.000000 -1.000000
vn 0.845000 0.534700 0.000000
vn 0.988200 -0.152900 0.000000
vn 0.988200 0.152900 0.000000
vn 0.845000 -0.534700 0.000000
vn 0.000000 -0.832100 0.554700
vn 0.000000 0.832100 -0.554700
usemtl Conveyor
s off
f 97/16/15 32/17/15 28/18/15 89/19/15
f 29/20/16 92/21/16 88/22/16 27/23/16
f 27/23/17 88/22/17 89/19/17 28/18/17
f 30/24/18 93/25/18 92/21/18 29/20/18
f 99/26/19 33/27/19 31/28/19 95/29/19
f 95/29/20 31/28/20 32/17/20 97/16/20
f 93/25/21 30/24/21 33/27/21 99/26/21
f 36/30/16 37/20/16 34/31/16 101/22/16
f 101/22/22 34/31/22 35/32/22 104/21/22
f 39/33/23 38/23/23 37/20/23 36/30/23
f 38/23/24 39/33/24 104/21/24 35/32/24
f 74/22/25 42/23/25 40/20/25 70/21/25
f 43/20/26 73/21/26 69/22/26 41/23/26
f 40/20/18 41/23/18 69/22/18 70/21/18
f 74/22/17 73/21/17 43/20/17 42/23/17
f 78/22/25 45/23/25 44/20/25 76/21/25
f 44/20/18 114/34/18 157/35/18 76/21/18
f 78/22/17 161/36/17 116/37/17 45/23/17
f 28/38/25 46/39/25 27/40/25
f 28/38/25 32/41/25 31/42/25 46/39/25
f 30/43/25 46/39/25 31/42/25 33/44/25
f 29/45/25 46/39/25 30/43/25
f 29/45/25 27/40/25 46/39/25
f 135/16/27 127/19/27 55/18/27 59/17/27
f 56/20/24 54/23/24 126/22/24 130/21/24
f 54/23/17 55/18/17 127/19/17 126/22/17
f 57/24/18 56/20/18 130/21/18 131/25/18
f 137/26/28 133/29/28 58/28/28 60/27/28
f 133/29/29 135/16/29 59/17/29 58/28/29
f 131/25/30 137/26/30 60/27/30 57/24/30
f 63/30/24 139/22/24 61/31/24 64/20/24
f 139/22/22 142/21/22 62/32/22 61/31/22
f 66/33/23 63/30/23 64/20/23 65/23/23
f 65/23/16 62/32/16 142/21/16 66/33/16
f 74/22/25 70/21/25 67/20/25 71/23/25
f 72/20/26 68/23/26 69/22/26 73/21/26
f 67/20/18 70/21/18 69/22/18 68/23/18
f 74/22/17 71/23/17 72/20/17 73/21/17
f 78/22/25 76/21/25 75/20/25 77/23/25
f 75/20/18 76/21/18 157/35/18 156/34/18
f 78/22/17 77/23/17 160/37/17 161/36/17
f 55/38/25 54/40/25 79/39/25
f 55/38/25 79/39/25 58/42/25 59/41/25
f 57/43/25 60/44/25 58/42/25 79/39/25
f 56/45/25 57/43/25 79/39/25
f 56/45/25 79/39/25 54/40/25
f 97/16/15 89/19/15 90/18/15 98/17/15
f 91/20/16 87/23/16 88/22/16 92/21/16
f 87/23/17 90/18/17 89/19/17 88/22/17
f 94/24/18 91/20/18 92/21/18 93/25/18
f 99/26/19 95/29/19 96/28/19 100/27/19
f 95/29/20 97/16/20 98/17/20 96/28/20
f 93/25/21 99/26/21 100/27/21 94/24/21
f 105/30/16 101/22/16 102/31/16 106/20/16
f 101/22/31 104/21/31 103/32/31 102/31/31
f 108/33/32 105/30/32 106/20/32 107/23/32
f 107/23/24 103/32/24 104/21/24 108/33/24
f 154/22/26 150/21/26 109/20/26 111/23/26
f 112/20/25 110/23/25 149/22/25 153/21/25
f 109/20/18 150/21/18 149/22/18 110/23/18
f 154/22/17 111/23/17 112/20/17 153/21/17
f 162/22/26 158/21/26 113/20/26 115/23/26
f 113/20/18 158/21/18 157/35/18 114/34/18
f 162/22/17 115/23/17 116/37/17 161/36/17
f 90/38/26 87/40/26 117/39/26
f 90/38/26 117/39/26 96/42/26 98/41/26
f 94/43/26 100/44/26 96/42/26 117/39/26
f 91/45/26 94/43/26 117/39/26
f 91/45/26 117/39/26 87/40/26
f 135/16/27 136/17/27 128/18/27 127/19/27
f 129/20/24 130/21/24 126/22/24 125/23/24
f 125/23/17 126/22/17 127/19/17 128/18/17
f 132/24/18 131/25/18 130/21/18 129/20/18
f 137/26/28 138/27/28 134/28/28 133/29/28
f 133/29/29 134/28/29 136/17/29 135/16/29
f 131/25/30 132/24/30 138/27/30 137/26/30
f 143/30/24 144/20/24 140/31/24 139/22/24
f 139/22/31 140/31/31 141/32/31 142/21/31
f 146/33/32 145/23/32 144/20/32 143/30/32
f 145/23/16 146/33/16 142/21/16 141/32/16
f 154/22/26 151/23/26 147/20/26 150/21/26
f 152/20/25 153/21/25 149/22/25 148/23/25
f 147/20/18 148/23/18 149/22/18 150/21/18
f 154/22/17 153/21/17 152/20/17 151/23/17
f 162/22/26 159/23/26 155/20/26 158/21/26
f 155/20/18 156/34/18 157/35/18 158/21/18
f 162/22/17 161/36/17 160/37/17 159/23/17
f 128/38/26 163/39/26 125/40/26
f 128/38/26 136/41/26 134/42/26 163/39/26
f 132/43/26 163/39/26 134/42/26 138/44/26
f 129/45/26 163/39/26 132/43/26
f 129/45/26 125/40/26 163/39/26
l 47 49
l 52 48
l 50 49
l 47 48
l 53 50
l 52 51
l 53 51
l 80 82
l 85 81
l 83 82
l 80 81
l 86 83
l 85 84
l 86 84
l 118 120
l 123 119
l 121 120
l 118 119
l 124 121
l 123 122
l 124 122
l 164 166
l 169 165
l 167 166
l 164 165
l 170 167
l 169 168
l 170 168
