# Blender v2.74 (sub 0) OBJ File: 'creative_well.blend'
# www.blender.org
mtllib creative_well.mtl
o FlangePZ_pfmdl
v 0.725000 0.000000 0.725000
v 0.275000 0.000000 0.725000
v 0.275000 0.000000 0.275000
v 0.725000 0.000000 0.275000
v 0.725000 0.125000 0.275000
v 0.275000 0.125000 0.275000
v 0.275000 0.125000 0.725000
v 0.725000 0.125000 0.725000
v 0.275000 1.000000 0.725000
v 0.725000 1.000000 0.725000
v 0.725000 1.000000 0.275000
v 0.275000 1.000000 0.275000
v 0.275000 0.875000 0.275000
v 0.725000 0.875000 0.275000
v 0.725000 0.875000 0.725000
v 0.275000 0.875000 0.725000
v 0.000000 0.275000 0.725000
v 0.000000 0.725000 0.725000
v 0.000000 0.725000 0.275000
v 0.000000 0.275000 0.275000
v 0.125000 0.275000 0.275000
v 0.125000 0.725000 0.275000
v 0.125000 0.725000 0.725000
v 0.125000 0.275000 0.725000
v 0.275000 0.275000 -0.000000
v 0.275000 0.725000 -0.000000
v 0.725000 0.725000 0.000000
v 0.725000 0.275000 0.000000
v 0.725000 0.275000 0.125000
v 0.725000 0.725000 0.125000
v 0.275000 0.725000 0.125000
v 0.275000 0.275000 0.125000
v 1.000000 0.275000 0.275000
v 1.000000 0.725000 0.275000
v 1.000000 0.725000 0.725000
v 1.000000 0.275000 0.725000
v 0.875000 0.275000 0.725000
v 0.875000 0.725000 0.725000
v 0.875000 0.725000 0.275000
v 0.875000 0.275000 0.275000
v 0.725000 0.275000 1.000000
v 0.725000 0.725000 1.000000
v 0.275000 0.725000 1.000000
v 0.275000 0.275000 1.000000
v 0.275000 0.275000 0.875000
v 0.275000 0.725000 0.875000
v 0.725000 0.725000 0.875000
v 0.725000 0.275000 0.875000
vt 0.933594 0.847656
vt 0.898438 0.847656
vt 0.898438 0.812500
vt 0.933594 0.812500
vt 0.933594 0.855469
vt 0.898438 0.855469
vt 0.941406 0.812500
vt 0.941406 0.847656
vt 0.898438 0.804688
vt 0.933594 0.804688
vt 0.890625 0.847656
vt 0.890625 0.812500
vn 0.000000 -1.000000 0.000000
vn -1.000000 0.000000 0.000000
vn 0.000000 0.000000 1.000000
vn 1.000000 0.000000 0.000000
vn 0.000000 0.000000 -1.000000
vn 0.000000 1.000000 0.000000
usemtl Conveyor
s off
f 2/1/1 3/2/1 4/3/1 1/4/1
f 7/5/2 6/6/2 3/2/2 2/1/2
f 8/7/3 7/8/3 2/1/3 1/4/3
f 5/9/4 8/10/4 1/4/4 4/3/4
f 6/11/5 5/12/5 4/3/5 3/2/5
f 10/1/6 11/2/6 12/3/6 9/4/6
f 15/5/4 14/6/4 11/2/4 10/1/4
f 16/7/3 15/8/3 10/1/3 9/4/3
f 13/9/2 16/10/2 9/4/2 12/3/2
f 14/11/5 13/12/5 12/3/5 11/2/5
f 18/1/2 19/2/2 20/3/2 17/4/2
f 23/5/6 22/6/6 19/2/6 18/1/6
f 24/7/3 23/8/3 18/1/3 17/4/3
f 21/9/1 24/10/1 17/4/1 20/3/1
f 22/11/5 21/12/5 20/3/5 19/2/5
f 26/1/5 27/2/5 28/3/5 25/4/5
f 31/5/6 30/6/6 27/2/6 26/1/6
f 32/7/2 31/8/2 26/1/2 25/4/2
f 29/9/1 32/10/1 25/4/1 28/3/1
f 30/11/4 29/12/4 28/3/4 27/2/4
f 34/1/4 35/2/4 36/3/4 33/4/4
f 39/5/6 38/6/6 35/2/6 34/1/6
f 40/7/5 39/8/5 34/1/5 33/4/5
f 37/9/1 40/10/1 33/4/1 36/3/1
f 38/11/3 37/12/3 36/3/3 35/2/3
f 42/1/3 43/2/3 44/3/3 41/4/3
f 47/5/6 46/6/6 43/2/6 42/1/6
f 48/7/4 47/8/4 42/1/4 41/4/4
f 45/9/1 48/10/1 41/4/1 44/3/1
f 46/11/2 45/12/2 44/3/2 43/2/2
o Creative_Well_ccmdl
v 0.300000 0.900000 0.100000
v 0.100000 0.900000 0.300000
v 0.100000 0.700000 0.100000
v 0.100000 0.700000 0.300000
v 0.300000 0.700000 0.100000
v 0.300000 0.900000 0.300000
v 0.000000 1.000000 0.241767
v 0.000000 1.000000 0.000000
v 0.241767 1.000000 0.000000
v 0.000000 0.758233 0.000000
v 0.000000 0.758233 0.241767
v 0.241767 0.758233 0.000000
v 0.241767 1.000000 0.241767
v 0.500000 0.900000 0.100000
v 0.700000 0.900000 0.100000
v 0.900000 0.900000 0.300000
v 0.900000 0.700000 0.100000
v 0.900000 0.700000 0.300000
v 0.700000 0.700000 0.100000
v 0.700000 0.900000 0.300000
v 1.000000 1.000000 0.241767
v 1.000000 1.000000 0.000000
v 0.758233 1.000000 0.000000
v 1.000000 0.758233 0.000000
v 1.000000 0.758233 0.241767
v 0.758233 0.758233 0.000000
v 0.758233 1.000000 0.241767
v 0.100000 0.900000 0.500000
v 0.300000 0.900000 0.900000
v 0.100000 0.900000 0.700000
v 0.100000 0.700000 0.900000
v 0.100000 0.700000 0.700000
v 0.300000 0.700000 0.900000
v 0.300000 0.900000 0.700000
v 0.000000 1.000000 0.758233
v 0.000000 1.000000 1.000000
v 0.241767 1.000000 1.000000
v 0.000000 0.758233 1.000000
v 0.000000 0.758233 0.758233
v 0.241767 0.758233 1.000000
v 0.241767 1.000000 0.758233
v 0.500000 0.900000 0.900000
v 0.900000 0.900000 0.500000
v 0.700000 0.900000 0.900000
v 0.900000 0.900000 0.700000
v 0.900000 0.700000 0.900000
v 0.900000 0.700000 0.700000
v 0.700000 0.700000 0.900000
v 0.700000 0.900000 0.700000
v 1.000000 1.000000 0.758233
v 1.000000 1.000000 1.000000
v 0.758233 1.000000 1.000000
v 1.000000 0.758233 1.000000
v 1.000000 0.758233 0.758233
v 0.758233 0.758233 1.000000
v 0.758233 1.000000 0.758233
v 0.500000 0.900000 0.500000
v 0.100000 0.500000 0.100000
v 0.300000 0.100000 0.100000
v 0.100000 0.100000 0.300000
v 0.100000 0.300000 0.100000
v 0.100000 0.300000 0.300000
v 0.300000 0.300000 0.100000
v 0.300000 0.100000 0.300000
v 0.000000 0.000000 0.241767
v 0.000000 0.000000 0.000000
v 0.241767 0.000000 0.000000
v 0.000000 0.241767 0.000000
v 0.000000 0.241767 0.241767
v 0.241767 0.241767 0.000000
v 0.241767 0.000000 0.241767
v 0.500000 0.100000 0.100000
v 0.900000 0.500000 0.100000
v 0.700000 0.100000 0.100000
v 0.900000 0.100000 0.300000
v 0.900000 0.300000 0.100000
v 0.900000 0.300000 0.300000
v 0.700000 0.300000 0.100000
v 0.700000 0.100000 0.300000
v 1.000000 0.000000 0.241767
v 1.000000 0.000000 0.000000
v 0.758233 0.000000 0.000000
v 1.000000 0.241767 0.000000
v 1.000000 0.241767 0.241767
v 0.758233 0.241767 0.000000
v 0.758233 0.000000 0.241767
v 0.500000 0.500000 0.100000
v 0.100000 0.500000 0.500000
v 0.100000 0.500000 0.900000
v 0.100000 0.100000 0.500000
v 0.300000 0.100000 0.900000
v 0.100000 0.100000 0.700000
v 0.100000 0.300000 0.900000
v 0.100000 0.300000 0.700000
v 0.300000 0.300000 0.900000
v 0.300000 0.100000 0.700000
v 0.000000 0.000000 0.758233
v 0.000000 0.000000 1.000000
v 0.241767 0.000000 1.000000
v 0.000000 0.241767 1.000000
v 0.000000 0.241767 0.758233
v 0.241767 0.241767 1.000000
v 0.241767 0.000000 0.758233
v 0.500000 0.100000 0.900000
v 0.900000 0.500000 0.500000
v 0.900000 0.500000 0.900000
v 0.900000 0.100000 0.500000
v 0.700000 0.100000 0.900000
v 0.900000 0.100000 0.700000
v 0.900000 0.300000 0.900000
v 0.900000 0.300000 0.700000
v 0.700000 0.300000 0.900000
v 0.700000 0.100000 0.700000
v 1.000000 0.000000 0.758233
v 1.000000 0.000000 1.000000
v 0.758233 0.000000 1.000000
v 1.000000 0.241767 1.000000
v 1.000000 0.241767 0.758233
v 0.758233 0.241767 1.000000
v 0.758233 0.000000 0.758233
v 0.500000 0.500000 0.900000
v 0.500000 0.100000 0.500000
vt 0.105469 0.457031
vt 0.082031 0.457031
vt 0.070312 0.445312
vt 0.093750 0.445312
vt 0.105469 0.433594
vt 0.093750 0.421875
vt 0.082031 0.472656
vt 0.121094 0.472656
vt 0.070312 0.421875
vt 0.121094 0.433594
vn -0.503200 0.000000 0.864200
vn 0.864200 0.000000 -0.503200
vn 0.864200 0.503200 0.000000
vn -1.000000 0.000000 0.000000
vn 0.000000 1.000000 0.000000
vn 0.000000 0.000000 -1.000000
vn 0.000000 0.503200 0.864200
vn 0.000000 -0.864200 -0.503200
vn -0.503200 -0.864200 0.000000
vn 0.503200 0.000000 0.864200
vn -0.864200 0.000000 -0.503200
vn -0.864200 0.503200 0.000000
vn 1.000000 0.000000 0.000000
vn 0.503200 -0.864200 0.000000
vn -0.503200 0.000000 -0.864200
vn 0.864200 0.000000 0.503200
vn 0.000000 0.000000 1.000000
vn 0.000000 0.503200 -0.864200
vn 0.000000 -0.864200 0.503200
vn 0.503200 0.000000 -0.864200
vn -0.864200 0.000000 0.503200
vn 0.864200 -0.503200 0.000000
vn 0.000000 -1.000000 0.000000
vn 0.000000 -0.503200 0.864200
vn 0.000000 0.864200 -0.503200
vn -0.503200 0.864200 0.000000
vn -0.864200 -0.503200 0.000000
vn 0.503200 0.864200 0.000000
vn 0.000000 -0.503200 -0.864200
vn 0.000000 0.864200 0.503200
usemtl Conveyor
s off
f 52/13/7 50/14/7 55/15/7 59/16/7
f 49/17/8 53/13/8 60/16/8 57/18/8
f 54/13/9 49/14/9 57/15/9 61/16/9
f 76/19/10 50/14/10 52/13/10 136/20/10
f 55/18/11 61/16/11 57/15/11 56/21/11
f 55/15/10 56/21/10 58/18/10 59/16/10
f 56/21/12 57/18/12 60/16/12 58/15/12
f 50/17/13 54/13/13 61/16/13 55/18/13
f 53/13/14 51/14/14 58/15/14 60/16/14
f 51/17/15 52/13/15 59/16/15 58/18/15
f 53/13/12 135/20/12 106/19/12 51/14/12
f 52/13/10 51/17/10 106/22/10 136/20/10
f 54/13/11 50/17/11 76/22/11 105/20/11
f 49/17/12 62/22/12 135/20/12 53/13/12
f 105/20/11 62/19/11 49/14/11 54/13/11
f 66/13/16 73/16/16 69/15/16 64/14/16
f 63/17/17 71/18/17 74/16/17 67/13/17
f 68/13/18 75/16/18 71/15/18 63/14/18
f 91/19/19 153/20/19 66/13/19 64/14/19
f 69/18/11 70/21/11 71/15/11 75/16/11
f 69/15/19 73/16/19 72/18/19 70/21/19
f 70/21/12 72/15/12 74/16/12 71/18/12
f 64/17/13 69/18/13 75/16/13 68/13/13
f 67/13/14 74/16/14 72/15/14 65/14/14
f 65/17/20 72/18/20 73/16/20 66/13/20
f 67/13/12 65/14/12 121/19/12 135/20/12
f 66/13/19 153/20/19 121/22/19 65/17/19
f 68/13/11 105/20/11 91/22/11 64/17/11
f 63/17/12 67/13/12 135/20/12 62/22/12
f 105/20/11 68/13/11 63/14/11 62/19/11
f 80/13/21 87/16/21 83/15/21 78/14/21
f 77/17/22 85/18/22 88/16/22 81/13/22
f 82/13/9 89/16/9 85/15/9 77/14/9
f 76/19/10 136/20/10 80/13/10 78/14/10
f 83/18/11 84/21/11 85/15/11 89/16/11
f 83/15/10 87/16/10 86/18/10 84/21/10
f 84/21/23 86/15/23 88/16/23 85/18/23
f 78/17/24 83/18/24 89/16/24 82/13/24
f 81/13/25 88/16/25 86/15/25 79/14/25
f 79/17/15 86/18/15 87/16/15 80/13/15
f 81/13/23 79/14/23 137/19/23 169/20/23
f 80/13/10 136/20/10 137/22/10 79/17/10
f 82/13/11 105/20/11 76/22/11 78/17/11
f 77/17/23 81/13/23 169/20/23 90/22/23
f 105/20/11 82/13/11 77/14/11 90/19/11
f 95/13/26 93/14/26 98/15/26 102/16/26
f 92/17/27 96/13/27 103/16/27 100/18/27
f 97/13/18 92/14/18 100/15/18 104/16/18
f 91/19/19 93/14/19 95/13/19 153/20/19
f 98/18/11 104/16/11 100/15/11 99/21/11
f 98/15/19 99/21/19 101/18/19 102/16/19
f 99/21/23 100/18/23 103/16/23 101/15/23
f 93/17/24 97/13/24 104/16/24 98/18/24
f 96/13/25 94/14/25 101/15/25 103/16/25
f 94/17/20 95/13/20 102/16/20 101/18/20
f 96/13/23 169/20/23 154/19/23 94/14/23
f 95/13/19 94/17/19 154/22/19 153/20/19
f 97/13/11 93/17/11 91/22/11 105/20/11
f 92/17/23 90/22/23 169/20/23 96/13/23
f 105/20/11 90/19/11 92/14/11 97/13/11
f 110/13/7 117/16/7 113/15/7 108/14/7
f 107/17/8 115/18/8 118/16/8 111/13/8
f 112/13/28 119/16/28 115/15/28 107/14/28
f 138/19/10 136/20/10 110/13/10 108/14/10
f 113/18/29 114/21/29 115/15/29 119/16/29
f 113/15/10 117/16/10 116/18/10 114/21/10
f 114/21/12 116/15/12 118/16/12 115/18/12
f 108/17/30 113/18/30 119/16/30 112/13/30
f 111/13/31 118/16/31 116/15/31 109/14/31
f 109/17/32 116/18/32 117/16/32 110/13/32
f 111/13/12 109/14/12 106/19/12 135/20/12
f 110/13/10 136/20/10 106/22/10 109/17/10
f 112/13/29 170/20/29 138/22/29 108/17/29
f 107/17/12 111/13/12 135/20/12 120/22/12
f 170/20/29 112/13/29 107/14/29 120/19/29
f 125/13/16 123/14/16 128/15/16 132/16/16
f 122/17/17 126/13/17 133/16/17 130/18/17
f 127/13/33 122/14/33 130/15/33 134/16/33
f 155/19/19 123/14/19 125/13/19 153/20/19
f 128/18/29 134/16/29 130/15/29 129/21/29
f 128/15/19 129/21/19 131/18/19 132/16/19
f 129/21/12 130/18/12 133/16/12 131/15/12
f 123/17/30 127/13/30 134/16/30 128/18/30
f 126/13/31 124/14/31 131/15/31 133/16/31
f 124/17/34 125/13/34 132/16/34 131/18/34
f 126/13/12 135/20/12 121/19/12 124/14/12
f 125/13/19 124/17/19 121/22/19 153/20/19
f 127/13/29 123/17/29 155/22/29 170/20/29
f 122/17/12 120/22/12 135/20/12 126/13/12
f 170/20/29 120/19/29 122/14/29 127/13/29
f 142/13/21 140/14/21 145/15/21 149/16/21
f 139/17/22 143/13/22 150/16/22 147/18/22
f 144/13/28 139/14/28 147/15/28 151/16/28
f 138/19/10 140/14/10 142/13/10 136/20/10
f 145/18/29 151/16/29 147/15/29 146/21/29
f 145/15/10 146/21/10 148/18/10 149/16/10
f 146/21/23 147/18/23 150/16/23 148/15/23
f 140/17/35 144/13/35 151/16/35 145/18/35
f 143/13/36 141/14/36 148/15/36 150/16/36
f 141/17/32 142/13/32 149/16/32 148/18/32
f 143/13/23 169/20/23 137/19/23 141/14/23
f 142/13/10 141/17/10 137/22/10 136/20/10
f 144/13/29 140/17/29 138/22/29 170/20/29
f 139/17/23 152/22/23 169/20/23 143/13/23
f 170/20/29 152/19/29 139/14/29 144/13/29
f 159/13/26 166/16/26 162/15/26 157/14/26
f 156/17/27 164/18/27 167/16/27 160/13/27
f 161/13/33 168/16/33 164/15/33 156/14/33
f 155/19/19 153/20/19 159/13/19 157/14/19
f 162/18/29 163/21/29 164/15/29 168/16/29
f 162/15/19 166/16/19 165/18/19 163/21/19
f 163/21/23 165/15/23 167/16/23 164/18/23
f 157/17/35 162/18/35 168/16/35 161/13/35
f 160/13/36 167/16/36 165/15/36 158/14/36
f 158/17/34 165/18/34 166/16/34 159/13/34
f 160/13/23 158/14/23 154/19/23 169/20/23
f 159/13/19 153/20/19 154/22/19 158/17/19
f 161/13/29 170/20/29 155/22/29 157/17/29
f 156/17/23 160/13/23 169/20/23 152/22/23
f 170/20/29 161/13/29 156/14/29 152/19/29
