# Blender v2.74 (sub 0) OBJ File: 'creative_cache.blend'
# www.blender.org
mtllib creative_cache.mtl
o Creative_Cache_ccmdl
v 0.300000 0.900000 0.100000
v 0.100000 0.900000 0.300000
v 0.100000 0.700000 0.100000
v 0.100000 0.700000 0.300000
v 0.300000 0.700000 0.100000
v 0.300000 0.900000 0.300000
v 0.000000 1.000000 0.241767
v 0.000000 1.000000 0.000000
v 0.241767 1.000000 0.000000
v 0.000000 0.758233 0.000000
v 0.000000 0.758233 0.241767
v 0.241767 0.758233 0.000000
v 0.241767 1.000000 0.241767
v 0.500000 0.900000 0.100000
v 0.700000 0.900000 0.100000
v 0.900000 0.900000 0.300000
v 0.900000 0.700000 0.100000
v 0.900000 0.700000 0.300000
v 0.700000 0.700000 0.100000
v 0.700000 0.900000 0.300000
v 1.000000 1.000000 0.241767
v 1.000000 1.000000 0.000000
v 0.758233 1.000000 0.000000
v 1.000000 0.758233 0.000000
v 1.000000 0.758233 0.241767
v 0.758233 0.758233 0.000000
v 0.758233 1.000000 0.241767
v 0.500000 0.700000 0.100000
v 0.500000 0.900000 0.300000
v 0.100000 0.900000 0.500000
v 0.300000 0.900000 0.900000
v 0.100000 0.900000 0.700000
v 0.100000 0.700000 0.900000
v 0.100000 0.700000 0.700000
v 0.300000 0.700000 0.900000
v 0.300000 0.900000 0.700000
v 0.000000 1.000000 0.758233
v 0.000000 1.000000 1.000000
v 0.241767 1.000000 1.000000
v 0.000000 0.758233 1.000000
v 0.000000 0.758233 0.758233
v 0.241767 0.758233 1.000000
v 0.241767 1.000000 0.758233
v 0.300000 0.900000 0.500000
v 0.100000 0.700000 0.500000
v 0.500000 0.900000 0.900000
v 0.500000 0.900000 0.500000
v 0.900000 0.900000 0.500000
v 0.700000 0.900000 0.900000
v 0.900000 0.900000 0.700000
v 0.900000 0.700000 0.900000
v 0.900000 0.700000 0.700000
v 0.700000 0.700000 0.900000
v 0.700000 0.900000 0.700000
v 1.000000 1.000000 0.758233
v 1.000000 1.000000 1.000000
v 0.758233 1.000000 1.000000
v 1.000000 0.758233 1.000000
v 1.000000 0.758233 0.758233
v 0.758233 0.758233 1.000000
v 0.758233 1.000000 0.758233
v 0.500000 0.700000 0.900000
v 0.700000 0.900000 0.500000
v 0.500000 0.900000 0.700000
v 0.900000 0.700000 0.500000
v 0.100000 0.500000 0.300000
v 0.100000 0.500000 0.100000
v 0.300000 0.100000 0.100000
v 0.100000 0.100000 0.300000
v 0.100000 0.300000 0.100000
v 0.100000 0.300000 0.300000
v 0.300000 0.300000 0.100000
v 0.300000 0.100000 0.300000
v 0.000000 0.000000 0.241767
v 0.000000 0.000000 0.000000
v 0.241767 0.000000 0.000000
v 0.000000 0.241767 0.000000
v 0.000000 0.241767 0.241767
v 0.241767 0.241767 0.000000
v 0.241767 0.000000 0.241767
v 0.300000 0.500000 0.100000
v 0.500000 0.100000 0.100000
v 0.500000 0.500000 0.100000
v 0.900000 0.500000 0.300000
v 0.900000 0.500000 0.100000
v 0.700000 0.100000 0.100000
v 0.900000 0.100000 0.300000
v 0.900000 0.300000 0.100000
v 0.900000 0.300000 0.300000
v 0.700000 0.300000 0.100000
v 0.700000 0.100000 0.300000
v 1.000000 0.000000 0.241767
v 1.000000 0.000000 0.000000
v 0.758233 0.000000 0.000000
v 1.000000 0.241767 0.000000
v 1.000000 0.241767 0.241767
v 0.758233 0.241767 0.000000
v 0.758233 0.000000 0.241767
v 0.500000 0.300000 0.100000
v 0.700000 0.500000 0.100000
v 0.500000 0.100000 0.300000
v 0.100000 0.500000 0.700000
v 0.100000 0.500000 0.900000
v 0.100000 0.100000 0.500000
v 0.100000 0.500000 0.500000
v 0.300000 0.100000 0.900000
v 0.100000 0.100000 0.700000
v 0.100000 0.300000 0.900000
v 0.100000 0.300000 0.700000
v 0.300000 0.300000 0.900000
v 0.300000 0.100000 0.700000
v 0.000000 0.000000 0.758233
v 0.000000 0.000000 1.000000
v 0.241767 0.000000 1.000000
v 0.000000 0.241767 1.000000
v 0.000000 0.241767 0.758233
v 0.241767 0.241767 1.000000
v 0.241767 0.000000 0.758233
v 0.300000 0.500000 0.900000
v 0.300000 0.100000 0.500000
v 0.100000 0.300000 0.500000
v 0.500000 0.100000 0.900000
v 0.500000 0.500000 0.900000
v 0.500000 0.100000 0.500000
v 0.900000 0.500000 0.700000
v 0.900000 0.500000 0.900000
v 0.900000 0.100000 0.500000
v 0.900000 0.500000 0.500000
v 0.700000 0.100000 0.900000
v 0.900000 0.100000 0.700000
v 0.900000 0.300000 0.900000
v 0.900000 0.300000 0.700000
v 0.700000 0.300000 0.900000
v 0.700000 0.100000 0.700000
v 1.000000 0.000000 0.758233
v 1.000000 0.000000 1.000000
v 0.758233 0.000000 1.000000
v 1.000000 0.241767 1.000000
v 1.000000 0.241767 0.758233
v 0.758233 0.241767 1.000000
v 0.758233 0.000000 0.758233
v 0.500000 0.300000 0.900000
v 0.700000 0.500000 0.900000
v 0.700000 0.100000 0.500000
v 0.500000 0.100000 0.700000
v 0.900000 0.300000 0.500000
vt 0.113281 0.453125
vt 0.101562 0.464844
vt 0.089844 0.460938
vt 0.101562 0.449219
vt 0.101562 0.433594
vt 0.113281 0.445312
vt 0.089844 0.437500
vt 0.125000 0.464844
vt 0.113281 0.476562
vt 0.078125 0.449219
vt 0.113281 0.421875
vt 0.125000 0.433594
vt 0.003906 0.476562
vt 0.003906 0.421875
vt 0.058594 0.476562
vt 0.058594 0.421875
vn -0.503200 0.000000 0.864200
vn 0.864200 0.000000 -0.503200
vn 0.864200 0.503200 0.000000
vn 0.000000 0.000000 -1.000000
vn 0.000000 1.000000 0.000000
vn -1.000000 0.000000 0.000000
vn 0.000000 0.503200 0.864200
vn 0.000000 -0.864200 -0.503200
vn -0.503200 -0.864200 0.000000
vn 0.000000 0.864200 0.503200
vn -0.864200 0.000000 0.503200
vn -0.932500 0.000000 0.361100
vn -0.932500 -0.361100 0.000000
vn 0.503200 0.864200 0.000000
vn 0.503200 0.000000 -0.864200
vn 0.000000 -0.503200 -0.864200
vn -0.864200 -0.503200 0.000000
vn 0.000000 -0.361100 -0.932500
vn 0.361100 0.000000 -0.932500
vn 0.000000 0.932500 0.361100
vn 0.361100 0.932500 0.000000
vn 0.503200 0.000000 0.864200
vn -0.864200 0.000000 -0.503200
vn -0.864200 0.503200 0.000000
vn 1.000000 0.000000 0.000000
vn 0.503200 -0.864200 0.000000
vn 0.864200 0.000000 0.503200
vn 0.932500 0.000000 0.361100
vn 0.932500 -0.361100 0.000000
vn -0.503200 0.864200 0.000000
vn -0.503200 0.000000 -0.864200
vn 0.864200 -0.503200 0.000000
vn -0.361100 0.000000 -0.932500
vn -0.361100 0.932500 0.000000
vn 0.000000 0.000000 1.000000
vn 0.000000 0.503200 -0.864200
vn 0.000000 -0.864200 0.503200
vn 0.000000 0.864200 -0.503200
vn -0.932500 0.000000 -0.361100
vn 0.000000 -0.503200 0.864200
vn 0.000000 -0.361100 0.932500
vn 0.361100 0.000000 0.932500
vn 0.000000 0.932500 -0.361100
vn 0.932500 0.000000 -0.361100
vn -0.361100 0.000000 0.932500
vn 0.000000 -1.000000 0.000000
vn -0.932500 0.361100 0.000000
vn 0.000000 0.361100 -0.932500
vn 0.000000 -0.932500 0.361100
vn 0.361100 -0.932500 0.000000
vn 0.932500 0.361100 0.000000
vn -0.361100 -0.932500 0.000000
vn 0.000000 0.361100 0.932500
vn 0.000000 -0.932500 -0.361100
usemtl Conveyor
s off
f 4/1/1 2/2/1 7/3/1 11/4/1
f 1/5/2 5/6/2 12/4/2 9/7/2
f 6/1/3 1/2/3 9/3/3 13/4/3
f 5/1/4 81/8/4 67/9/4 3/2/4
f 7/7/5 13/4/5 9/3/5 8/10/5
f 7/3/6 8/10/6 10/7/6 11/4/6
f 8/10/4 9/7/4 12/4/4 10/3/4
f 2/5/7 6/6/7 13/4/7 7/7/7
f 5/1/8 3/2/8 10/3/8 12/4/8
f 3/5/9 4/6/9 11/4/9 10/7/9
f 29/8/5 14/9/5 1/2/5 6/1/5
f 30/9/6 2/2/6 4/1/6 45/8/6
f 4/6/6 3/5/6 67/11/6 66/12/6
f 6/6/5 2/5/5 30/11/5 44/12/5
f 1/5/4 14/11/4 28/12/4 5/6/4
f 5/13/10 28/14/10 12/15/10
f 81/14/11 5/13/11 12/15/11
f 105/13/12 45/14/12 11/15/12
f 66/14/13 105/13/13 11/15/13
f 45/14/14 4/16/14 11/15/14
f 4/16/15 66/14/15 11/15/15
f 29/14/16 6/13/16 13/15/16
f 6/13/17 44/14/17 13/15/17
f 83/16/18 81/14/18 12/15/18
f 28/14/19 83/16/19 12/15/19
f 44/14/20 47/16/20 13/15/20
f 47/16/21 29/14/21 13/15/21
f 18/1/22 25/4/22 21/3/22 16/2/22
f 15/5/23 23/7/23 26/4/23 19/6/23
f 20/1/24 27/4/24 23/3/24 15/2/24
f 19/1/4 17/2/4 85/9/4 100/8/4
f 21/7/5 22/10/5 23/3/5 27/4/5
f 21/3/25 25/4/25 24/7/25 22/10/25
f 22/10/4 24/3/4 26/4/4 23/7/4
f 16/5/7 21/7/7 27/4/7 20/6/7
f 19/1/8 26/4/8 24/3/8 17/2/8
f 17/5/26 24/7/26 25/4/26 18/6/26
f 29/8/5 20/1/5 15/2/5 14/9/5
f 48/9/25 65/8/25 18/1/25 16/2/25
f 18/6/25 84/12/25 85/11/25 17/5/25
f 20/6/5 63/12/5 48/11/5 16/5/5
f 15/5/4 19/6/4 28/12/4 14/11/4
f 19/13/10 26/15/10 28/14/10
f 100/14/27 26/15/27 19/13/27
f 128/13/28 25/15/28 65/14/28
f 84/14/29 25/15/29 128/13/29
f 65/14/30 25/15/30 18/16/30
f 18/16/31 25/15/31 84/14/31
f 29/14/16 27/15/16 20/13/16
f 20/13/32 27/15/32 63/14/32
f 83/16/18 26/15/18 100/14/18
f 28/14/33 26/15/33 83/16/33
f 63/14/20 27/15/20 47/16/20
f 47/16/34 27/15/34 29/14/34
f 34/1/31 41/4/31 37/3/31 32/2/31
f 31/5/27 39/7/27 42/4/27 35/6/27
f 36/1/3 43/4/3 39/3/3 31/2/3
f 35/1/35 33/2/35 103/9/35 119/8/35
f 37/7/5 38/10/5 39/3/5 43/4/5
f 37/3/6 41/4/6 40/7/6 38/10/6
f 38/10/35 40/3/35 42/4/35 39/7/35
f 32/5/36 37/7/36 43/4/36 36/6/36
f 35/1/37 42/4/37 40/3/37 33/2/37
f 33/5/9 40/7/9 41/4/9 34/6/9
f 64/8/5 36/1/5 31/2/5 46/9/5
f 30/9/6 45/8/6 34/1/6 32/2/6
f 34/6/6 102/12/6 103/11/6 33/5/6
f 36/6/5 44/12/5 30/11/5 32/5/5
f 31/5/35 35/6/35 62/12/35 46/11/35
f 35/13/38 42/15/38 62/14/38
f 119/14/23 42/15/23 35/13/23
f 105/13/39 41/15/39 45/14/39
f 102/14/13 41/15/13 105/13/13
f 45/14/14 41/15/14 34/16/14
f 34/16/22 41/15/22 102/14/22
f 64/14/40 43/15/40 36/13/40
f 36/13/17 43/15/17 44/14/17
f 123/16/41 42/15/41 119/14/41
f 62/14/42 42/15/42 123/16/42
f 44/14/43 43/15/43 47/16/43
f 47/16/21 43/15/21 64/14/21
f 52/1/15 50/2/15 55/3/15 59/4/15
f 49/5/11 53/6/11 60/4/11 57/7/11
f 54/1/24 49/2/24 57/3/24 61/4/24
f 53/1/35 143/8/35 126/9/35 51/2/35
f 55/7/5 61/4/5 57/3/5 56/10/5
f 55/3/25 56/10/25 58/7/25 59/4/25
f 56/10/35 57/7/35 60/4/35 58/3/35
f 50/5/36 54/6/36 61/4/36 55/7/36
f 53/1/37 51/2/37 58/3/37 60/4/37
f 51/5/26 52/6/26 59/4/26 58/7/26
f 64/8/5 46/9/5 49/2/5 54/1/5
f 48/9/25 50/2/25 52/1/25 65/8/25
f 52/6/25 51/5/25 126/11/25 125/12/25
f 54/6/5 50/5/5 48/11/5 63/12/5
f 49/5/35 46/11/35 62/12/35 53/6/35
f 53/13/38 62/14/38 60/15/38
f 143/14/2 53/13/2 60/15/2
f 128/13/44 65/14/44 59/15/44
f 125/14/29 128/13/29 59/15/29
f 65/14/30 52/16/30 59/15/30
f 52/16/1 125/14/1 59/15/1
f 64/14/40 54/13/40 61/15/40
f 54/13/32 63/14/32 61/15/32
f 123/16/41 143/14/41 60/15/41
f 62/14/45 123/16/45 60/15/45
f 63/14/43 47/16/43 61/15/43
f 47/16/34 64/14/34 61/15/34
f 71/1/1 78/4/1 74/3/1 69/2/1
f 68/5/2 76/7/2 79/4/2 72/6/2
f 73/1/32 80/4/32 76/3/32 68/2/32
f 72/1/4 70/2/4 67/9/4 81/8/4
f 74/7/46 75/10/46 76/3/46 80/4/46
f 74/3/6 78/4/6 77/7/6 75/10/6
f 75/10/4 77/3/4 79/4/4 76/7/4
f 69/5/40 74/7/40 80/4/40 73/6/40
f 72/1/38 79/4/38 77/3/38 70/2/38
f 70/5/30 77/7/30 78/4/30 71/6/30
f 101/8/46 73/1/46 68/2/46 82/9/46
f 104/9/6 121/8/6 71/1/6 69/2/6
f 71/6/6 66/12/6 67/11/6 70/5/6
f 73/6/46 120/12/46 104/11/46 69/5/46
f 68/5/4 72/6/4 99/12/4 82/11/4
f 72/13/37 79/15/37 99/14/37
f 81/14/11 79/15/11 72/13/11
f 105/13/12 78/15/12 121/14/12
f 66/14/47 78/15/47 105/13/47
f 121/14/26 78/15/26 71/16/26
f 71/16/15 78/15/15 66/14/15
f 101/14/36 80/15/36 73/13/36
f 73/13/24 80/15/24 120/14/24
f 83/16/48 79/15/48 81/14/48
f 99/14/19 79/15/19 83/16/19
f 120/14/49 80/15/49 124/16/49
f 124/16/50 80/15/50 101/14/50
f 89/1/22 87/2/22 92/3/22 96/4/22
f 86/5/23 90/6/23 97/4/23 94/7/23
f 91/1/17 86/2/17 94/3/17 98/4/17
f 90/1/4 100/8/4 85/9/4 88/2/4
f 92/7/46 98/4/46 94/3/46 93/10/46
f 92/3/25 93/10/25 95/7/25 96/4/25
f 93/10/4 94/7/4 97/4/4 95/3/4
f 87/5/40 91/6/40 98/4/40 92/7/40
f 90/1/38 88/2/38 95/3/38 97/4/38
f 88/5/14 89/6/14 96/4/14 95/7/14
f 101/8/46 82/9/46 86/2/46 91/1/46
f 127/9/25 87/2/25 89/1/25 146/8/25
f 89/6/25 88/5/25 85/11/25 84/12/25
f 91/6/46 87/5/46 127/11/46 144/12/46
f 86/5/4 82/11/4 99/12/4 90/6/4
f 90/13/37 99/14/37 97/15/37
f 100/14/27 90/13/27 97/15/27
f 128/13/28 146/14/28 96/15/28
f 84/14/51 128/13/51 96/15/51
f 146/14/9 89/16/9 96/15/9
f 89/16/31 84/14/31 96/15/31
f 101/14/36 91/13/36 98/15/36
f 91/13/3 144/14/3 98/15/3
f 83/16/48 100/14/48 97/15/48
f 99/14/33 83/16/33 97/15/33
f 144/14/49 124/16/49 98/15/49
f 124/16/52 101/14/52 98/15/52
f 109/1/31 107/2/31 112/3/31 116/4/31
f 106/5/27 110/6/27 117/4/27 114/7/27
f 111/1/32 106/2/32 114/3/32 118/4/32
f 110/1/35 119/8/35 103/9/35 108/2/35
f 112/7/46 118/4/46 114/3/46 113/10/46
f 112/3/6 113/10/6 115/7/6 116/4/6
f 113/10/35 114/7/35 117/4/35 115/3/35
f 107/5/16 111/6/16 118/4/16 112/7/16
f 110/1/10 108/2/10 115/3/10 117/4/10
f 108/5/30 109/6/30 116/4/30 115/7/30
f 145/8/46 122/9/46 106/2/46 111/1/46
f 104/9/6 107/2/6 109/1/6 121/8/6
f 109/6/6 108/5/6 103/11/6 102/12/6
f 111/6/46 107/5/46 104/11/46 120/12/46
f 106/5/35 122/11/35 142/12/35 110/6/35
f 110/13/8 142/14/8 117/15/8
f 119/14/23 110/13/23 117/15/23
f 105/13/39 121/14/39 116/15/39
f 102/14/47 105/13/47 116/15/47
f 121/14/26 109/16/26 116/15/26
f 109/16/22 102/14/22 116/15/22
f 145/14/7 111/13/7 118/15/7
f 111/13/24 120/14/24 118/15/24
f 123/16/53 119/14/53 117/15/53
f 142/14/42 123/16/42 117/15/42
f 120/14/54 124/16/54 118/15/54
f 124/16/50 145/14/50 118/15/50
f 132/1/15 139/4/15 135/3/15 130/2/15
f 129/5/11 137/7/11 140/4/11 133/6/11
f 134/1/17 141/4/17 137/3/17 129/2/17
f 133/1/35 131/2/35 126/9/35 143/8/35
f 135/7/46 136/10/46 137/3/46 141/4/46
f 135/3/25 139/4/25 138/7/25 136/10/25
f 136/10/35 138/3/35 140/4/35 137/7/35
f 130/5/16 135/7/16 141/4/16 134/6/16
f 133/1/10 140/4/10 138/3/10 131/2/10
f 131/5/14 138/7/14 139/4/14 132/6/14
f 145/8/46 134/1/46 129/2/46 122/9/46
f 127/9/25 146/8/25 132/1/25 130/2/25
f 132/6/25 125/12/25 126/11/25 131/5/25
f 134/6/46 144/12/46 127/11/46 130/5/46
f 129/5/35 133/6/35 142/12/35 122/11/35
f 133/13/8 140/15/8 142/14/8
f 143/14/2 140/15/2 133/13/2
f 128/13/44 139/15/44 146/14/44
f 125/14/51 139/15/51 128/13/51
f 146/14/9 139/15/9 132/16/9
f 132/16/1 139/15/1 125/14/1
f 145/14/7 141/15/7 134/13/7
f 134/13/3 141/15/3 144/14/3
f 123/16/53 140/15/53 143/14/53
f 142/14/45 140/15/45 123/16/45
f 144/14/54 141/15/54 124/16/54
f 124/16/52 141/15/52 145/14/52
