# Blender v2.74 (sub 0) OBJ File: 'mixer.blend'
# www.blender.org
mtllib mixer.mtl
o Mixer_mxmdl
v 0.725000 0.725000 0.000000
v 0.725000 0.275000 0.000000
v 0.725000 0.275000 0.125000
v 0.725000 0.725000 0.125000
v 0.725000 0.125000 0.125000
v 1.000000 0.500000 -0.000000
v 1.000000 0.400000 -0.000000
v 0.725000 0.275000 0.000000
v 0.937500 0.400000 0.125000
v 0.937500 0.500000 0.125000
v 0.666558 0.325523 0.125000
v 0.725000 0.725000 0.125000
v 0.725000 0.500000 0.000000
v 0.725000 0.500000 0.125000
v 0.500000 0.275000 0.000000
v 0.500000 0.725000 0.000000
v 0.275000 0.725000 -0.000000
v 0.275000 0.275000 -0.000000
v 0.275000 0.275000 0.125000
v 0.275000 0.725000 0.125000
v 0.500000 0.725000 0.125000
v 0.500000 0.125000 0.125000
v 0.275000 0.125000 0.125000
v 0.000000 0.500000 -0.000000
v 0.000000 0.400000 -0.000000
v 0.275000 0.275000 -0.000000
v 0.062500 0.400000 0.125000
v 0.062500 0.500000 0.125000
v 0.333442 0.325523 0.125000
v 0.500000 0.275000 0.000000
v 0.275000 0.725000 0.125000
v 0.275000 0.500000 -0.000000
v 0.275000 0.500000 0.125000
v 0.500000 0.725000 0.125000
v 0.725000 0.725000 1.000000
v 0.725000 0.275000 1.000000
v 0.725000 0.275000 0.875000
v 0.725000 0.725000 0.875000
v 0.725000 0.125000 0.875000
v 0.725000 0.125000 0.500000
v 1.000000 0.500000 1.000000
v 1.000000 0.500000 0.500000
v 1.000000 0.400000 1.000000
v 1.000000 0.400000 0.500000
v 0.725000 0.275000 1.000000
v 0.725000 0.275000 0.500000
v 0.937500 0.400000 0.875000
v 0.937500 0.400000 0.500000
v 0.937500 0.500000 0.875000
v 0.937500 0.500000 0.500000
v 0.666558 0.325523 0.500000
v 0.666558 0.325523 0.875000
v 0.725000 0.725000 0.500000
v 0.725000 0.725000 0.875000
v 0.725000 0.500000 1.000000
v 0.725000 0.500000 0.500000
v 0.725000 0.500000 0.875000
v 0.500000 0.275000 1.000000
v 0.500000 0.725000 1.000000
v 0.275000 0.725000 1.000000
v 0.275000 0.275000 1.000000
v 0.275000 0.275000 0.875000
v 0.275000 0.725000 0.875000
v 0.500000 0.725000 0.875000
v 0.500000 0.125000 0.875000
v 0.275000 0.125000 0.875000
v 0.275000 0.125000 0.500000
v 0.000000 0.500000 1.000000
v -0.000000 0.500000 0.500000
v 0.000000 0.400000 1.000000
v -0.000000 0.400000 0.500000
v 0.275000 0.275000 1.000000
v 0.275000 0.275000 0.500000
v 0.062500 0.400000 0.875000
v 0.062500 0.400000 0.500000
v 0.062500 0.500000 0.875000
v 0.062500 0.500000 0.500000
v 0.333442 0.325523 0.500000
v 0.333442 0.325523 0.875000
v 0.275000 0.725000 0.500000
v 0.500000 0.125000 0.500000
v 0.500000 0.275000 1.000000
v 0.275000 0.725000 0.875000
v 0.275000 0.500000 1.000000
v 0.275000 0.500000 0.500000
v 0.275000 0.500000 0.875000
v 0.500000 0.725000 0.500000
v 0.500000 0.725000 0.875000
vt 0.970703 0.847656
vt 0.953125 0.847656
vt 0.953125 0.812500
vt 0.970703 0.812500
vt 0.988281 0.855469
vt 0.953125 0.855469
vt 0.988281 0.847656
vt 0.945312 0.847656
vt 0.945312 0.812500
vt 0.816406 0.699219
vt 0.816406 0.664062
vt 0.835938 0.664062
vt 0.835938 0.699219
vt 0.851562 0.699219
vt 0.851562 0.664062
vt 0.875000 0.699219
vt 0.894531 0.699219
vt 0.894531 0.664062
vt 0.875000 0.664062
vt 0.765625 0.710938
vt 0.765625 0.648438
vt 0.921875 0.664062
vt 0.921875 0.710938
vt 0.910156 0.703125
vt 0.910156 0.664062
vt 0.753906 0.710938
vt 0.753906 0.648438
vt 0.902344 0.703125
vt 0.902344 0.664062
vt 0.835938 0.644531
vt 0.804688 0.664062
vt 0.804688 0.644531
vt 0.886719 0.632812
vt 0.878906 0.664062
vt 0.894531 0.632812
vt 0.863281 0.640625
vt 0.875000 0.640625
vt 0.914062 0.699219
vt 0.914062 0.664062
vn 0.000000 0.000000 -1.000000
vn 0.000000 1.000000 0.000000
vn 1.000000 0.000000 0.000000
vn 0.000000 -1.000000 0.000000
vn 0.413800 -0.910400 0.000000
vn -1.000000 0.000000 0.000000
vn -0.265100 0.964200 0.000000
vn -0.000000 -0.640200 -0.768200
vn 0.948200 -0.317600 0.000000
vn 0.000000 0.000000 1.000000
vn -0.413800 -0.910400 -0.000000
vn 0.265100 0.964200 0.000000
vn -0.948200 -0.317600 -0.000000
vn 0.000000 -0.640200 0.768200
usemtl Conveyor
s off
f 16/1/1 1/2/1 2/3/1 15/4/1
f 21/5/2 4/6/2 1/2/2 16/7/2
f 4/8/3 3/9/3 2/3/3 1/2/3
f 8/10/3 46/11/3 40/12/3 5/13/3
f 22/14/4 5/13/4 40/12/4 81/15/4
f 14/16/3 12/17/3 53/18/3 56/19/3
f 7/20/5 44/21/5 46/11/5 8/10/5
f 42/22/2 6/23/2 10/24/2 50/25/2
f 6/26/3 42/27/3 44/21/3 7/20/3
f 50/25/6 10/24/6 9/28/6 48/29/6
f 48/29/7 9/28/7 11/14/7 51/15/7
f 5/30/8 22/12/8 30/31/8 8/32/8
f 7/33/1 8/34/1 13/18/1 6/35/1
f 11/14/9 14/16/9 56/19/9 51/15/9
f 9/36/10 10/37/10 14/19/10 11/15/10
f 10/37/2 6/35/2 13/18/2 14/19/2
f 53/18/2 12/17/2 34/38/2 87/39/2
f 16/1/1 15/4/1 18/3/1 17/2/1
f 21/5/2 16/7/2 17/2/2 20/6/2
f 20/8/6 17/2/6 18/3/6 19/9/6
f 26/10/6 23/13/6 67/12/6 73/11/6
f 22/14/4 81/15/4 67/12/4 23/13/4
f 33/16/6 85/19/6 80/18/6 31/17/6
f 25/20/11 26/10/11 73/11/11 71/21/11
f 69/22/2 77/25/2 28/24/2 24/23/2
f 24/26/6 25/20/6 71/21/6 69/27/6
f 77/25/3 75/29/3 27/28/3 28/24/3
f 75/29/12 78/15/12 29/14/12 27/28/12
f 23/30/8 26/32/8 30/31/8 22/12/8
f 25/33/1 24/35/1 32/18/1 26/34/1
f 29/14/13 78/15/13 85/19/13 33/16/13
f 27/36/10 29/15/10 33/19/10 28/37/10
f 28/37/2 33/19/2 32/18/2 24/35/2
f 80/18/2 87/39/2 34/38/2 31/17/2
f 59/1/10 58/4/10 36/3/10 35/2/10
f 64/5/2 59/7/2 35/2/2 38/6/2
f 38/8/3 35/2/3 36/3/3 37/9/3
f 45/10/3 39/13/3 40/12/3 46/11/3
f 65/14/4 81/15/4 40/12/4 39/13/4
f 57/16/3 56/19/3 53/18/3 54/17/3
f 43/20/5 45/10/5 46/11/5 44/21/5
f 42/22/2 50/25/2 49/24/2 41/23/2
f 41/26/3 43/20/3 44/21/3 42/27/3
f 50/25/6 48/29/6 47/28/6 49/24/6
f 48/29/7 51/15/7 52/14/7 47/28/7
f 39/30/14 45/32/14 82/31/14 65/12/14
f 43/33/10 41/35/10 55/18/10 45/34/10
f 52/14/9 51/15/9 56/19/9 57/16/9
f 47/36/1 52/15/1 57/19/1 49/37/1
f 49/37/2 57/19/2 55/18/2 41/35/2
f 53/18/2 87/39/2 88/38/2 54/17/2
f 59/1/10 60/2/10 61/3/10 58/4/10
f 64/5/2 63/6/2 60/2/2 59/7/2
f 63/8/6 62/9/6 61/3/6 60/2/6
f 72/10/6 73/11/6 67/12/6 66/13/6
f 65/14/4 66/13/4 67/12/4 81/15/4
f 86/16/6 83/17/6 80/18/6 85/19/6
f 70/20/11 71/21/11 73/11/11 72/10/11
f 69/22/2 68/23/2 76/24/2 77/25/2
f 68/26/6 69/27/6 71/21/6 70/20/6
f 77/25/3 76/24/3 74/28/3 75/29/3
f 75/29/12 74/28/12 79/14/12 78/15/12
f 66/30/14 65/12/14 82/31/14 72/32/14
f 70/33/10 72/34/10 84/18/10 68/35/10
f 79/14/13 86/16/13 85/19/13 78/15/13
f 74/36/1 76/37/1 86/19/1 79/15/1
f 76/37/2 68/35/2 84/18/2 86/19/2
f 80/18/2 83/17/2 88/38/2 87/39/2
o Baseplate_pmdl
v 0.031250 0.000000 0.968750
v 0.031250 0.125000 0.968750
v 0.031250 0.000000 0.031250
v 0.031250 0.125000 0.031250
v 0.968750 0.000000 0.968750
v 0.968750 0.125000 0.968750
v 0.968750 0.000000 0.031250
v 0.968750 0.125000 0.031250
vt 0.824219 0.832031
vt 0.765625 0.832031
vt 0.765625 0.824219
vt 0.824219 0.824219
vt 0.765625 0.894531
vt 0.765625 0.835938
vt 0.824219 0.835938
vt 0.824219 0.894531
vn -1.000000 0.000000 0.000000
vn 0.000000 0.000000 -1.000000
vn 1.000000 0.000000 0.000000
vn 0.000000 0.000000 1.000000
vn 0.000000 -1.000000 0.000000
vn 0.000000 1.000000 0.000000
usemtl Conveyor
s off
f 90/40/15 92/41/15 91/42/15 89/43/15
f 92/41/16 96/40/16 95/43/16 91/42/16
f 96/40/17 94/41/17 93/42/17 95/43/17
f 94/41/18 90/40/18 89/43/18 93/42/18
f 89/44/19 91/45/19 95/46/19 93/47/19
f 94/46/20 96/47/20 92/44/20 90/45/20
