# Blender v2.74 (sub 0) OBJ File: 'pipemachines.blend'
# www.blender.org
mtllib pipemachines.mtl
o BaseplateConnector_pmdl_c
v 0.031250 0.000000 0.968750
v 0.031250 0.125000 0.968750
v 0.031250 0.000000 0.031250
v 0.031250 0.125000 0.031250
v 0.968750 0.000000 0.968750
v 0.968750 0.125000 0.968750
v 0.968750 0.000000 0.031250
v 0.968750 0.125000 0.031250
vt 0.824219 0.832031
vt 0.765625 0.832031
vt 0.765625 0.824219
vt 0.824219 0.824219
vt 0.703125 0.894531
vt 0.703125 0.835938
vt 0.761719 0.835938
vt 0.761719 0.894531
vn -1.000000 0.000000 0.000000
vn 0.000000 0.000000 -1.000000
vn 1.000000 0.000000 0.000000
vn 0.000000 0.000000 1.000000
vn 0.000000 -1.000000 0.000000
vn 0.000000 1.000000 0.000000
usemtl Conveyor
s off
f 2/1/1 4/2/1 3/3/1 1/4/1
f 4/2/2 8/1/2 7/4/2 3/3/2
f 8/1/3 6/2/3 5/3/3 7/4/3
f 6/2/4 2/1/4 1/4/4 5/3/4
f 1/5/5 3/6/5 7/7/5 5/8/5
f 6/7/6 8/8/6 4/5/6 2/6/6
o Tank_tmdl
v 0.093750 0.125000 0.906250
v 0.093750 0.125000 0.093750
v 0.906250 0.125000 0.906250
v 0.906250 0.125000 0.093750
v 0.093750 1.000000 0.906250
v 0.093750 1.000000 0.093750
v 0.906250 1.000000 0.093750
v 0.906250 1.000000 0.906250
vt 0.640625 0.835938
vt 0.640625 0.894531
vt 0.582031 0.894531
vt 0.582031 0.835938
vt 0.644531 0.839844
vt 0.695312 0.839844
vt 0.695312 0.894531
vt 0.644531 0.894531
vn 0.000000 1.000000 0.000000
vn 0.000000 0.000000 1.000000
vn 1.000000 0.000000 0.000000
vn 0.000000 0.000000 -1.000000
vn -1.000000 0.000000 0.000000
usemtl Conveyor
s off
f 16/9/7 15/10/7 14/11/7 13/12/7
f 9/13/8 11/14/8 16/15/8 13/16/8
f 11/14/9 12/13/9 15/16/9 16/15/9
f 12/13/10 10/14/10 14/15/10 15/16/10
f 10/14/11 9/13/11 13/16/11 14/15/11
o Baseplate_pmdl
v 0.031250 0.000000 0.968750
v 0.031250 0.125000 0.968750
v 0.031250 0.000000 0.031250
v 0.031250 0.125000 0.031250
v 0.968750 0.000000 0.968750
v 0.968750 0.125000 0.968750
v 0.968750 0.000000 0.031250
v 0.968750 0.125000 0.031250
vt 0.824219 0.832031
vt 0.765625 0.832031
vt 0.765625 0.824219
vt 0.824219 0.824219
vt 0.765625 0.894531
vt 0.765625 0.835938
vt 0.824219 0.835938
vt 0.824219 0.894531
vn -1.000000 0.000000 0.000000
vn 0.000000 0.000000 -1.000000
vn 1.000000 0.000000 0.000000
vn 0.000000 0.000000 1.000000
vn 0.000000 -1.000000 0.000000
vn 0.000000 1.000000 0.000000
usemtl Conveyor
s off
f 18/17/12 20/18/12 19/19/12 17/20/12
f 20/18/13 24/17/13 23/20/13 19/19/13
f 24/17/14 22/18/14 21/19/14 23/20/14
f 22/18/15 18/17/15 17/20/15 21/19/15
f 17/21/16 19/22/16 23/23/16 21/24/16
f 22/23/17 24/24/17 20/21/17 18/22/17
o FlangeMZ_pfmdl
v 0.625000 0.375000 0.375000
v 0.375000 0.375000 0.375000
v 0.625000 0.375000 0.625000
v 0.375000 0.375000 0.625000
v 0.625000 0.125000 0.375000
v 0.375000 0.125000 0.375000
v 0.375000 0.125000 0.625000
v 0.625000 0.125000 0.625000
v 0.725000 0.000000 0.725000
v 0.275000 0.000000 0.725000
v 0.275000 0.000000 0.275000
v 0.725000 0.000000 0.275000
v 0.725000 0.125000 0.275000
v 0.275000 0.125000 0.275000
v 0.275000 0.125000 0.725000
v 0.725000 0.125000 0.725000
vt 0.890625 0.882812
vt 0.910156 0.882812
vt 0.910156 0.894531
vt 0.890625 0.894531
vt 0.929688 0.882812
vt 0.949219 0.882812
vt 0.949219 0.894531
vt 0.929688 0.894531
vt 0.871094 0.882812
vt 0.871094 0.894531
vt 0.988281 0.847656
vt 0.953125 0.847656
vt 0.953125 0.812500
vt 0.988281 0.812500
vt 0.988281 0.855469
vt 0.953125 0.855469
vt 0.996094 0.812500
vt 0.996094 0.847656
vt 0.996094 0.859375
vt 0.996094 0.894531
vt 0.960938 0.894531
vt 0.960938 0.859375
vt 0.953125 0.804688
vt 0.988281 0.804688
vt 0.945312 0.847656
vt 0.945312 0.812500
vn 1.000000 0.000000 0.000000
vn -1.000000 0.000000 0.000000
vn 0.000000 0.000000 1.000000
vn 0.000000 0.000000 -1.000000
vn 0.000000 -1.000000 0.000000
vn 0.000000 1.000000 0.000000
usemtl Conveyor
s off
f 25/25/18 27/26/18 32/27/18 29/28/18
f 28/29/19 26/30/19 30/31/19 31/32/19
f 27/26/20 28/29/20 31/32/20 32/27/20
f 26/33/21 25/25/21 29/28/21 30/34/21
f 34/35/22 35/36/22 36/37/22 33/38/22
f 39/39/19 38/40/19 35/36/19 34/35/19
f 40/41/20 39/42/20 34/35/20 33/38/20
f 39/43/23 40/44/23 37/45/23 38/46/23
f 37/47/18 40/48/18 33/38/18 36/37/18
f 38/49/21 37/50/21 36/37/21 35/36/21
o FlangePZ_pfmdl
v 0.375000 0.625000 0.375000
v 0.625000 0.625000 0.375000
v 0.375000 0.625000 0.625000
v 0.625000 0.625000 0.625000
v 0.375000 0.875000 0.375000
v 0.625000 0.875000 0.375000
v 0.625000 0.875000 0.625000
v 0.375000 0.875000 0.625000
v 0.275000 1.000000 0.725000
v 0.725000 1.000000 0.725000
v 0.725000 1.000000 0.275000
v 0.275000 1.000000 0.275000
v 0.275000 0.875000 0.275000
v 0.725000 0.875000 0.275000
v 0.725000 0.875000 0.725000
v 0.275000 0.875000 0.725000
vt 0.890625 0.882812
vt 0.910156 0.882812
vt 0.910156 0.894531
vt 0.890625 0.894531
vt 0.929688 0.882812
vt 0.949219 0.882812
vt 0.949219 0.894531
vt 0.929688 0.894531
vt 0.871094 0.882812
vt 0.871094 0.894531
vt 0.988281 0.847656
vt 0.953125 0.847656
vt 0.953125 0.812500
vt 0.988281 0.812500
vt 0.988281 0.855469
vt 0.953125 0.855469
vt 0.996094 0.812500
vt 0.996094 0.847656
vt 0.996094 0.859375
vt 0.996094 0.894531
vt 0.960938 0.894531
vt 0.960938 0.859375
vt 0.953125 0.804688
vt 0.988281 0.804688
vt 0.945312 0.847656
vt 0.945312 0.812500
vn -1.000000 -0.000000 0.000000
vn 1.000000 0.000000 0.000000
vn 0.000000 0.000000 1.000000
vn 0.000000 0.000000 -1.000000
vn 0.000000 1.000000 0.000000
vn 0.000000 -1.000000 0.000000
usemtl Conveyor
s off
f 41/51/24 43/52/24 48/53/24 45/54/24
f 44/55/25 42/56/25 46/57/25 47/58/25
f 43/52/26 44/55/26 47/58/26 48/53/26
f 42/59/27 41/51/27 45/54/27 46/60/27
f 50/61/28 51/62/28 52/63/28 49/64/28
f 55/65/25 54/66/25 51/62/25 50/61/25
f 56/67/26 55/68/26 50/61/26 49/64/26
f 55/69/29 56/70/29 53/71/29 54/72/29
f 53/73/24 56/74/24 49/64/24 52/63/24
f 54/75/27 53/76/27 52/63/27 51/62/27
o FlangeMX_pfmdl
v 0.375000 0.375000 0.375000
v 0.375000 0.625000 0.375000
v 0.375000 0.375000 0.625000
v 0.375000 0.625000 0.625000
v 0.125000 0.375000 0.375000
v 0.125000 0.625000 0.375000
v 0.125000 0.625000 0.625000
v 0.125000 0.375000 0.625000
v 0.000000 0.275000 0.725000
v 0.000000 0.725000 0.725000
v 0.000000 0.725000 0.275000
v 0.000000 0.275000 0.275000
v 0.125000 0.275000 0.275000
v 0.125000 0.725000 0.275000
v 0.125000 0.725000 0.725000
v 0.125000 0.275000 0.725000
vt 0.890625 0.882812
vt 0.910156 0.882812
vt 0.910156 0.894531
vt 0.890625 0.894531
vt 0.929688 0.882812
vt 0.949219 0.882812
vt 0.949219 0.894531
vt 0.929688 0.894531
vt 0.871094 0.882812
vt 0.871094 0.894531
vt 0.988281 0.847656
vt 0.953125 0.847656
vt 0.953125 0.812500
vt 0.988281 0.812500
vt 0.988281 0.855469
vt 0.953125 0.855469
vt 0.996094 0.812500
vt 0.996094 0.847656
vt 0.996094 0.859375
vt 0.996094 0.894531
vt 0.960938 0.894531
vt 0.960938 0.859375
vt 0.953125 0.804688
vt 0.988281 0.804688
vt 0.945312 0.847656
vt 0.945312 0.812500
vn 0.000000 -1.000000 0.000000
vn 0.000000 1.000000 0.000000
vn 0.000000 0.000000 1.000000
vn 0.000000 0.000000 -1.000000
vn -1.000000 0.000000 0.000000
vn 1.000000 0.000000 0.000000
usemtl Conveyor
s off
f 57/77/30 59/78/30 64/79/30 61/80/30
f 60/81/31 58/82/31 62/83/31 63/84/31
f 59/78/32 60/81/32 63/84/32 64/79/32
f 58/85/33 57/77/33 61/80/33 62/86/33
f 66/87/34 67/88/34 68/89/34 65/90/34
f 71/91/31 70/92/31 67/88/31 66/87/31
f 72/93/32 71/94/32 66/87/32 65/90/32
f 71/95/35 72/96/35 69/97/35 70/98/35
f 69/99/30 72/100/30 65/90/30 68/89/30
f 70/101/33 69/102/33 68/89/33 67/88/33
o FlangePY_pfmdl
v 0.625000 0.375000 0.375000
v 0.625000 0.625000 0.375000
v 0.375000 0.375000 0.375000
v 0.375000 0.625000 0.375000
v 0.625000 0.375000 0.125000
v 0.625000 0.625000 0.125000
v 0.375000 0.625000 0.125000
v 0.375000 0.375000 0.125000
v 0.275000 0.275000 -0.000000
v 0.275000 0.725000 -0.000000
v 0.725000 0.725000 0.000000
v 0.725000 0.275000 0.000000
v 0.725000 0.275000 0.125000
v 0.725000 0.725000 0.125000
v 0.275000 0.725000 0.125000
v 0.275000 0.275000 0.125000
vt 0.890625 0.882812
vt 0.910156 0.882812
vt 0.910156 0.894531
vt 0.890625 0.894531
vt 0.929688 0.882812
vt 0.949219 0.882812
vt 0.949219 0.894531
vt 0.929688 0.894531
vt 0.871094 0.882812
vt 0.871094 0.894531
vt 0.988281 0.847656
vt 0.953125 0.847656
vt 0.953125 0.812500
vt 0.988281 0.812500
vt 0.988281 0.855469
vt 0.953125 0.855469
vt 0.996094 0.812500
vt 0.996094 0.847656
vt 0.996094 0.859375
vt 0.996094 0.894531
vt 0.960938 0.894531
vt 0.960938 0.859375
vt 0.953125 0.804688
vt 0.988281 0.804688
vt 0.945312 0.847656
vt 0.945312 0.812500
vn 0.000000 -1.000000 0.000000
vn 0.000000 1.000000 0.000000
vn -1.000000 0.000000 -0.000000
vn 1.000000 0.000000 0.000000
vn 0.000000 0.000000 -1.000000
vn -0.000000 0.000000 1.000000
usemtl Conveyor
s off
f 73/103/36 75/104/36 80/105/36 77/106/36
f 76/107/37 74/108/37 78/109/37 79/110/37
f 75/104/38 76/107/38 79/110/38 80/105/38
f 74/111/39 73/103/39 77/106/39 78/112/39
f 82/113/40 83/114/40 84/115/40 81/116/40
f 87/117/37 86/118/37 83/114/37 82/113/37
f 88/119/38 87/120/38 82/113/38 81/116/38
f 87/121/41 88/122/41 85/123/41 86/124/41
f 85/125/36 88/126/36 81/116/36 84/115/36
f 86/127/39 85/128/39 84/115/39 83/114/39
o FlangePX_pfmdl
v 0.625000 0.375000 0.625000
v 0.625000 0.625000 0.625000
v 0.625000 0.375000 0.375000
v 0.625000 0.625000 0.375000
v 0.875000 0.375000 0.625000
v 0.875000 0.625000 0.625000
v 0.875000 0.625000 0.375000
v 0.875000 0.375000 0.375000
v 1.000000 0.275000 0.275000
v 1.000000 0.725000 0.275000
v 1.000000 0.725000 0.725000
v 1.000000 0.275000 0.725000
v 0.875000 0.275000 0.725000
v 0.875000 0.725000 0.725000
v 0.875000 0.725000 0.275000
v 0.875000 0.275000 0.275000
vt 0.890625 0.882812
vt 0.910156 0.882812
vt 0.910156 0.894531
vt 0.890625 0.894531
vt 0.929688 0.882812
vt 0.949219 0.882812
vt 0.949219 0.894531
vt 0.929688 0.894531
vt 0.871094 0.882812
vt 0.871094 0.894531
vt 0.988281 0.847656
vt 0.953125 0.847656
vt 0.953125 0.812500
vt 0.988281 0.812500
vt 0.988281 0.855469
vt 0.953125 0.855469
vt 0.996094 0.812500
vt 0.996094 0.847656
vt 0.996094 0.859375
vt 0.996094 0.894531
vt 0.960938 0.894531
vt 0.960938 0.859375
vt 0.953125 0.804688
vt 0.988281 0.804688
vt 0.945312 0.847656
vt 0.945312 0.812500
vn 0.000000 -1.000000 0.000000
vn 0.000000 1.000000 0.000000
vn 0.000000 0.000000 -1.000000
vn 0.000000 0.000000 1.000000
vn 1.000000 0.000000 0.000000
vn -1.000000 0.000000 0.000000
usemtl Conveyor
s off
f 89/129/42 91/130/42 96/131/42 93/132/42
f 92/133/43 90/134/43 94/135/43 95/136/43
f 91/130/44 92/133/44 95/136/44 96/131/44
f 90/137/45 89/129/45 93/132/45 94/138/45
f 98/139/46 99/140/46 100/141/46 97/142/46
f 103/143/43 102/144/43 99/140/43 98/139/43
f 104/145/44 103/146/44 98/139/44 97/142/44
f 103/147/47 104/148/47 101/149/47 102/150/47
f 101/151/42 104/152/42 97/142/42 100/141/42
f 102/153/45 101/154/45 100/141/45 99/140/45
o FlangeMY_pfmdl
v 0.375000 0.375000 0.625000
v 0.375000 0.625000 0.625000
v 0.625000 0.375000 0.625000
v 0.625000 0.625000 0.625000
v 0.375000 0.375000 0.875000
v 0.375000 0.625000 0.875000
v 0.625000 0.625000 0.875000
v 0.625000 0.375000 0.875000
v 0.725000 0.275000 1.000000
v 0.725000 0.725000 1.000000
v 0.275000 0.725000 1.000000
v 0.275000 0.275000 1.000000
v 0.275000 0.275000 0.875000
v 0.275000 0.725000 0.875000
v 0.725000 0.725000 0.875000
v 0.725000 0.275000 0.875000
vt 0.890625 0.882812
vt 0.910156 0.882812
vt 0.910156 0.894531
vt 0.890625 0.894531
vt 0.929688 0.882812
vt 0.949219 0.882812
vt 0.949219 0.894531
vt 0.929688 0.894531
vt 0.871094 0.882812
vt 0.871094 0.894531
vt 0.988281 0.847656
vt 0.953125 0.847656
vt 0.953125 0.812500
vt 0.988281 0.812500
vt 0.988281 0.855469
vt 0.953125 0.855469
vt 0.996094 0.812500
vt 0.996094 0.847656
vt 0.996094 0.859375
vt 0.996094 0.894531
vt 0.960938 0.894531
vt 0.960938 0.859375
vt 0.953125 0.804688
vt 0.988281 0.804688
vt 0.945312 0.847656
vt 0.945312 0.812500
vn 0.000000 -1.000000 0.000000
vn 0.000000 1.000000 0.000000
vn 1.000000 0.000000 0.000000
vn -1.000000 0.000000 0.000000
vn 0.000000 0.000000 1.000000
vn 0.000000 0.000000 -1.000000
usemtl Conveyor
s off
f 105/155/48 107/156/48 112/157/48 109/158/48
f 108/159/49 106/160/49 110/161/49 111/162/49
f 107/156/50 108/159/50 111/162/50 112/157/50
f 106/163/51 105/155/51 109/158/51 110/164/51
f 114/165/52 115/166/52 116/167/52 113/168/52
f 119/169/49 118/170/49 115/166/49 114/165/49
f 120/171/50 119/172/50 114/165/50 113/168/50
f 119/173/53 120/174/53 117/175/53 118/176/53
f 117/177/48 120/178/48 113/168/48 116/167/48
f 118/179/51 117/180/51 116/167/51 115/166/51
