# Blender v2.74 (sub 0) OBJ File: 'pipes.blend'
# www.blender.org
mtllib pipes.mtl
o FlangeMZ_pfmdl
v 0.625000 0.375000 0.375000
v 0.375000 0.375000 0.375000
v 0.625000 0.375000 0.625000
v 0.375000 0.375000 0.625000
v 0.625000 0.125000 0.375000
v 0.375000 0.125000 0.375000
v 0.375000 0.125000 0.625000
v 0.625000 0.125000 0.625000
v 0.725000 0.000000 0.725000
v 0.275000 0.000000 0.725000
v 0.275000 0.000000 0.275000
v 0.725000 0.000000 0.275000
v 0.725000 0.125000 0.275000
v 0.275000 0.125000 0.275000
v 0.275000 0.125000 0.725000
v 0.725000 0.125000 0.725000
vt 0.890625 0.882812
vt 0.910156 0.882812
vt 0.910156 0.894531
vt 0.890625 0.894531
vt 0.929688 0.882812
vt 0.949219 0.882812
vt 0.949219 0.894531
vt 0.929688 0.894531
vt 0.871094 0.882812
vt 0.871094 0.894531
vt 0.988281 0.847656
vt 0.953125 0.847656
vt 0.953125 0.812500
vt 0.988281 0.812500
vt 0.988281 0.855469
vt 0.953125 0.855469
vt 0.996094 0.812500
vt 0.996094 0.847656
vt 0.996094 0.859375
vt 0.996094 0.894531
vt 0.960938 0.894531
vt 0.960938 0.859375
vt 0.953125 0.804688
vt 0.988281 0.804688
vt 0.945312 0.847656
vt 0.945312 0.812500
vn 1.000000 0.000000 0.000000
vn -1.000000 0.000000 0.000000
vn 0.000000 0.000000 1.000000
vn 0.000000 0.000000 -1.000000
vn 0.000000 -1.000000 0.000000
vn 0.000000 1.000000 0.000000
usemtl Conveyor
s off
f 1/1/1 3/2/1 8/3/1 5/4/1
f 4/5/2 2/6/2 6/7/2 7/8/2
f 3/2/3 4/5/3 7/8/3 8/3/3
f 2/9/4 1/1/4 5/4/4 6/10/4
f 10/11/5 11/12/5 12/13/5 9/14/5
f 15/15/2 14/16/2 11/12/2 10/11/2
f 16/17/3 15/18/3 10/11/3 9/14/3
f 15/19/6 16/20/6 13/21/6 14/22/6
f 13/23/1 16/24/1 9/14/1 12/13/1
f 14/25/4 13/26/4 12/13/4 11/12/4
o FlangePZ_pfmdl
v 0.375000 0.625000 0.375000
v 0.625000 0.625000 0.375000
v 0.375000 0.625000 0.625000
v 0.625000 0.625000 0.625000
v 0.375000 0.875000 0.375000
v 0.625000 0.875000 0.375000
v 0.625000 0.875000 0.625000
v 0.375000 0.875000 0.625000
v 0.275000 1.000000 0.725000
v 0.725000 1.000000 0.725000
v 0.725000 1.000000 0.275000
v 0.275000 1.000000 0.275000
v 0.275000 0.875000 0.275000
v 0.725000 0.875000 0.275000
v 0.725000 0.875000 0.725000
v 0.275000 0.875000 0.725000
vt 0.890625 0.882812
vt 0.910156 0.882812
vt 0.910156 0.894531
vt 0.890625 0.894531
vt 0.929688 0.882812
vt 0.949219 0.882812
vt 0.949219 0.894531
vt 0.929688 0.894531
vt 0.871094 0.882812
vt 0.871094 0.894531
vt 0.988281 0.847656
vt 0.953125 0.847656
vt 0.953125 0.812500
vt 0.988281 0.812500
vt 0.988281 0.855469
vt 0.953125 0.855469
vt 0.996094 0.812500
vt 0.996094 0.847656
vt 0.996094 0.859375
vt 0.996094 0.894531
vt 0.960938 0.894531
vt 0.960938 0.859375
vt 0.953125 0.804688
vt 0.988281 0.804688
vt 0.945312 0.847656
vt 0.945312 0.812500
vn -1.000000 -0.000000 0.000000
vn 1.000000 0.000000 0.000000
vn 0.000000 0.000000 1.000000
vn 0.000000 0.000000 -1.000000
vn 0.000000 1.000000 0.000000
vn 0.000000 -1.000000 0.000000
usemtl Conveyor
s off
f 17/27/7 19/28/7 24/29/7 21/30/7
f 20/31/8 18/32/8 22/33/8 23/34/8
f 19/28/9 20/31/9 23/34/9 24/29/9
f 18/35/10 17/27/10 21/30/10 22/36/10
f 26/37/11 27/38/11 28/39/11 25/40/11
f 31/41/8 30/42/8 27/38/8 26/37/8
f 32/43/9 31/44/9 26/37/9 25/40/9
f 31/45/12 32/46/12 29/47/12 30/48/12
f 29/49/7 32/50/7 25/40/7 28/39/7
f 30/51/10 29/52/10 28/39/10 27/38/10
o FlangeMX_pfmdl
v 0.375000 0.375000 0.375000
v 0.375000 0.625000 0.375000
v 0.375000 0.375000 0.625000
v 0.375000 0.625000 0.625000
v 0.125000 0.375000 0.375000
v 0.125000 0.625000 0.375000
v 0.125000 0.625000 0.625000
v 0.125000 0.375000 0.625000
v 0.000000 0.275000 0.725000
v 0.000000 0.725000 0.725000
v 0.000000 0.725000 0.275000
v 0.000000 0.275000 0.275000
v 0.125000 0.275000 0.275000
v 0.125000 0.725000 0.275000
v 0.125000 0.725000 0.725000
v 0.125000 0.275000 0.725000
vt 0.890625 0.882812
vt 0.910156 0.882812
vt 0.910156 0.894531
vt 0.890625 0.894531
vt 0.929688 0.882812
vt 0.949219 0.882812
vt 0.949219 0.894531
vt 0.929688 0.894531
vt 0.871094 0.882812
vt 0.871094 0.894531
vt 0.988281 0.847656
vt 0.953125 0.847656
vt 0.953125 0.812500
vt 0.988281 0.812500
vt 0.988281 0.855469
vt 0.953125 0.855469
vt 0.996094 0.812500
vt 0.996094 0.847656
vt 0.996094 0.859375
vt 0.996094 0.894531
vt 0.960938 0.894531
vt 0.960938 0.859375
vt 0.953125 0.804688
vt 0.988281 0.804688
vt 0.945312 0.847656
vt 0.945312 0.812500
vn 0.000000 -1.000000 0.000000
vn 0.000000 1.000000 0.000000
vn 0.000000 0.000000 1.000000
vn 0.000000 0.000000 -1.000000
vn -1.000000 0.000000 0.000000
vn 1.000000 0.000000 0.000000
usemtl Conveyor
s off
f 33/53/13 35/54/13 40/55/13 37/56/13
f 36/57/14 34/58/14 38/59/14 39/60/14
f 35/54/15 36/57/15 39/60/15 40/55/15
f 34/61/16 33/53/16 37/56/16 38/62/16
f 42/63/17 43/64/17 44/65/17 41/66/17
f 47/67/14 46/68/14 43/64/14 42/63/14
f 48/69/15 47/70/15 42/63/15 41/66/15
f 47/71/18 48/72/18 45/73/18 46/74/18
f 45/75/13 48/76/13 41/66/13 44/65/13
f 46/77/16 45/78/16 44/65/16 43/64/16
o FlangePY_pfmdl
v 0.625000 0.375000 0.375000
v 0.625000 0.625000 0.375000
v 0.375000 0.375000 0.375000
v 0.375000 0.625000 0.375000
v 0.625000 0.375000 0.125000
v 0.625000 0.625000 0.125000
v 0.375000 0.625000 0.125000
v 0.375000 0.375000 0.125000
v 0.275000 0.275000 -0.000000
v 0.275000 0.725000 -0.000000
v 0.725000 0.725000 0.000000
v 0.725000 0.275000 0.000000
v 0.725000 0.275000 0.125000
v 0.725000 0.725000 0.125000
v 0.275000 0.725000 0.125000
v 0.275000 0.275000 0.125000
vt 0.890625 0.882812
vt 0.910156 0.882812
vt 0.910156 0.894531
vt 0.890625 0.894531
vt 0.929688 0.882812
vt 0.949219 0.882812
vt 0.949219 0.894531
vt 0.929688 0.894531
vt 0.871094 0.882812
vt 0.871094 0.894531
vt 0.988281 0.847656
vt 0.953125 0.847656
vt 0.953125 0.812500
vt 0.988281 0.812500
vt 0.988281 0.855469
vt 0.953125 0.855469
vt 0.996094 0.812500
vt 0.996094 0.847656
vt 0.996094 0.859375
vt 0.996094 0.894531
vt 0.960938 0.894531
vt 0.960938 0.859375
vt 0.953125 0.804688
vt 0.988281 0.804688
vt 0.945312 0.847656
vt 0.945312 0.812500
vn 0.000000 -1.000000 0.000000
vn 0.000000 1.000000 0.000000
vn -1.000000 0.000000 -0.000000
vn 1.000000 0.000000 0.000000
vn 0.000000 0.000000 -1.000000
vn -0.000000 0.000000 1.000000
usemtl Conveyor
s off
f 49/79/19 51/80/19 56/81/19 53/82/19
f 52/83/20 50/84/20 54/85/20 55/86/20
f 51/80/21 52/83/21 55/86/21 56/81/21
f 50/87/22 49/79/22 53/82/22 54/88/22
f 58/89/23 59/90/23 60/91/23 57/92/23
f 63/93/20 62/94/20 59/90/20 58/89/20
f 64/95/21 63/96/21 58/89/21 57/92/21
f 63/97/24 64/98/24 61/99/24 62/100/24
f 61/101/19 64/102/19 57/92/19 60/91/19
f 62/103/22 61/104/22 60/91/22 59/90/22
o FlangePX_pfmdl
v 0.625000 0.375000 0.625000
v 0.625000 0.625000 0.625000
v 0.625000 0.375000 0.375000
v 0.625000 0.625000 0.375000
v 0.875000 0.375000 0.625000
v 0.875000 0.625000 0.625000
v 0.875000 0.625000 0.375000
v 0.875000 0.375000 0.375000
v 1.000000 0.275000 0.275000
v 1.000000 0.725000 0.275000
v 1.000000 0.725000 0.725000
v 1.000000 0.275000 0.725000
v 0.875000 0.275000 0.725000
v 0.875000 0.725000 0.725000
v 0.875000 0.725000 0.275000
v 0.875000 0.275000 0.275000
vt 0.890625 0.882812
vt 0.910156 0.882812
vt 0.910156 0.894531
vt 0.890625 0.894531
vt 0.929688 0.882812
vt 0.949219 0.882812
vt 0.949219 0.894531
vt 0.929688 0.894531
vt 0.871094 0.882812
vt 0.871094 0.894531
vt 0.988281 0.847656
vt 0.953125 0.847656
vt 0.953125 0.812500
vt 0.988281 0.812500
vt 0.988281 0.855469
vt 0.953125 0.855469
vt 0.996094 0.812500
vt 0.996094 0.847656
vt 0.996094 0.859375
vt 0.996094 0.894531
vt 0.960938 0.894531
vt 0.960938 0.859375
vt 0.953125 0.804688
vt 0.988281 0.804688
vt 0.945312 0.847656
vt 0.945312 0.812500
vn 0.000000 -1.000000 0.000000
vn 0.000000 1.000000 0.000000
vn 0.000000 0.000000 -1.000000
vn 0.000000 0.000000 1.000000
vn 1.000000 0.000000 0.000000
vn -1.000000 0.000000 0.000000
usemtl Conveyor
s off
f 65/105/25 67/106/25 72/107/25 69/108/25
f 68/109/26 66/110/26 70/111/26 71/112/26
f 67/106/27 68/109/27 71/112/27 72/107/27
f 66/113/28 65/105/28 69/108/28 70/114/28
f 74/115/29 75/116/29 76/117/29 73/118/29
f 79/119/26 78/120/26 75/116/26 74/115/26
f 80/121/27 79/122/27 74/115/27 73/118/27
f 79/123/30 80/124/30 77/125/30 78/126/30
f 77/127/25 80/128/25 73/118/25 76/117/25
f 78/129/28 77/130/28 76/117/28 75/116/28
o FlangeMY_pfmdl
v 0.375000 0.375000 0.625000
v 0.375000 0.625000 0.625000
v 0.625000 0.375000 0.625000
v 0.625000 0.625000 0.625000
v 0.375000 0.375000 0.875000
v 0.375000 0.625000 0.875000
v 0.625000 0.625000 0.875000
v 0.625000 0.375000 0.875000
v 0.725000 0.275000 1.000000
v 0.725000 0.725000 1.000000
v 0.275000 0.725000 1.000000
v 0.275000 0.275000 1.000000
v 0.275000 0.275000 0.875000
v 0.275000 0.725000 0.875000
v 0.725000 0.725000 0.875000
v 0.725000 0.275000 0.875000
vt 0.890625 0.882812
vt 0.910156 0.882812
vt 0.910156 0.894531
vt 0.890625 0.894531
vt 0.929688 0.882812
vt 0.949219 0.882812
vt 0.949219 0.894531
vt 0.929688 0.894531
vt 0.871094 0.882812
vt 0.871094 0.894531
vt 0.988281 0.847656
vt 0.953125 0.847656
vt 0.953125 0.812500
vt 0.988281 0.812500
vt 0.988281 0.855469
vt 0.953125 0.855469
vt 0.996094 0.812500
vt 0.996094 0.847656
vt 0.996094 0.859375
vt 0.996094 0.894531
vt 0.960938 0.894531
vt 0.960938 0.859375
vt 0.953125 0.804688
vt 0.988281 0.804688
vt 0.945312 0.847656
vt 0.945312 0.812500
vn 0.000000 -1.000000 0.000000
vn 0.000000 1.000000 0.000000
vn 1.000000 0.000000 0.000000
vn -1.000000 0.000000 0.000000
vn 0.000000 0.000000 1.000000
vn 0.000000 0.000000 -1.000000
usemtl Conveyor
s off
f 81/131/31 83/132/31 88/133/31 85/134/31
f 84/135/32 82/136/32 86/137/32 87/138/32
f 83/132/33 84/135/33 87/138/33 88/133/33
f 82/139/34 81/131/34 85/134/34 86/140/34
f 90/141/35 91/142/35 92/143/35 89/144/35
f 95/145/32 94/146/32 91/142/32 90/141/32
f 96/147/33 95/148/33 90/141/33 89/144/33
f 95/149/36 96/150/36 93/151/36 94/152/36
f 93/153/31 96/154/31 89/144/31 92/143/31
f 94/155/34 93/156/34 92/143/34 91/142/34
o Center_pcmdl
v 0.375000 0.375000 0.625000
v 0.375000 0.625000 0.625000
v 0.375000 0.375000 0.375000
v 0.375000 0.625000 0.375000
v 0.625000 0.375000 0.625000
v 0.625000 0.625000 0.625000
v 0.625000 0.375000 0.375000
v 0.625000 0.625000 0.375000
vt 0.910156 0.882812
vt 0.890625 0.882812
vt 0.890625 0.863281
vt 0.910156 0.863281
vt 0.871094 0.882812
vt 0.871094 0.863281
vt 0.949219 0.882812
vt 0.929688 0.882812
vt 0.929688 0.863281
vt 0.949219 0.863281
vt 0.851562 0.882812
vt 0.851562 0.863281
vt 0.832031 0.882812
vt 0.832031 0.863281
vn -1.000000 0.000000 0.000000
vn 0.000000 0.000000 -1.000000
vn 1.000000 0.000000 0.000000
vn 0.000000 0.000000 1.000000
vn 0.000000 -1.000000 0.000000
vn 0.000000 1.000000 0.000000
usemtl Conveyor
s off
f 98/157/37 100/158/37 99/159/37 97/160/37
f 100/158/38 104/161/38 103/162/38 99/159/38
f 104/163/39 102/164/39 101/165/39 103/166/39
f 102/164/40 98/157/40 97/160/40 101/165/40
f 97/167/41 99/168/41 103/162/41 101/161/41
f 102/168/42 104/167/42 100/169/42 98/170/42
