# Blender v2.74 (sub 0) OBJ File: 'pump.blend'
# www.blender.org
mtllib pump.mtl
o Pump_pumdl
v 0.375000 0.375000 0.625000
v 0.375000 0.625000 0.625000
v 0.625000 0.375000 0.625000
v 0.625000 0.625000 0.625000
v 0.375000 0.375000 0.875000
v 0.375000 0.625000 0.875000
v 0.625000 0.625000 0.875000
v 0.625000 0.375000 0.875000
v 0.725000 0.275000 1.000000
v 0.725000 0.725000 1.000000
v 0.275000 0.725000 1.000000
v 0.275000 0.275000 1.000000
v 0.275000 0.275000 0.875000
v 0.275000 0.725000 0.875000
v 0.725000 0.725000 0.875000
v 0.725000 0.275000 0.875000
v 0.125000 0.125000 0.125000
v 0.125000 0.750000 0.125000
v 0.875000 0.125000 0.125000
v 0.875000 0.750000 0.125000
v 0.125000 0.125000 0.375000
v 0.125000 0.750000 0.375000
v 0.875000 0.125000 0.375000
v 0.875000 0.750000 0.375000
v 0.312500 0.125000 0.375000
v 0.312500 0.687500 0.375000
v 0.687500 0.125000 0.375000
v 0.687500 0.687500 0.375000
v 0.687500 0.687500 0.625000
v 0.687500 0.125000 0.625000
v 0.312500 0.687500 0.625000
v 0.312500 0.125000 0.625000
v 0.125000 0.125000 0.750000
v 0.125000 0.750000 0.750000
v 0.875000 0.125000 0.750000
v 0.875000 0.750000 0.750000
v 0.125000 0.125000 0.812500
v 0.125000 0.750000 0.812500
v 0.875000 0.125000 0.812500
v 0.875000 0.750000 0.812500
v 0.275000 0.275000 0.000000
v 0.275000 0.725000 0.000000
v 0.725000 0.725000 -0.000000
v 0.725000 0.275000 -0.000000
v 0.725000 0.275000 0.125000
v 0.725000 0.725000 0.125000
v 0.275000 0.725000 0.125000
v 0.275000 0.275000 0.125000
v 0.812500 0.625000 0.500000
v 0.812500 0.312500 0.500000
v 0.687500 0.625000 0.500000
v 0.687500 0.312500 0.500000
v 0.812500 0.625000 0.375000
v 0.812500 0.312500 0.375000
v 0.687500 0.625000 0.375000
v 0.687500 0.312500 0.375000
v 0.812375 0.624687 0.499875
v 0.812375 0.312813 0.499875
v 0.687625 0.624687 0.499875
v 0.687625 0.312813 0.499875
v 0.812375 0.624687 0.375125
v 0.812375 0.312813 0.375125
v 0.687625 0.624687 0.375125
v 0.687625 0.312813 0.375125
vt 0.890625 0.882812
vt 0.910156 0.882812
vt 0.910156 0.894531
vt 0.890625 0.894531
vt 0.929688 0.882812
vt 0.949219 0.882812
vt 0.949219 0.894531
vt 0.929688 0.894531
vt 0.871094 0.882812
vt 0.871094 0.894531
vt 0.933594 0.847656
vt 0.898438 0.847656
vt 0.898438 0.812500
vt 0.933594 0.812500
vt 0.933594 0.855469
vt 0.898438 0.855469
vt 0.941406 0.812500
vt 0.941406 0.847656
vt 0.996094 0.859375
vt 0.996094 0.894531
vt 0.960938 0.894531
vt 0.960938 0.859375
vt 0.898438 0.804688
vt 0.933594 0.804688
vt 0.890625 0.847656
vt 0.890625 0.812500
vt 0.707031 0.773438
vt 0.761719 0.773438
vt 0.761719 0.820312
vt 0.707031 0.820312
vt 0.691406 0.773438
vt 0.691406 0.820312
vt 0.761719 0.832031
vt 0.707031 0.832031
vt 0.687500 0.773438
vt 0.687500 0.816406
vt 0.664062 0.816406
vt 0.664062 0.773438
vt 0.652344 0.816406
vt 0.652344 0.773438
vt 0.687500 0.828125
vt 0.664062 0.828125
vt 0.703125 0.773438
vt 0.703125 0.820312
vt 0.761719 0.824219
vt 0.707031 0.824219
vt 0.878906 0.847656
vt 0.843750 0.847656
vt 0.843750 0.812500
vt 0.878906 0.812500
vt 0.878906 0.855469
vt 0.843750 0.855469
vt 0.886719 0.812500
vt 0.886719 0.847656
vt 0.843750 0.804688
vt 0.878906 0.804688
vt 0.835938 0.847656
vt 0.835938 0.812500
vt 0.605469 0.765625
vt 0.589844 0.765625
vt 0.589844 0.726562
vt 0.605469 0.726562
vt 0.621094 0.765625
vt 0.621094 0.726562
vt 0.570312 0.750000
vt 0.585938 0.750000
vt 0.585938 0.765625
vt 0.570312 0.765625
vn 0.000000 -1.000000 -0.000000
vn 0.000000 1.000000 0.000000
vn 1.000000 0.000000 -0.000000
vn -1.000000 0.000000 0.000000
vn 0.000000 0.000000 1.000000
vn 0.000000 0.000000 -1.000000
usemtl Conveyor
s off
f 1/1/1 3/2/1 8/3/1 5/4/1
f 4/5/2 2/6/2 6/7/2 7/8/2
f 3/2/3 4/5/3 7/8/3 8/3/3
f 2/9/4 1/1/4 5/4/4 6/10/4
f 10/11/5 11/12/5 12/13/5 9/14/5
f 15/15/2 14/16/2 11/12/2 10/11/2
f 16/17/3 15/18/3 10/11/3 9/14/3
f 15/19/6 16/20/6 13/21/6 14/22/6
f 13/23/1 16/24/1 9/14/1 12/13/1
f 14/25/4 13/26/4 12/13/4 11/12/4
f 18/27/6 20/28/6 19/29/6 17/30/6
f 20/31/3 24/27/3 23/30/3 19/32/3
f 24/27/5 22/28/5 21/29/5 23/30/5
f 22/31/4 18/27/4 17/30/4 21/32/4
f 22/33/2 24/34/2 20/30/2 18/29/2
f 28/35/6 27/36/6 25/37/6 26/38/6
f 29/38/5 31/35/5 32/36/5 30/37/5
f 26/38/4 25/37/4 32/39/4 31/40/4
f 28/37/2 26/36/2 31/41/2 29/42/2
f 27/39/3 28/40/3 29/38/3 30/37/3
f 34/27/6 36/28/6 35/29/6 33/30/6
f 36/43/3 40/27/3 39/30/3 35/44/3
f 40/27/5 38/28/5 37/29/5 39/30/5
f 38/43/4 34/27/4 33/30/4 37/44/4
f 38/45/2 40/46/2 36/30/2 34/29/2
f 42/47/6 43/48/6 44/49/6 41/50/6
f 47/51/2 46/52/2 43/48/2 42/47/2
f 48/53/4 47/54/4 42/47/4 41/50/4
f 45/55/1 48/56/1 41/50/1 44/49/1
f 46/57/3 45/58/3 44/49/3 43/48/3
f 49/59/5 51/60/5 52/61/5 50/62/5
f 53/63/3 49/59/3 50/62/3 54/64/3
f 55/59/6 53/63/6 54/64/6 56/62/6
f 51/60/4 55/59/4 56/62/4 52/61/4
f 51/65/2 49/66/2 53/67/2 55/68/2
f 56/66/1 54/67/1 50/68/1 52/65/1
f 57/59/6 58/62/6 60/61/6 59/60/6
f 61/63/4 62/64/4 58/62/4 57/59/4
f 63/59/5 64/62/5 62/64/5 61/63/5
f 59/60/3 60/61/3 64/62/3 63/59/3
f 59/65/1 63/68/1 61/67/1 57/66/1
f 64/66/2 60/65/2 58/68/2 62/67/2
o Baseplate_pmdl
v 0.031250 0.000000 0.968750
v 0.031250 0.125000 0.968750
v 0.031250 0.000000 0.031250
v 0.031250 0.125000 0.031250
v 0.968750 0.000000 0.968750
v 0.968750 0.125000 0.968750
v 0.968750 0.000000 0.031250
v 0.968750 0.125000 0.031250
vt 0.824219 0.832031
vt 0.765625 0.832031
vt 0.765625 0.824219
vt 0.824219 0.824219
vt 0.765625 0.894531
vt 0.765625 0.835938
vt 0.824219 0.835938
vt 0.824219 0.894531
vn -1.000000 0.000000 0.000000
vn 0.000000 0.000000 -1.000000
vn 1.000000 0.000000 0.000000
vn 0.000000 0.000000 1.000000
vn 0.000000 -1.000000 0.000000
vn 0.000000 1.000000 0.000000
usemtl Conveyor
s off
f 66/69/7 68/70/7 67/71/7 65/72/7
f 68/70/8 72/69/8 71/72/8 67/71/8
f 72/69/9 70/70/9 69/71/9 71/72/9
f 70/70/10 66/69/10 65/72/10 69/71/10
f 65/73/11 67/74/11 71/75/11 69/76/11
f 70/75/12 72/76/12 68/73/12 66/74/12
