# Blender v2.74 (sub 0) OBJ File: 'sprayer.blend'
# www.blender.org
mtllib sprayer.mtl
o Sprayer_spmdl
v 0.125000 0.125000 0.687500
v 0.125000 0.750000 0.687500
v 0.875000 0.125000 0.687500
v 0.875000 0.750000 0.687500
v 0.125000 0.125000 0.875000
v 0.125000 0.750000 0.875000
v 0.875000 0.125000 0.875000
v 0.875000 0.750000 0.875000
v 0.275000 0.275000 0.000000
v 0.275000 0.725000 0.000000
v 0.725000 0.725000 -0.000000
v 0.725000 0.275000 -0.000000
v 0.725000 0.275000 0.125000
v 0.725000 0.725000 0.125000
v 0.275000 0.725000 0.125000
v 0.275000 0.275000 0.125000
v 0.275000 0.875000 0.150000
v 0.275000 0.875000 0.600000
v 0.725000 0.875000 0.600000
v 0.725000 0.875000 0.150000
v 0.725000 0.750000 0.150000
v 0.725000 0.750000 0.600000
v 0.275000 0.750000 0.600000
v 0.275000 0.750000 0.150000
vt 0.707031 0.773438
vt 0.761719 0.773438
vt 0.761719 0.820312
vt 0.707031 0.820312
vt 0.691406 0.773438
vt 0.691406 0.820312
vt 0.761719 0.832031
vt 0.707031 0.832031
vt 0.878906 0.847656
vt 0.843750 0.847656
vt 0.843750 0.812500
vt 0.878906 0.812500
vt 0.878906 0.855469
vt 0.843750 0.855469
vt 0.886719 0.812500
vt 0.886719 0.847656
vt 0.843750 0.804688
vt 0.878906 0.804688
vt 0.835938 0.847656
vt 0.835938 0.812500
vt 0.953125 0.847656
vt 0.953125 0.812500
vt 0.988281 0.812500
vt 0.988281 0.847656
vt 0.933594 0.847656
vt 0.898438 0.847656
vt 0.898438 0.812500
vt 0.933594 0.812500
vt 0.933594 0.855469
vt 0.898438 0.855469
vt 0.941406 0.812500
vt 0.941406 0.847656
vt 0.898438 0.804688
vt 0.933594 0.804688
vt 0.890625 0.847656
vt 0.890625 0.812500
vn -0.000000 0.000000 -1.000000
vn 1.000000 0.000000 0.000000
vn 0.000000 0.000000 1.000000
vn -1.000000 0.000000 0.000000
vn 0.000000 1.000000 0.000000
vn 0.000000 -1.000000 0.000000
usemtl Conveyor
s off
f 2/1/1 4/2/1 3/3/1 1/4/1
f 4/5/2 8/1/2 7/4/2 3/6/2
f 8/1/3 6/2/3 5/3/3 7/4/3
f 6/5/4 2/1/4 1/4/4 5/6/4
f 6/7/5 8/8/5 4/4/5 2/3/5
f 10/9/1 11/10/1 12/11/1 9/12/1
f 15/13/5 14/14/5 11/10/5 10/9/5
f 16/15/4 15/16/4 10/9/4 9/12/4
f 13/17/6 16/18/6 9/12/6 12/11/6
f 14/19/2 13/20/2 12/11/2 11/10/2
f 15/21/3 16/22/3 13/23/3 14/24/3
f 18/25/5 19/26/5 20/27/5 17/28/5
f 23/29/3 22/30/3 19/26/3 18/25/3
f 24/31/4 23/32/4 18/25/4 17/28/4
f 21/33/1 24/34/1 17/28/1 20/27/1
f 22/35/2 21/36/2 20/27/2 19/26/2
f 23/21/6 24/22/6 21/23/6 22/24/6
o Baseplate_pmdl
v 0.031250 0.000000 0.968750
v 0.031250 0.125000 0.968750
v 0.031250 0.000000 0.031250
v 0.031250 0.125000 0.031250
v 0.968750 0.000000 0.968750
v 0.968750 0.125000 0.968750
v 0.968750 0.000000 0.031250
v 0.968750 0.125000 0.031250
vt 0.824219 0.832031
vt 0.765625 0.832031
vt 0.765625 0.824219
vt 0.824219 0.824219
vt 0.765625 0.894531
vt 0.765625 0.835938
vt 0.824219 0.835938
vt 0.824219 0.894531
vn -1.000000 0.000000 0.000000
vn 0.000000 0.000000 -1.000000
vn 1.000000 0.000000 0.000000
vn 0.000000 0.000000 1.000000
vn 0.000000 -1.000000 0.000000
vn 0.000000 1.000000 0.000000
usemtl Conveyor
s off
f 26/37/7 28/38/7 27/39/7 25/40/7
f 28/38/8 32/37/8 31/40/8 27/39/8
f 32/37/9 30/38/9 29/39/9 31/40/9
f 30/38/10 26/37/10 25/40/10 29/39/10
f 25/41/11 27/42/11 31/43/11 29/44/11
f 30/43/12 32/44/12 28/41/12 26/42/12
o Tank_tmdl
v 0.093750 0.125000 0.656250
v 0.093750 0.125000 0.093750
v 0.906250 0.125000 0.656250
v 0.906250 0.125000 0.093750
v 0.093750 0.750000 0.656250
v 0.093750 0.750000 0.093750
v 0.906250 0.750000 0.093750
v 0.906250 0.750000 0.656250
v 0.093750 0.125000 0.656250
v 0.093750 0.125000 0.093750
v 0.906250 0.125000 0.656250
v 0.906250 0.125000 0.093750
v 0.093750 0.750000 0.656250
v 0.093750 0.750000 0.093750
v 0.906250 0.750000 0.093750
v 0.906250 0.750000 0.656250
vt 0.546875 0.769531
vt 0.546875 0.828125
vt 0.589844 0.828125
vt 0.589844 0.769531
vt 0.644531 0.847656
vt 0.644531 0.894531
vt 0.695312 0.894531
vt 0.695312 0.847656
vt 0.609375 0.832031
vt 0.609375 0.894531
vt 0.644531 0.832031
vt 0.695312 0.832031
vt 0.609375 0.847656
vn 0.000000 -1.000000 0.000000
vn 0.000000 0.000000 -1.000000
vn -1.000000 0.000000 0.000000
vn 0.000000 0.000000 1.000000
vn 1.000000 0.000000 0.000000
vn 0.000000 1.000000 0.000000
usemtl Conveyor
s off
f 40/45/13 37/46/13 38/47/13 39/48/13
f 33/49/14 37/50/14 40/51/14 35/52/14
f 35/53/15 40/54/15 39/50/15 36/55/15
f 36/55/16 39/50/16 38/51/16 34/56/16
f 34/57/17 38/54/17 37/50/17 33/49/17
f 48/45/18 47/48/18 46/47/18 45/46/18
f 41/49/16 43/52/16 48/51/16 45/50/16
f 43/53/17 44/55/17 47/50/17 48/54/17
f 44/55/14 42/56/14 46/51/14 47/50/14
f 42/57/15 41/49/15 45/50/15 46/54/15
o Center_pcmdl
v 0.375000 0.875000 0.500000
v 0.375000 1.125000 0.500000
v 0.375000 0.875000 0.250000
v 0.375000 1.125000 0.250000
v 0.625000 0.875000 0.500000
v 0.625000 1.125000 0.500000
v 0.625000 0.875000 0.250000
v 0.625000 1.125000 0.250000
v 0.375000 0.875000 1.875000
v 0.375000 1.125000 1.875000
v 0.625000 1.125000 1.875000
v 0.625000 0.875000 1.875000
vt 0.863281 0.863281
vt 0.878906 0.863281
vt 0.878906 0.878906
vt 0.863281 0.878906
vt 0.894531 0.863281
vt 0.894531 0.878906
vt 0.910156 0.863281
vt 0.910156 0.878906
vt 0.949219 0.863281
vt 0.949219 0.878906
vt 0.832031 0.878906
vt 0.832031 0.863281
vt 0.933594 0.863281
vt 0.933594 0.878906
vt 0.914062 0.878906
vt 0.914062 0.863281
vt 0.929688 0.863281
vt 0.929688 0.878906
vt 0.859375 0.878906
vt 0.843750 0.878906
vt 0.843750 0.863281
vt 0.859375 0.863281
vt 0.949219 0.894531
vt 0.832031 0.894531
vn -1.000000 0.000000 0.000000
vn 0.000000 0.000000 -1.000000
vn 1.000000 0.000000 0.000000
vn 0.000000 -1.000000 0.000000
vn 0.000000 1.000000 0.000000
vn 0.000000 0.000000 1.000000
usemtl Conveyor
s off
f 50/58/19 52/59/19 51/60/19 49/61/19
f 52/59/20 56/62/20 55/63/20 51/60/20
f 56/62/21 54/64/21 53/65/21 55/63/21
f 49/66/22 53/67/22 60/68/22 57/69/22
f 49/70/22 51/66/22 55/67/22 53/71/22
f 54/72/23 56/73/23 52/74/23 50/75/23
f 59/76/24 58/77/24 57/78/24 60/79/24
f 54/80/23 50/67/23 58/68/23 59/81/23
f 53/67/21 54/80/21 59/81/21 60/68/21
f 50/67/19 49/66/19 57/69/19 58/68/19
