# Blender v2.74 (sub 0) OBJ File: 'machines.blend'
# www.blender.org
mtllib machines.mtl
o Creative_Cache_ccmdl
v 0.300000 0.900000 0.100000
v 0.100000 0.900000 0.300000
v 0.100000 0.700000 0.100000
v 0.100000 0.700000 0.300000
v 0.300000 0.700000 0.100000
v 0.300000 0.900000 0.300000
v 0.000000 1.000000 0.241767
v 0.000000 1.000000 0.000000
v 0.241767 1.000000 0.000000
v 0.000000 0.758233 0.000000
v 0.000000 0.758233 0.241767
v 0.241767 0.758233 0.000000
v 0.241767 1.000000 0.241767
v 0.500000 0.900000 0.100000
v 0.700000 0.900000 0.100000
v 0.900000 0.900000 0.300000
v 0.900000 0.700000 0.100000
v 0.900000 0.700000 0.300000
v 0.700000 0.700000 0.100000
v 0.700000 0.900000 0.300000
v 1.000000 1.000000 0.241767
v 1.000000 1.000000 0.000000
v 0.758233 1.000000 0.000000
v 1.000000 0.758233 0.000000
v 1.000000 0.758233 0.241767
v 0.758233 0.758233 0.000000
v 0.758233 1.000000 0.241767
v 0.500000 0.700000 0.100000
v 0.500000 0.900000 0.300000
v 0.100000 0.900000 0.500000
v 0.300000 0.900000 0.900000
v 0.100000 0.900000 0.700000
v 0.100000 0.700000 0.900000
v 0.100000 0.700000 0.700000
v 0.300000 0.700000 0.900000
v 0.300000 0.900000 0.700000
v 0.000000 1.000000 0.758233
v 0.000000 1.000000 1.000000
v 0.241767 1.000000 1.000000
v 0.000000 0.758233 1.000000
v 0.000000 0.758233 0.758233
v 0.241767 0.758233 1.000000
v 0.241767 1.000000 0.758233
v 0.300000 0.900000 0.500000
v 0.100000 0.700000 0.500000
v 0.500000 0.900000 0.900000
v 0.500000 0.900000 0.500000
v 0.900000 0.900000 0.500000
v 0.700000 0.900000 0.900000
v 0.900000 0.900000 0.700000
v 0.900000 0.700000 0.900000
v 0.900000 0.700000 0.700000
v 0.700000 0.700000 0.900000
v 0.700000 0.900000 0.700000
v 1.000000 1.000000 0.758233
v 1.000000 1.000000 1.000000
v 0.758233 1.000000 1.000000
v 1.000000 0.758233 1.000000
v 1.000000 0.758233 0.758233
v 0.758233 0.758233 1.000000
v 0.758233 1.000000 0.758233
v 0.500000 0.700000 0.900000
v 0.700000 0.900000 0.500000
v 0.500000 0.900000 0.700000
v 0.900000 0.700000 0.500000
v 0.100000 0.500000 0.300000
v 0.100000 0.500000 0.100000
v 0.300000 0.100000 0.100000
v 0.100000 0.100000 0.300000
v 0.100000 0.300000 0.100000
v 0.100000 0.300000 0.300000
v 0.300000 0.300000 0.100000
v 0.300000 0.100000 0.300000
v 0.000000 0.000000 0.241767
v 0.000000 0.000000 0.000000
v 0.241767 0.000000 0.000000
v 0.000000 0.241767 0.000000
v 0.000000 0.241767 0.241767
v 0.241767 0.241767 0.000000
v 0.241767 0.000000 0.241767
v 0.300000 0.500000 0.100000
v 0.500000 0.100000 0.100000
v 0.500000 0.500000 0.100000
v 0.900000 0.500000 0.300000
v 0.900000 0.500000 0.100000
v 0.700000 0.100000 0.100000
v 0.900000 0.100000 0.300000
v 0.900000 0.300000 0.100000
v 0.900000 0.300000 0.300000
v 0.700000 0.300000 0.100000
v 0.700000 0.100000 0.300000
v 1.000000 0.000000 0.241767
v 1.000000 0.000000 0.000000
v 0.758233 0.000000 0.000000
v 1.000000 0.241767 0.000000
v 1.000000 0.241767 0.241767
v 0.758233 0.241767 0.000000
v 0.758233 0.000000 0.241767
v 0.500000 0.300000 0.100000
v 0.700000 0.500000 0.100000
v 0.500000 0.100000 0.300000
v 0.100000 0.500000 0.700000
v 0.100000 0.500000 0.900000
v 0.100000 0.100000 0.500000
v 0.100000 0.500000 0.500000
v 0.300000 0.100000 0.900000
v 0.100000 0.100000 0.700000
v 0.100000 0.300000 0.900000
v 0.100000 0.300000 0.700000
v 0.300000 0.300000 0.900000
v 0.300000 0.100000 0.700000
v 0.000000 0.000000 0.758233
v 0.000000 0.000000 1.000000
v 0.241767 0.000000 1.000000
v 0.000000 0.241767 1.000000
v 0.000000 0.241767 0.758233
v 0.241767 0.241767 1.000000
v 0.241767 0.000000 0.758233
v 0.300000 0.500000 0.900000
v 0.300000 0.100000 0.500000
v 0.100000 0.300000 0.500000
v 0.500000 0.100000 0.900000
v 0.500000 0.500000 0.900000
v 0.500000 0.100000 0.500000
v 0.900000 0.500000 0.700000
v 0.900000 0.500000 0.900000
v 0.900000 0.100000 0.500000
v 0.900000 0.500000 0.500000
v 0.700000 0.100000 0.900000
v 0.900000 0.100000 0.700000
v 0.900000 0.300000 0.900000
v 0.900000 0.300000 0.700000
v 0.700000 0.300000 0.900000
v 0.700000 0.100000 0.700000
v 1.000000 0.000000 0.758233
v 1.000000 0.000000 1.000000
v 0.758233 0.000000 1.000000
v 1.000000 0.241767 1.000000
v 1.000000 0.241767 0.758233
v 0.758233 0.241767 1.000000
v 0.758233 0.000000 0.758233
v 0.500000 0.300000 0.900000
v 0.700000 0.500000 0.900000
v 0.700000 0.100000 0.500000
v 0.500000 0.100000 0.700000
v 0.900000 0.300000 0.500000
vt 0.068359 0.242188
vt 0.068359 0.255859
vt 0.037109 0.255859
vt 0.031250 0.242188
vt 0.031250 0.224609
vt 0.068359 0.224609
vt 0.037109 0.238281
vt 0.064453 0.238281
vt 0.052734 0.238281
vt 0.000000 0.255859
vt 0.000000 0.224609
vt 0.031250 0.255859
vn -0.503200 0.000000 0.864200
vn 0.864200 0.000000 -0.503200
vn 0.864200 0.503200 0.000000
vn 0.000000 0.000000 -1.000000
vn 0.000000 1.000000 0.000000
vn -1.000000 0.000000 0.000000
vn 0.000000 0.503200 0.864200
vn 0.000000 -0.864200 -0.503200
vn -0.503200 -0.864200 0.000000
vn 0.000000 0.864200 0.503200
vn -0.864200 0.000000 0.503200
vn -0.932500 0.000000 0.361100
vn -0.932500 -0.361100 0.000000
vn 0.503200 0.864200 0.000000
vn 0.503200 0.000000 -0.864200
vn 0.000000 -0.503200 -0.864200
vn -0.864200 -0.503200 0.000000
vn 0.000000 -0.361100 -0.932500
vn 0.361100 0.000000 -0.932500
vn 0.000000 0.932500 0.361100
vn 0.361100 0.932500 0.000000
vn 0.503200 0.000000 0.864200
vn -0.864200 0.000000 -0.503200
vn -0.864200 0.503200 0.000000
vn 1.000000 0.000000 0.000000
vn 0.503200 -0.864200 0.000000
vn 0.864200 0.000000 0.503200
vn 0.932500 0.000000 0.361100
vn 0.932500 -0.361100 0.000000
vn -0.503200 0.864200 0.000000
vn -0.503200 0.000000 -0.864200
vn 0.864200 -0.503200 0.000000
vn -0.361100 0.000000 -0.932500
vn -0.361100 0.932500 0.000000
vn 0.000000 0.000000 1.000000
vn 0.000000 0.503200 -0.864200
vn 0.000000 -0.864200 0.503200
vn 0.000000 0.864200 -0.503200
vn -0.932500 0.000000 -0.361100
vn 0.000000 -0.503200 0.864200
vn 0.000000 -0.361100 0.932500
vn 0.361100 0.000000 0.932500
vn 0.000000 0.932500 -0.361100
vn 0.932500 0.000000 -0.361100
vn -0.361100 0.000000 0.932500
vn 0.000000 -1.000000 0.000000
vn -0.932500 0.361100 0.000000
vn 0.000000 0.361100 -0.932500
vn 0.000000 -0.932500 0.361100
vn 0.361100 -0.932500 0.000000
vn 0.932500 0.361100 0.000000
vn -0.361100 -0.932500 0.000000
vn 0.000000 0.361100 0.932500
vn 0.000000 -0.932500 -0.361100
usemtl Conveyor
s off
f 2/1/1 7/2/1 11/3/1
f 1/1/2 5/4/2 12/3/2
f 1/1/3 9/2/3 13/3/3
f 81/5/4 67/6/4 3/1/4
f 13/7/5 9/6/5 8/8/5
f 8/8/6 10/9/6 11/7/6
f 9/6/4 12/7/4 10/9/4
f 2/1/7 6/4/7 13/3/7
f 3/1/8 10/2/8 12/3/8
f 3/1/9 4/4/9 11/3/9
f 14/6/5 1/1/5 6/4/5
f 2/1/6 4/4/6 45/5/6
f 3/1/6 67/6/6 66/5/6
f 2/1/5 30/6/5 44/5/5
f 14/6/4 28/5/4 5/4/4
f 5/10/10 28/11/10 12/12/10
f 81/11/11 5/10/11 12/12/11
f 105/10/12 45/11/12 11/12/12
f 66/11/13 105/10/13 11/12/13
f 45/11/14 4/5/14 11/12/14
f 4/5/15 66/11/15 11/12/15
f 29/11/16 6/10/16 13/12/16
f 6/10/17 44/11/17 13/12/17
f 83/5/18 81/11/18 12/12/18
f 28/11/19 83/5/19 12/12/19
f 44/11/20 47/5/20 13/12/20
f 47/5/21 29/11/21 13/12/21
f 25/3/22 21/2/22 16/1/22
f 15/1/23 23/2/23 26/3/23
f 27/3/24 23/2/24 15/1/24
f 17/1/4 85/6/4 100/5/4
f 22/8/5 23/6/5 27/7/5
f 25/7/25 24/9/25 22/8/25
f 24/9/4 26/7/4 23/6/4
f 16/1/7 21/2/7 27/3/7
f 26/3/8 24/2/8 17/1/8
f 17/1/26 24/2/26 25/3/26
f 20/4/5 15/1/5 14/6/5
f 65/5/25 18/4/25 16/1/25
f 84/5/25 85/6/25 17/1/25
f 63/5/5 48/6/5 16/1/5
f 19/4/4 28/5/4 14/6/4
f 19/10/10 26/12/10 28/11/10
f 100/11/27 26/12/27 19/10/27
f 128/10/28 25/12/28 65/11/28
f 84/11/29 25/12/29 128/10/29
f 65/11/30 25/12/30 18/5/30
f 18/5/31 25/12/31 84/11/31
f 29/11/16 27/12/16 20/10/16
f 20/10/32 27/12/32 63/11/32
f 83/5/18 26/12/18 100/11/18
f 28/11/33 26/12/33 83/5/33
f 63/11/20 27/12/20 47/5/20
f 47/5/34 27/12/34 29/11/34
f 41/3/31 37/2/31 32/1/31
f 31/1/27 39/2/27 42/3/27
f 43/3/3 39/2/3 31/1/3
f 33/1/35 103/6/35 119/5/35
f 38/8/5 39/6/5 43/7/5
f 41/7/6 40/9/6 38/8/6
f 40/9/35 42/7/35 39/6/35
f 32/1/36 37/2/36 43/3/36
f 42/3/37 40/2/37 33/1/37
f 33/1/9 40/2/9 41/3/9
f 36/4/5 31/1/5 46/6/5
f 45/5/6 34/4/6 32/1/6
f 102/5/6 103/6/6 33/1/6
f 44/5/5 30/6/5 32/1/5
f 35/4/35 62/5/35 46/6/35
f 35/10/38 42/12/38 62/11/38
f 119/11/23 42/12/23 35/10/23
f 105/10/39 41/12/39 45/11/39
f 102/11/13 41/12/13 105/10/13
f 45/11/14 41/12/14 34/5/14
f 34/5/22 41/12/22 102/11/22
f 64/11/40 43/12/40 36/10/40
f 36/10/17 43/12/17 44/11/17
f 123/5/41 42/12/41 119/11/41
f 62/11/42 42/12/42 123/5/42
f 44/11/43 43/12/43 47/5/43
f 47/5/21 43/12/21 64/11/21
f 50/1/15 55/2/15 59/3/15
f 49/1/11 53/4/11 60/3/11
f 49/1/24 57/2/24 61/3/24
f 143/5/35 126/6/35 51/1/35
f 61/7/5 57/6/5 56/8/5
f 56/8/25 58/9/25 59/7/25
f 57/6/35 60/7/35 58/9/35
f 50/1/36 54/4/36 61/3/36
f 51/1/37 58/2/37 60/3/37
f 51/1/26 52/4/26 59/3/26
f 46/6/5 49/1/5 54/4/5
f 50/1/25 52/4/25 65/5/25
f 51/1/25 126/6/25 125/5/25
f 50/1/5 48/6/5 63/5/5
f 46/6/35 62/5/35 53/4/35
f 53/10/38 62/11/38 60/12/38
f 143/11/2 53/10/2 60/12/2
f 128/10/44 65/11/44 59/12/44
f 125/11/29 128/10/29 59/12/29
f 65/11/30 52/5/30 59/12/30
f 52/5/1 125/11/1 59/12/1
f 64/11/40 54/10/40 61/12/40
f 54/10/32 63/11/32 61/12/32
f 123/5/41 143/11/41 60/12/41
f 62/11/45 123/5/45 60/12/45
f 63/11/43 47/5/43 61/12/43
f 47/5/34 64/11/34 61/12/34
f 78/3/1 74/2/1 69/1/1
f 68/1/2 76/2/2 79/3/2
f 80/3/32 76/2/32 68/1/32
f 70/1/4 67/6/4 81/5/4
f 75/8/46 76/6/46 80/7/46
f 78/7/6 77/9/6 75/8/6
f 77/9/4 79/7/4 76/6/4
f 69/1/40 74/2/40 80/3/40
f 79/3/38 77/2/38 70/1/38
f 70/1/30 77/2/30 78/3/30
f 73/4/46 68/1/46 82/6/46
f 121/5/6 71/4/6 69/1/6
f 66/5/6 67/6/6 70/1/6
f 120/5/46 104/6/46 69/1/46
f 72/4/4 99/5/4 82/6/4
f 72/10/37 79/12/37 99/11/37
f 81/11/11 79/12/11 72/10/11
f 105/10/12 78/12/12 121/11/12
f 66/11/47 78/12/47 105/10/47
f 121/11/26 78/12/26 71/5/26
f 71/5/15 78/12/15 66/11/15
f 101/11/36 80/12/36 73/10/36
f 73/10/24 80/12/24 120/11/24
f 83/5/48 79/12/48 81/11/48
f 99/11/19 79/12/19 83/5/19
f 120/11/49 80/12/49 124/5/49
f 124/5/50 80/12/50 101/11/50
f 87/1/22 92/2/22 96/3/22
f 86/1/23 90/4/23 97/3/23
f 86/1/17 94/2/17 98/3/17
f 100/5/4 85/6/4 88/1/4
f 98/7/46 94/6/46 93/8/46
f 93/8/25 95/9/25 96/7/25
f 94/6/4 97/7/4 95/9/4
f 87/1/40 91/4/40 98/3/40
f 88/1/38 95/2/38 97/3/38
f 88/1/14 89/4/14 96/3/14
f 82/6/46 86/1/46 91/4/46
f 87/1/25 89/4/25 146/5/25
f 88/1/25 85/6/25 84/5/25
f 87/1/46 127/6/46 144/5/46
f 82/6/4 99/5/4 90/4/4
f 90/10/37 99/11/37 97/12/37
f 100/11/27 90/10/27 97/12/27
f 128/10/28 146/11/28 96/12/28
f 84/11/51 128/10/51 96/12/51
f 146/11/9 89/5/9 96/12/9
f 89/5/31 84/11/31 96/12/31
f 101/11/36 91/10/36 98/12/36
f 91/10/3 144/11/3 98/12/3
f 83/5/48 100/11/48 97/12/48
f 99/11/33 83/5/33 97/12/33
f 144/11/49 124/5/49 98/12/49
f 124/5/52 101/11/52 98/12/52
f 107/1/31 112/2/31 116/3/31
f 106/1/27 110/4/27 117/3/27
f 106/1/32 114/2/32 118/3/32
f 119/5/35 103/6/35 108/1/35
f 118/7/46 114/6/46 113/8/46
f 113/8/6 115/9/6 116/7/6
f 114/6/35 117/7/35 115/9/35
f 107/1/16 111/4/16 118/3/16
f 108/1/10 115/2/10 117/3/10
f 108/1/30 109/4/30 116/3/30
f 122/6/46 106/1/46 111/4/46
f 107/1/6 109/4/6 121/5/6
f 108/1/6 103/6/6 102/5/6
f 107/1/46 104/6/46 120/5/46
f 122/6/35 142/5/35 110/4/35
f 110/10/8 142/11/8 117/12/8
f 119/11/23 110/10/23 117/12/23
f 105/10/39 121/11/39 116/12/39
f 102/11/47 105/10/47 116/12/47
f 121/11/26 109/5/26 116/12/26
f 109/5/22 102/11/22 116/12/22
f 145/11/7 111/10/7 118/12/7
f 111/10/24 120/11/24 118/12/24
f 123/5/53 119/11/53 117/12/53
f 142/11/42 123/5/42 117/12/42
f 120/11/54 124/5/54 118/12/54
f 124/5/50 145/11/50 118/12/50
f 139/3/15 135/2/15 130/1/15
f 129/1/11 137/2/11 140/3/11
f 141/3/17 137/2/17 129/1/17
f 131/1/35 126/6/35 143/5/35
f 136/8/46 137/6/46 141/7/46
f 139/7/25 138/9/25 136/8/25
f 138/9/35 140/7/35 137/6/35
f 130/1/16 135/2/16 141/3/16
f 140/3/10 138/2/10 131/1/10
f 131/1/14 138/2/14 139/3/14
f 134/4/46 129/1/46 122/6/46
f 146/5/25 132/4/25 130/1/25
f 125/5/25 126/6/25 131/1/25
f 144/5/46 127/6/46 130/1/46
f 133/4/35 142/5/35 122/6/35
f 133/10/8 140/12/8 142/11/8
f 143/11/2 140/12/2 133/10/2
f 128/10/44 139/12/44 146/11/44
f 125/11/51 139/12/51 128/10/51
f 146/11/9 139/12/9 132/5/9
f 132/5/1 139/12/1 125/11/1
f 145/11/7 141/12/7 134/10/7
f 134/10/3 141/12/3 144/11/3
f 123/5/53 140/12/53 143/11/53
f 142/11/45 140/12/45 123/5/45
f 144/11/54 141/12/54 124/5/54
f 124/5/52 141/12/52 145/11/52
f 4/4/1 2/1/1 11/3/1
f 9/2/2 1/1/2 12/3/2
f 6/4/3 1/1/3 13/3/3
f 5/4/4 81/5/4 3/1/4
f 7/2/5 13/7/5 8/8/5
f 7/2/6 8/8/6 11/7/6
f 8/8/4 9/6/4 10/9/4
f 7/2/7 2/1/7 13/3/7
f 5/4/8 3/1/8 12/3/8
f 10/2/9 3/1/9 11/3/9
f 29/5/5 14/6/5 6/4/5
f 30/6/6 2/1/6 45/5/6
f 4/4/6 3/1/6 66/5/6
f 6/4/5 2/1/5 44/5/5
f 1/1/4 14/6/4 5/4/4
f 18/4/22 25/3/22 16/1/22
f 19/4/23 15/1/23 26/3/23
f 20/4/24 27/3/24 15/1/24
f 19/4/4 17/1/4 100/5/4
f 21/2/5 22/8/5 27/7/5
f 21/2/25 25/7/25 22/8/25
f 22/8/4 24/9/4 23/6/4
f 20/4/7 16/1/7 27/3/7
f 19/4/8 26/3/8 17/1/8
f 18/4/26 17/1/26 25/3/26
f 29/5/5 20/4/5 14/6/5
f 48/6/25 65/5/25 16/1/25
f 18/4/25 84/5/25 17/1/25
f 20/4/5 63/5/5 16/1/5
f 15/1/4 19/4/4 14/6/4
f 34/4/31 41/3/31 32/1/31
f 35/4/27 31/1/27 42/3/27
f 36/4/3 43/3/3 31/1/3
f 35/4/35 33/1/35 119/5/35
f 37/2/5 38/8/5 43/7/5
f 37/2/6 41/7/6 38/8/6
f 38/8/35 40/9/35 39/6/35
f 36/4/36 32/1/36 43/3/36
f 35/4/37 42/3/37 33/1/37
f 34/4/9 33/1/9 41/3/9
f 64/5/5 36/4/5 46/6/5
f 30/6/6 45/5/6 32/1/6
f 34/4/6 102/5/6 33/1/6
f 36/4/5 44/5/5 32/1/5
f 31/1/35 35/4/35 46/6/35
f 52/4/15 50/1/15 59/3/15
f 57/2/11 49/1/11 60/3/11
f 54/4/24 49/1/24 61/3/24
f 53/4/35 143/5/35 51/1/35
f 55/2/5 61/7/5 56/8/5
f 55/2/25 56/8/25 59/7/25
f 56/8/35 57/6/35 58/9/35
f 55/2/36 50/1/36 61/3/36
f 53/4/37 51/1/37 60/3/37
f 58/2/26 51/1/26 59/3/26
f 64/5/5 46/6/5 54/4/5
f 48/6/25 50/1/25 65/5/25
f 52/4/25 51/1/25 125/5/25
f 54/4/5 50/1/5 63/5/5
f 49/1/35 46/6/35 53/4/35
f 71/4/1 78/3/1 69/1/1
f 72/4/2 68/1/2 79/3/2
f 73/4/32 80/3/32 68/1/32
f 72/4/4 70/1/4 81/5/4
f 74/2/46 75/8/46 80/7/46
f 74/2/6 78/7/6 75/8/6
f 75/8/4 77/9/4 76/6/4
f 73/4/40 69/1/40 80/3/40
f 72/4/38 79/3/38 70/1/38
f 71/4/30 70/1/30 78/3/30
f 101/5/46 73/4/46 82/6/46
f 104/6/6 121/5/6 69/1/6
f 71/4/6 66/5/6 70/1/6
f 73/4/46 120/5/46 69/1/46
f 68/1/4 72/4/4 82/6/4
f 89/4/22 87/1/22 96/3/22
f 94/2/23 86/1/23 97/3/23
f 91/4/17 86/1/17 98/3/17
f 90/4/4 100/5/4 88/1/4
f 92/2/46 98/7/46 93/8/46
f 92/2/25 93/8/25 96/7/25
f 93/8/4 94/6/4 95/9/4
f 92/2/40 87/1/40 98/3/40
f 90/4/38 88/1/38 97/3/38
f 95/2/14 88/1/14 96/3/14
f 101/5/46 82/6/46 91/4/46
f 127/6/25 87/1/25 146/5/25
f 89/4/25 88/1/25 84/5/25
f 91/4/46 87/1/46 144/5/46
f 86/1/4 82/6/4 90/4/4
f 109/4/31 107/1/31 116/3/31
f 114/2/27 106/1/27 117/3/27
f 111/4/32 106/1/32 118/3/32
f 110/4/35 119/5/35 108/1/35
f 112/2/46 118/7/46 113/8/46
f 112/2/6 113/8/6 116/7/6
f 113/8/35 114/6/35 115/9/35
f 112/2/16 107/1/16 118/3/16
f 110/4/10 108/1/10 117/3/10
f 115/2/30 108/1/30 116/3/30
f 145/5/46 122/6/46 111/4/46
f 104/6/6 107/1/6 121/5/6
f 109/4/6 108/1/6 102/5/6
f 111/4/46 107/1/46 120/5/46
f 106/1/35 122/6/35 110/4/35
f 132/4/15 139/3/15 130/1/15
f 133/4/11 129/1/11 140/3/11
f 134/4/17 141/3/17 129/1/17
f 133/4/35 131/1/35 143/5/35
f 135/2/46 136/8/46 141/7/46
f 135/2/25 139/7/25 136/8/25
f 136/8/35 138/9/35 137/6/35
f 134/4/16 130/1/16 141/3/16
f 133/4/10 140/3/10 131/1/10
f 132/4/14 131/1/14 139/3/14
f 145/5/46 134/4/46 122/6/46
f 127/6/25 146/5/25 130/1/25
f 132/4/25 125/5/25 131/1/25
f 134/4/46 144/5/46 130/1/46
f 129/1/35 133/4/35 122/6/35
o Chute_chutemdl
v 0.849999 0.000000 0.849999
v 1.000000 1.000000 1.000000
v 1.000000 0.900000 1.000000
v 0.849999 0.200000 0.849999
v 0.900000 0.900000 0.900000
v 0.900000 1.000000 0.900000
v 0.729040 0.729725 0.729040
v 0.849999 0.000000 0.150001
v 1.000000 1.000000 -0.000000
v 1.000000 0.900000 -0.000000
v 0.849999 0.200000 0.150001
v 0.900000 0.900000 0.100000
v 0.900000 1.000000 0.100000
v 0.729040 0.729725 0.270960
v 0.500000 0.000000 0.500000
v 0.150001 0.000000 0.849999
v 0.150001 0.000000 0.150001
v 0.000000 1.000000 1.000000
v 0.000000 1.000000 0.000000
v 0.000000 0.900000 1.000000
v 0.000000 0.900000 0.000000
v 0.150001 0.200000 0.849999
v 0.150001 0.200000 0.150001
v 0.100000 0.900000 0.900000
v 0.100000 0.900000 0.100000
v 0.100000 1.000000 0.900000
v 0.100000 1.000000 0.100000
v 0.270960 0.729725 0.270960
v 0.270960 0.729725 0.729040
v 0.500000 0.729725 0.500000
vt 0.220703 0.330078
vt 0.230469 0.330078
vt 0.230469 0.365234
vt 0.238281 0.347656
vt 0.250000 0.359375
vt 0.250000 0.335938
vt 0.193359 0.322266
vt 0.220703 0.365234
vt 0.273438 0.373047
vt 0.267578 0.369141
vt 0.267578 0.328125
vt 0.187500 0.322266
vt 0.193359 0.373047
vt 0.263672 0.328125
vt 0.263672 0.369141
vt 0.273438 0.322266
vt 0.187500 0.373047
vn 1.000000 0.000000 0.000000
vn 0.000000 -1.000000 0.000000
vn 0.000000 1.000000 0.000000
vn 0.977800 -0.209500 0.000000
vn -0.705700 0.708500 0.000000
vn 0.000000 0.000000 1.000000
vn -0.000000 -0.209500 0.977800
vn 0.000000 0.708500 -0.705700
vn 0.000000 0.000000 -1.000000
vn 0.000000 -0.209500 -0.977800
vn 0.000000 0.708500 0.705700
vn -1.000000 0.000000 0.000000
vn -0.977800 -0.209500 0.000000
vn 0.705700 0.708500 0.000000
usemtl Conveyor_conveyor
s off
f 150/13/55 147/14/55 154/15/55
f 161/16/56 154/15/56 147/14/56
f 160/17/57 176/16/57 153/18/57
f 149/19/58 150/13/58 157/20/58
f 155/21/57 159/22/57 152/23/57
f 148/24/55 149/19/55 156/25/55
f 151/26/59 158/27/59 160/17/59
f 162/15/60 147/14/60 150/13/60
f 161/16/56 147/14/56 162/15/56
f 175/17/57 153/18/57 176/16/57
f 168/20/61 150/13/61 149/19/61
f 152/23/57 172/22/57 164/21/57
f 166/25/60 149/19/60 148/24/60
f 153/18/62 175/17/62 170/27/62
f 154/15/63 163/14/63 169/13/63
f 161/16/56 163/14/56 154/15/56
f 160/17/57 174/18/57 176/16/57
f 157/20/64 169/13/64 167/19/64
f 173/23/57 159/22/57 155/21/57
f 156/25/63 167/19/63 165/24/63
f 174/18/65 160/17/65 158/27/65
f 169/13/66 163/14/66 162/15/66
f 161/16/56 162/15/56 163/14/56
f 175/17/57 176/16/57 174/18/57
f 167/19/67 169/13/67 168/20/67
f 164/21/57 172/22/57 173/23/57
f 165/24/66 167/19/66 166/25/66
f 170/27/68 175/17/68 174/18/68
f 157/20/55 150/13/55 154/15/55
f 156/25/58 149/19/58 157/20/58
f 148/28/57 155/21/57 152/23/57
f 155/29/55 148/24/55 156/25/55
f 153/18/59 151/26/59 160/17/59
f 168/20/60 162/15/60 150/13/60
f 166/25/61 168/20/61 149/19/61
f 148/28/57 152/23/57 164/21/57
f 164/29/60 166/25/60 148/24/60
f 151/26/62 153/18/62 170/27/62
f 157/20/63 154/15/63 169/13/63
f 156/25/64 157/20/64 167/19/64
f 165/28/57 173/23/57 155/21/57
f 155/29/63 156/25/63 165/24/63
f 171/26/65 174/18/65 158/27/65
f 168/20/66 169/13/66 162/15/66
f 166/25/67 167/19/67 168/20/67
f 165/28/57 164/21/57 173/23/57
f 164/29/66 165/24/66 166/25/66
f 171/26/68 170/27/68 174/18/68
usemtl Conveyor
f 159/22/66 158/27/66 151/26/66
f 151/26/63 170/27/63 172/22/63
f 171/26/60 158/27/60 159/22/60
f 172/22/55 170/27/55 171/26/55
f 152/23/66 159/22/66 151/26/66
f 152/23/63 151/26/63 172/22/63
f 173/23/60 171/26/60 159/22/60
f 173/23/55 172/22/55 171/26/55
